<?xml version="1.0" encoding="UTF-8"?>
<svg xmlns="http://www.w3.org/2000/svg" viewBox="0 0 1897.41 355.52">
  <defs>
    <style>
      .e {
        fill: #b9932e;
      }

      .f {
        fill: #484219;
      }

      .g {
        fill: #054651;
      }

      .h {
        fill: #034651;
      }

      .i {
        fill: #a57e2d;
      }

      .j {
        fill: #262416;
      }

      .k {
        fill: #e0b625;
      }

      .l {
        fill: #cfeae4;
      }
    </style>
  </defs>
  <g id="a" data-name="Layer 4">
    <rect class="l" x="1.06" y="105.43" width="1896.36" height="166.39"/>
  </g>
  <g id="b" data-name="Layer 13">
    <path class="h" d="M1.06,271.83h11.67c.86-.25,2.01-.63,3.34-1.2,1-.43,13.59-6.02,12.96-12.84-.07-.74-.51-3.85-5.63-6.85-3.34-.06-7.68.18-12.59,1.33-3.88.91-7.15,2.16-9.74,3.36v16.19Z"/>
  </g>
  <g id="c" data-name="plant">
    <path class="h" d="M164.2,184.11c65.12-12.4,129.28-29.75,192-51.18.43-.15.89.08,1.04.51.15.43-.08.9-.51,1.04-54.98,18.74-110.89,34.71-167.42,48.1-8.08,1.92-16.16,3.82-24.26,5.63-2.66.54-3.67-3.44-.85-4.1h0Z"/>
    <path class="h" d="M173.74,180.37c56.96-19.54,111.84-45.26,163.39-76.57.17-.1.39-.05.49.12.1.17.05.38-.12.49-51.15,32.04-105.8,58.59-162.7,78.99-1.95.66-3.12-2.25-1.06-3.03h0Z"/>
    <path class="h" d="M36.53,246.74c66.56-35.18,135.26-66.9,203.76-98.07.49-.23,1.07-.02,1.3.48s.02,1.07-.48,1.3c-25.87,11.22-51.1,23.89-75.92,37.26-41.25,22.39-81.59,46.51-120.44,72.82-3.68,2.49-8.68,1.53-11.17-2.15-2.7-3.93-1.3-9.47,2.94-11.64h0Z"/>
    <path class="h" d="M9.06,252.6c6.91-1.84,17.05-4.54,23.87-6.21,55.81-13.55,112.36-24.84,169.8-28.41,24.51-1.51,49.04.44,73.51-.18,40.57-1.17,80.98-6.05,120.83-14.1.58-.12,1.15.26,1.26.84.12.56-.24,1.12-.79,1.26-39.63,9.72-80.19,16.32-120.98,19.17-24.36,1.64-48.8.83-73.05,3.38-48.21,5.06-95.78,16.07-142.52,28.74-15.35,4.21-31.31,8.95-46.51,13.8-5.05,1.66-10.49-1.14-12.08-6.22-1.63-5.17,1.42-10.7,6.66-12.07h0Z"/>
    <path class="h" d="M318.22,218.51c38.58,4.28,77.84,2.67,116.02-4.79.49-.1.97.23,1.07.72.1.49-.22.96-.71,1.07-38.25,8.01-77.76,10.19-116.73,6.41-2.22-.26-1.95-3.59.35-3.41h0Z"/>
    <path class="g" d="M350.95,136.14c3.62-.72,5.43-1.08,7.64-1.16,3.3-.12,6.59-.94,9.89-.73.16.01.75.06,1.05-.3.22-.26.19-.62.15-1.06-.09-1.01-.48-1.28-.31-1.72.2-.5.85-.53.82-.74-.03-.27-1.13-.54-2.29-.35-1.43.24-2.02,1.04-2.66.71-.45-.23-.28-.68-.74-.93-.57-.31-1.09.23-2.83.66-1.25.31-1.64.19-1.78.14-.72-.25-.8-.8-1.3-.92-.86-.22-1.8,1.14-2.53,1.94-.71.77-2.6,1.54-6.35,3.06-2.37.96-3.29,1.21-6.75,2.57-3.46,1.36-4.2,1.75-4.14,2.07.07.41,1.42.67,2.58.38,1.12-.27,1.83-.99,2.1-1.25,1.17-1.11,3.27-1.54,7.42-2.37Z"/>
    <path class="g" d="M434.29,213.89c3.77-1.23,5.65-1.84,6.79-2.38,2.7-1.28,5.82-2.09,8.31-3.59.12-.07.56-.35,1.02-.24.34.08.54.33.78.63.55.69.41,1.03.83,1.25.47.25,1,0,1.11.14.14.19-.56.82-1.6,1.17-1.28.43-2.25.15-2.56.63-.21.33.2.56,0,.91-.26.43-1.01.3-2.66.73-1.18.31-1.42.55-1.5.64-.42.46-.13.85-.45,1.13-.55.5-2.14,0-3.22-.22-1.04-.21-3.03.06-6.95.61-2.48.35-3.37.57-6.96,1.1-2.14.32-4.57.46-4.58.35,0-.06.78-.21,1.76-.4,1.17-.23,1.75-.34,2.94-.51,1.66-.24,3.44-.81,6.94-1.95Z"/>
    <path class="f" d="M304.21,152.49c0,.07,3.23-.03,3.79.04.05,0,.1.01.1.01s.37.05.74.12c.39.07,2.15.53,2.99.87,2.71,1.09,5.23,3.61,5.23,3.61,5.69,5.71,18.3,6.64,26.3,11.65.07.05,2.64,1.65,6.22,2.01.83.08,2.36.22,2.6-.35.07-.17.21-.84-2.72-3.05-4.17-3.14-8.13-4.56-8.14-4.56-.62-.22-8.33-3.41-23.75-9.78-.79-.33-2.28-.94-4.36-1.29-4.97-.82-9.01.63-9,.7Z"/>
    <path class="j" d="M167.1,222.74c-.63-.38,1.33-4.78,1.96-6.19,1.84-4.11,4.59-12.92,16.68-24.72,5.62-5.48,9.7-9.47,15.25-10.43,0,0,.18-.03,7.89-1.16.39.24.98.55,1.74.8.3.1.43.12.5.23.47.66-1.74,2.98-2.19,3.45-2.47,2.6-3.73,3.87-7.06,5.53-3.83,1.92-12.69,7.92-19.97,15.66-1.43,1.51-3.2,3.63-6.75,7.87-5.24,6.25-7.5,9.29-8.06,8.96Z"/>
    <path class="j" d="M244.58,168.46c-.39.62,3.36,3.65,4.57,4.61,3.51,2.81,9.98,9.4,26.12,14.39,7.5,2.32,12.95,4,18.33,2.32,0,0,.17-.05,7.55-2.57.24-.39.62-.93,1.18-1.5.22-.22.32-.3.34-.44.12-.8-2.91-1.86-3.52-2.07-3.38-1.18-5.09-1.74-8.8-1.71-4.28.04-14.9-1.27-24.92-4.82-1.96-.7-4.51-1.77-9.6-3.92-7.51-3.17-10.91-4.85-11.26-4.3Z"/>
    <path class="f" d="M142.82,195.55c1.43-.49,1.81-2.26,2.37-3.45,1.49-3.21,5.04-4.14,7.83-5.41,2.44-1.11,5.63-4.12,12.02-10.14,15.81-14.9,19.05-24.42,30.04-37.58,0,0,3.69-4.42,5.04-11.28.51-2.59.05-3.17-.25-3.34-.6-.35-1.62.3-2.29.8-14.82,11-22.44,21.87-22.44,21.87-11.86,16.92-17.78,25.38-22.43,29.95-3.92,3.85-6.54,8.84-9.96,13.14-1.02,1.28-3.02,3.77-2.28,4.94.4.62,1.52.79,2.35.5Z"/>
    <path class="f" d="M243.72,150.8c2.38-5.59,3.13-4.45,9.17-15.48,13.16-24.01,12.56-34.69,20.23-44.42,0,0,6.68-8.47,4.96-12.77-.11-.27-.61-1.35-.41-2.7.14-.95.51-1.31,1.14-2.48,1.33-2.48.78-2.96,2.02-5,.82-1.34,1.06-1.14,1.81-2.52.82-1.51.6-1.91,1.36-3.11.68-1.07,1.45-1.72,2.47-2.56,1.4-1.15,2.43-1.68,3.06-2.08,2.35-1.49,3.39-4.3,5.49-9.92,1.06-2.85,1.93-5.24,1.32-5.62-.53-.33-1.85.98-3.06,2.08-4.49,4.08-7.67,5.51-9.56,6.97-9.88,7.66-23.75,39.44-23.75,39.44s-9.68,22.18-15.94,44.89c-1.93,7-1.64,9.5-3.08,12.51-.13.28-.94,1.95-.84,4.11.04.9.28,2.65.93,2.77.91.17,2.2-2.97,2.69-4.11Z"/>
    <path class="f" d="M209.84,172.79c-.86.8,2.9,6.18,4.29,8.14,9.23,13.04,20.9,26.56,23.56,29.66,0,0,18.07,21.06,28.96,28.96,2.32,1.68,4.4,2.29,8.55,3.5.64.19,1.76.49,2.03.08.36-.54-.99-2.03-1.38-2.46-2.92-3.31-4.24-7.71-6.37-11.55-3.7-6.67-7.72-7.77-19.68-20.62-4.95-5.31-3.99-4.83-9.37-10.57-8.14-8.68-12.2-13.01-16.57-15.31-2.43-1.28-4.9-2.08-7.02-4.73-.72-.9-1.64-2.32-3.55-3.66-.25-.18-2.86-1.99-3.46-1.44Z"/>
    <path class="f" d="M273.82,216.92c2.14-3.56,5.79-4.89,8.69-6.45,7.57-4.09,12.47-11.18,13.52-12.7,0,0,3.05-4.42,5.52-14.74.21-.88.56-2.54-.07-2.92-.46-.28-1.23.24-1.91.69-3.47,2.24-3.94,2.01-5.37,3.1-3.83,2.94-7.2,9.81-13.27,18.31-2.26,3.16-3.8,6.9-6.57,9.62-.8.79-2.99,2.84-3.09,5.62-.02.67.06,1.85.51,1.98.61.16,1.55-1.67,2.05-2.5Z"/>
    <path class="f" d="M311.79,221.88c2.99,6,9.23,11.78,11.56,14.06,8.24,8.06,7.28,11.12,16.43,18.88.69.58,6.2,5.23,6.88,4.57.45-.44-1.45-2.97-3.5-5.91-5.58-7.98-3.93-6.96-10.36-16.44-8.07-11.9-10.67-13.52-12.14-14.18-1.65-.74-3.89-1.18-7.09-3.24-1.23-.79-2.35-1.67-2.77-1.34-.58.45.64,2.9.99,3.6Z"/>
    <path class="f" d="M339.87,99.3c1.96-3.49,1.74-4.08,5.74-14.89.75-2.04,1.64-4.38,1.83-7.63.11-1.88.06-5.1-.77-5.28-.61-.13-1.41,1.4-1.96,2.52-3.5,7.06-5.67,11.45-6.18,18.27-.25,3.4.02,5.98-1.42,9.74-.59,1.56-1.35,3-1.21,3.08.22.12,2.29-2.83,3.97-5.82Z"/>
    <path class="f" d="M239.12,224.73c-.14.17.44.84.82,1.33,1.95,2.5,2.25,4.89,2.75,6.22,1.24,3.3,5.55,4.89,8.81,6.29,16.39,7.02,24.58,10.54,28.2,11.54,11.33,3.12,23.99,5.29,24.24,4.34.08-.31-1.14-.91-4.9-2.42-13.73-5.53-17.7-5.59-26.45-9.24-6.48-2.7-5.96-3.36-16.31-8.27-4.5-2.13-6.58-3.51-8.5-4.79-.96-.64-2.3-1.46-4.98-3.1-2.29-1.4-3.51-2.11-3.69-1.89Z"/>
    <path class="f" d="M376.8,205.4c.84,1.2,12.16-3.09,21.34-11.68,6.45-6.03,6.47-9.16,14.67-15.85,5.04-4.11,9-6.16,8.61-7.01-.44-.93-5.97.18-10.77,2.86-3.78,2.11-4.89,3.95-9.16,8.22-7.29,7.3-9.52,7.41-18.69,16.5-4.28,4.24-6.42,6.36-5.99,6.96Z"/>
    <path class="j" d="M190.84,225.54c1.51,0,2.44,1.56,3.35,2.51,2.44,2.56,6.1,2.31,9.15,2.61,2.66.27,6.66,2.09,14.64,5.75,19.76,9.04,25.88,17.01,40.51,25.95,0,0,4.91,3,8.4,9.07,1.31,2.29,1.06,2.98.84,3.24-.45.52-1.63.23-2.43-.03-17.57-5.66-28.27-13.51-28.27-13.51-16.66-12.22-24.99-18.33-30.86-21.17-4.95-2.39-9.03-6.28-13.65-9.25-1.38-.89-4.07-2.6-3.74-3.95.18-.72,1.19-1.23,2.07-1.23Z"/>
    <path class="j" d="M307.08,121.55c-.07.73,4.64,1.75,6.15,2.07,4.4.94,13.14,3.92,29.8,1.13,7.74-1.3,13.37-2.24,17.42-6.15,0,0,.13-.13,5.6-5.68.04-.46.13-1.11.38-1.87.1-.3.15-.41.11-.54-.26-.77-3.43-.35-4.08-.27-3.55.46-5.33.72-8.63,2.43-3.81,1.96-13.89,5.56-24.43,6.88-2.06.26-4.82.44-10.34.8-8.14.54-11.93.56-11.99,1.21Z"/>
    <path class="j" d="M103.12,210.56c1-4.03,4.1-6.37,6.41-8.72,6.04-6.14,8.63-14.35,9.19-16.11,0,0,1.62-5.12.94-15.71-.06-.9-.21-2.59-.92-2.77-.52-.13-1.11.6-1.63,1.22-2.65,3.16-3.18,3.08-4.22,4.54-2.8,3.93-4,11.5-7.31,21.4-1.23,3.68-1.61,7.71-3.45,11.13-.53.99-2.03,3.6-1.3,6.28.17.64.6,1.76,1.07,1.74.63-.02.99-2.05,1.22-2.99Z"/>
    <path class="f" d="M119.27,194.68c4.62,4.85,12.28,8.55,15.19,10.04,10.25,5.29,10.22,8.49,21.25,13.22.83.36,7.47,3.18,7.92,2.35.3-.55-2.26-2.41-5.09-4.62-7.68-5.99-5.8-5.5-14.73-12.67-11.21-9-14.18-9.79-15.77-9.99-1.8-.23-4.07.02-7.73-1.01-1.41-.4-2.74-.9-3.04-.47-.42.6,1.46,2.58,2.01,3.15Z"/>
    <path class="f" d="M105.63,216.07c-.18.13.21.93.45,1.5,1.25,2.91.93,5.3,1.07,6.71.36,3.5,4.12,6.15,6.91,8.33,14.05,10.97,21.08,16.46,24.32,18.35,10.16,5.91,21.85,11.24,22.33,10.38.16-.28-.87-1.17-4.11-3.59-11.87-8.85-15.69-9.92-23.21-15.68-5.57-4.27-4.91-4.77-13.66-12.15-3.8-3.21-5.47-5.08-6.99-6.8-.76-.87-1.85-2-4.03-4.27-1.86-1.94-2.86-2.94-3.09-2.77Z"/>
    <path class="f" d="M289.61,157.01c2.38,2.8,6.01,4.17,8.94,5.64,7.66,3.82,13.01,9.46,14.16,10.67,0,0,3.34,3.52,6.65,11.19.28.65.77,1.88.2,2.08-.41.14-1.21-.32-1.9-.72-3.54-2.01-3.97-1.9-5.45-2.85-3.96-2.55-7.82-7.86-14.44-14.65-2.46-2.52-4.29-5.38-7.2-7.65-.84-.66-3.14-2.38-3.49-4.38-.08-.48-.11-1.32.31-1.35.57-.05,1.64,1.37,2.2,2.03Z"/>
    <path class="f" d="M423.83,214.04c3.08-2.55,3.08-3.19,10.69-11.85,1.43-1.63,3.09-3.5,4.44-6.47.78-1.72,1.88-4.74,1.17-5.2-.52-.33-1.82.8-2.73,1.65-5.79,5.34-9.4,8.66-12.31,14.85-1.45,3.08-2.13,5.59-4.81,8.59-1.11,1.24-2.34,2.31-2.23,2.44.16.2,3.15-1.82,5.79-4.01Z"/>
    <path class="j" d="M381.43,226.28c2.01,1.97,1.98,2.42,6.8,8.93.91,1.23,1.97,2.63,2.74,4.79.45,1.25,1.04,3.44.51,3.72-.39.2-1.23-.67-1.82-1.31-3.75-4.08-6.08-6.62-7.76-11.13-.84-2.24-1.16-4.04-2.87-6.31-.71-.94-1.5-1.76-1.42-1.84.12-.13,2.1,1.46,3.82,3.15Z"/>
    <path class="j" d="M293.27,224.87c7.22,5.85,12.52,6.8,18.38,9.77,13.71,6.96,21.07,20.25,25.13,27.57,1.26,2.28,7.31,13.46,7.41,26.11.01,1.75.06,7.28-1.48,7.63-1.15.26-2.69-2.49-3.23-3.46-5.93-10.55-17.35-28.53-21.82-34.94-9.06-12.97-13.58-19.46-20.54-23.17-.99-.53-7.14-3.72-10.12-10.07-.19-.4-1.69-3.61-.88-4.24.95-.73,4.42,2.56,7.15,4.78Z"/>
    <path class="f" d="M303.52,216.91c-.13-.19.51-.8.93-1.26,2.15-2.33,2.65-4.68,3.26-5.97,1.51-3.18,5.94-4.41,9.3-5.53,16.91-5.64,25.37-8.46,29.06-9.15,11.55-2.17,24.35-3.28,24.52-2.31.05.31-1.21.81-5.08,2.01-14.15,4.37-18.1,4.1-27.12,7.01-6.68,2.16-6.22,2.86-16.94,6.88-4.66,1.75-6.85,2.96-8.87,4.07-1.01.56-2.41,1.26-5.22,2.67-2.4,1.21-3.67,1.81-3.84,1.58Z"/>
    <path class="f" d="M134.16,259.54c-.33-8.78-.5-13.17-1.46-15.66-1.1-2.86-2.98-6.02-1.79-9.35.44-1.24,1.41-2.77.73-4.12-.39-.78-1.31-1.46-2.03-1.29-1.35.31-1.67,3.49-1.84,5.12-.58,5.47-2.21,10.86-2.12,16.35.1,6.16-1.42,15.61-4.47,33.85,3.82-.18,7.66-.27,11.5-.3,1.08-6.82,1.86-14.28,1.47-24.6Z"/>
    <path class="j" d="M212.25,289.07c.47-4.61-8.27-10.92-8.27-10.92-10.04-7.25-12.4-17.69-31.64-37.17-8.84-8.94-9.24-7.65-13.06-12.37-.78-.97-2.88-3.63-3.71-3.22-.59.29-.34,2.05-.14,2.92.49,2.11,1.73,3.49,1.93,3.72,2.2,2.49,2.61,4.98,6.39,11.18,12.24,20.13,27.64,38.8,27.64,38.8,0,0,2.69,3.27,6.69,7.71,4.71.13,9.43.29,14.13.47-.04-.55.02-.97.04-1.13Z"/>
    <path class="f" d="M89.02,208.88c-.92-9.25,1.21-14.2,1.95-20.73,1.73-15.28-5.31-28.74-9.2-36.16-1.21-2.31-7.22-13.51-17.73-20.55-1.46-.98-6.05-4.05-7.19-2.96-.85.82.6,3.62,1.11,4.6,5.55,10.75,14.28,30.19,17.17,37.44,5.85,14.7,8.78,22.05,8.04,29.9-.1,1.12-.82,8.01,2.84,13.99.23.37,2.09,3.4,3.06,3.06,1.13-.39.29-5.1-.05-8.6Z"/>
    <path class="j" d="M348.79,222.78c2.06,3.6,5.69,5,8.55,6.63,7.49,4.25,12.24,11.43,13.25,12.97,0,0,2.96,4.48,5.22,14.85.19.89.51,2.55-.13,2.92-.46.27-1.23-.27-1.9-.73-3.42-2.31-3.9-2.09-5.3-3.21-3.77-3.01-7-9.96-12.9-18.58-2.19-3.2-3.66-6.97-6.37-9.75-.78-.8-2.94-2.9-2.97-5.69,0-.67.1-1.85.55-1.97.61-.15,1.51,1.7,2,2.54Z"/>
    <path class="f" d="M180.22,183.57c4.62,4.85,12.28,8.55,15.19,10.04,10.25,5.29,10.22,8.49,21.25,13.22.83.36,7.47,3.18,7.92,2.35.3-.55-2.26-2.41-5.09-4.62-7.68-5.99-5.8-5.5-14.73-12.67-11.21-9-14.18-9.79-15.77-9.99-1.8-.23-4.07.02-7.73-1.01-1.41-.4-2.74-.9-3.04-.47-.42.6,1.46,2.58,2.01,3.15Z"/>
    <path class="j" d="M153.48,183.52c-.18.13.21.93.45,1.5,1.25,2.91.93,5.3,1.07,6.71.36,3.5,4.12,6.15,6.91,8.33,14.05,10.97,21.08,16.46,24.32,18.35,10.16,5.91,21.85,11.24,22.33,10.38.16-.28-.87-1.17-4.11-3.59-11.87-8.85-15.69-9.92-23.21-15.68-5.57-4.27-4.91-4.77-13.66-12.15-3.8-3.21-5.47-5.08-6.99-6.8-.76-.87-1.85-2-4.03-4.27-1.86-1.94-2.86-2.94-3.09-2.77Z"/>
    <path class="f" d="M213.88,219.52c2.6-2.59,6.34-3.66,9.38-4.87,7.95-3.17,13.75-8.35,15-9.46,0,0,3.62-3.23,7.56-10.59.34-.63.93-1.81.38-2.06-.4-.18-1.23.22-1.96.56-3.69,1.71-4.12,1.56-5.66,2.39-4.15,2.21-8.45,7.19-15.61,13.4-2.66,2.31-4.72,5-7.81,7.03-.89.58-3.33,2.11-3.84,4.08-.12.47-.22,1.3.2,1.37.56.09,1.75-1.23,2.36-1.84Z"/>
    <path class="j" d="M202.1,163.62c4.21-8.29,8.67-11.31,12.81-16.41,9.69-11.94,11-27.07,11.73-35.42.23-2.59,1.2-15.27-3.87-26.87-.7-1.61-2.91-6.67-4.46-6.36-1.16.23-1.44,3.37-1.54,4.48-1.12,12.05-4.23,33.13-5.7,40.79-2.99,15.54-4.48,23.3-9.33,29.52-.69.89-5.01,6.31-5.14,13.31,0,.44-.08,3.99.92,4.23,1.17.28,2.99-4.14,4.59-7.28Z"/>
    <path class="j" d="M281.67,85.69c3.12,3.83,2.6,9.67,2.43,12.68-.61,10.8,1.91,9.31,1.17,20.77,0,0-.48,7.52-4.33,15.18-.25.49-.96,1.9-1.37,1.79-.38-.1-.28-1.47-.25-2.79.15-6.77-1.67-9.27.1-11.28.53-.6,1.27-1.04,1.38-1.98.11-.9-.45-1.56-.83-2.26-.38-.71-.7-1.66-.53-5.02.4-8.12,2.78-14.25,1.46-21.77-.56-3.17-1.73-6.37-1.02-6.7.49-.23,1.53,1.04,1.79,1.37Z"/>
    <path class="f" d="M404.22,220.61c-.03.06,2.76,1.67,3.21,2.03.04.03.07.06.07.06s.29.24.57.49c.29.27,1.55,1.58,2.09,2.32,1.73,2.35,2.55,5.82,2.55,5.82,1.84,7.85,12.08,15.27,16.25,23.74.04.08,1.38,2.8,4.23,4.98.66.51,1.89,1.43,2.4,1.07.15-.11.62-.6-.71-4.02-1.9-4.86-4.52-8.15-4.52-8.16-.41-.52-5.29-7.28-15.06-20.8-.5-.7-1.44-2-3.03-3.39-3.8-3.31-7.99-4.21-8.03-4.14Z"/>
    <path class="f" d="M291.55,127.45c1-4.03,4.1-6.37,6.41-8.72,6.04-6.14,8.63-14.35,9.19-16.11,0,0,1.62-5.12.94-15.71-.06-.9-.21-2.59-.92-2.77-.52-.13-1.11.6-1.63,1.22-2.65,3.16-3.18,3.08-4.22,4.54-2.8,3.93-4,11.5-7.31,21.4-1.23,3.68-1.61,7.71-3.45,11.13-.53.99-2.03,3.6-1.3,6.28.17.64.6,1.76,1.07,1.74.63-.02.99-2.05,1.22-2.99Z"/>
    <g>
      <path class="e" d="M402.21,215.58c.18-.38,1.41-3.11,0-5.91-1.02-2.04-2.8-2.87-3.3-3.09-.57-.26-2.06-.9-3.88-.52-2.42.51-3.69,2.45-4.15,3.14-.37.56-1.89,3.01-1.2,6.09.18.82.73,3.27,2.89,4.37,2.34,1.2,4.88-.06,5.93-.58.79-.39,2.66-1.32,3.69-3.51Z"/>
      <path class="k" d="M394.66,212.66s-1.56-.15-3.39.16c-1.13.19-1.4.41-1.56.58-.71.81-.51,2.57.31,3.07,1.49.9,5.02-2.45,5.14-2.29.06.08-.83.91-2.34,2.3-1.42,1.31-1.67,1.52-1.66,1.89.03,1.15,2.6,2.48,3.77,1.75.47-.29.68-1.16,1.08-2.89.28-1.22.43-2.2.5-2.19.16.02-.7,4.14.5,4.7.57.27,1.57-.28,1.87-.99.08-.19.18-.57-.51-2.33-.52-1.33-.99-2.17-.94-2.2.05-.03.64.81,1.25,1.85.95,1.62,1.04,2.15,1.46,2.2.66.08,1.66-1.08,1.54-2.08-.17-1.44-2.61-2.16-2.47-2.5.14-.36,2.62.83,3.58-.12.67-.65.57-2.21-.13-2.69-.39-.27-.98-.11-2.15.2-1.39.38-2.32.83-2.34.79-.02-.05,1.13-.91,2.87-1.53.64-.23,1.05-.31,1.17-.65.17-.51-.45-1.14-.99-1.7-.66-.67-1.64-1.67-2.3-1.4-.38.16-.35.59-.77,1.79-.51,1.46-1.16,2.52-1.23,2.49-.06-.03.27-1.01.77-2.92.27-1.04.32-1.3.17-1.58-.48-.87-2.48-.92-2.82-.29-.23.42.44.86.72,2.27.19.97.08,1.85-.02,1.86-.12.01-.41-1.12-.57-2-.06-.36-.07-.5-.19-.71-.28-.49-.93-.92-1.5-.77-.28.07-.57.29-.69.57-.6,1.33,2.56,4.03,2.43,4.16-.12.12-2.5-2.67-4.03-2.11-.37.14-.76.49-.98.9-.05.1-.45.84-.14,1.29.19.27.57.31.72.33,1.83.21,3.88.78,3.88.8Z"/>
    </g>
    <g>
      <path class="i" d="M351.01,222.16c.37.2,3.04,1.55,5.9.28,2.08-.92,2.99-2.67,3.24-3.15.28-.56.99-2.01.69-3.85-.4-2.44-2.28-3.8-2.95-4.29-.55-.4-2.92-2.02-6.03-1.47-.83.15-3.3.58-4.5,2.69-1.3,2.29-.16,4.88.31,5.95.36.81,1.2,2.72,3.34,3.85Z"/>
      <path class="k" d="M354.27,214.76s.22-1.55,0-3.39c-.14-1.14-.34-1.42-.51-1.59-.77-.75-2.55-.62-3.08.17-.97,1.44,2.22,5.12,2.05,5.24-.09.06-.87-.87-2.19-2.44-1.24-1.48-1.45-1.74-1.81-1.74-1.15-.02-2.59,2.48-1.92,3.68.27.48,1.13.73,2.84,1.21,1.2.34,2.18.53,2.17.6-.02.16-4.1-.88-4.72.29-.29.56.21,1.58.91,1.91.19.09.56.21,2.35-.4,1.35-.46,2.21-.89,2.24-.84.03.05-.84.6-1.91,1.17-1.66.88-2.19.95-2.26,1.36-.11.65,1,1.71,2.01,1.63,1.45-.11,2.27-2.51,2.61-2.36.35.16-.94,2.58-.04,3.59.62.69,2.18.67,2.7-.01.28-.38.16-.97-.1-2.15-.31-1.41-.72-2.35-.68-2.37.05-.02.86,1.17,1.4,2.94.2.65.27,1.06.6,1.19.5.2,1.16-.4,1.74-.92.7-.63,1.74-1.56,1.5-2.24-.14-.38-.58-.37-1.75-.85-1.43-.58-2.46-1.27-2.43-1.34.03-.06,1,.32,2.88.9,1.02.32,1.29.38,1.57.24.89-.44,1.03-2.43.42-2.81-.41-.25-.88.4-2.3.61-.98.15-1.85,0-1.86-.1,0-.12,1.14-.36,2.03-.48.36-.05.5-.05.72-.16.5-.26.96-.89.84-1.47-.06-.28-.27-.58-.54-.72-1.3-.66-4.14,2.37-4.27,2.24-.12-.12,2.78-2.38,2.29-3.93-.12-.38-.46-.78-.86-1.02-.09-.06-.82-.49-1.28-.2-.28.18-.34.55-.36.71-.29,1.82-.95,3.84-.98,3.84Z"/>
    </g>
    <g>
      <path class="e" d="M338.77,226.73c.37.2,3.04,1.55,5.9.28,2.08-.92,2.99-2.67,3.24-3.15.28-.56.99-2.01.69-3.85-.4-2.44-2.28-3.8-2.95-4.29-.55-.4-2.92-2.02-6.03-1.47-.83.15-3.3.58-4.5,2.69-1.3,2.29-.16,4.88.31,5.95.36.81,1.2,2.72,3.34,3.85Z"/>
      <path class="k" d="M342.83,217.44c-.02,1.49-1.43,2.84-1.74,2.7-.5-.22,1.87-4.4.41-5.8-.78-.75-2.53-.62-3.08.17-.9,1.3,1.48,4.38,1.29,4.48-.09.05-.58-.65-1.43-1.69-.95-1.15-1.43-1.74-1.81-1.74-1.22-.02-2.55,3.11-1.92,3.68.39.36,1.21-.59,2.71-.39,1.25.16,2.45,1.05,2.36,1.6-.07.43-.92.68-1.45.74-.74.08-.96-.23-1.91-.23-.58,0-1.19,0-1.42.38-.31.5.15,1.56.91,1.91.19.09.56.21,2.35-.4,1.35-.46,2.21-.89,2.24-.84.03.05-.84.6-1.91,1.17-1.66.88-2.19.95-2.26,1.36-.12.72,1.2,1.88,2.01,1.63.79-.24.52-1.65,1.87-3.15.43-.48,1.21-1.18,1.49-1,.6.37-1.94,4.07-.79,5.39.66.75,2.41.58,2.7-.01.17-.35-.27-.64-.65-1.69-.43-1.19-.55-2.65-.14-2.83.24-.11.66.23.89.53.46.61.19,1.13.52,2.4.17.66.28,1.07.6,1.19.5.2,1.16-.4,1.74-.92.7-.63,1.74-1.56,1.5-2.24-.15-.42-.67-.47-1.75-.85-1.6-.56-3.33-1.16-3.31-1.72.01-.26.41-.54.79-.59.92-.12,1.29,1.14,2.97,1.87.53.23,1.09.48,1.57.24.89-.44,1.03-2.43.42-2.81-.44-.27-1.47.81-2.3.61-.09-.02-.24-.07-.23-.09,0-.02.45.16.76,0,.21-.11.23-.32.36-.65.36-.9.94-1.02.84-1.47-.06-.27-.24-.61-.54-.72-.96-.36-1.98,1.86-4.26,2.19-.22.03-.78.11-.88-.1-.28-.58,3.53-2.76,3.16-3.78-.04-.12-.31-.69-.86-1.02-.09-.06-.82-.49-1.28-.2-.2.13-.28.35-.36.71-.21.95-.17,1.69-.18,1.96Z"/>
    </g>
    <g>
      <path class="i" d="M364.79,233.97c.34-.25,2.75-2.03,2.89-5.15.11-2.27-1.05-3.87-1.37-4.31-.37-.5-1.36-1.79-3.13-2.34-2.36-.74-4.42.33-5.15.71-.6.31-3.12,1.7-4.02,4.73-.24.8-.96,3.21.39,5.23,1.46,2.19,4.29,2.33,5.46,2.39.88.04,2.97.15,4.93-1.26Z"/>
      <path class="k" d="M359.63,227.74s-1.29-.89-3.04-1.51c-1.08-.38-1.42-.33-1.65-.25-1.01.36-1.7,2-1.23,2.82.86,1.51,5.58.31,5.6.51.01.1-1.17.39-3.16.86-1.88.45-2.2.52-2.37.84-.53,1.02,1.06,3.43,2.43,3.37.55-.03,1.16-.68,2.35-1.99.84-.92,1.45-1.71,1.51-1.67.13.09-2.63,3.27-1.86,4.35.37.51,1.51.52,2.12.05.17-.13.44-.41.69-2.29.19-1.42.19-2.38.25-2.38.06,0,.16,1.02.19,2.23.04,1.88-.14,2.38.2,2.63.53.39,1.98-.13,2.36-1.07.55-1.34-1.22-3.15-.93-3.39.3-.25,1.88,2,3.19,1.64.9-.25,1.58-1.65,1.2-2.42-.21-.42-.8-.58-1.97-.87-1.4-.35-2.43-.41-2.42-.45,0-.05,1.43-.24,3.25.06.68.11,1.07.24,1.34,0,.4-.36.17-1.21-.04-1.96-.25-.9-.62-2.26-1.33-2.34-.4-.05-.59.35-1.55,1.19-1.16,1.02-2.24,1.63-2.29,1.57-.04-.05.73-.75,2.1-2.17.74-.77.92-.98.92-1.3,0-.99-1.71-2.01-2.32-1.64-.41.25-.03.97-.48,2.33-.31.94-.83,1.65-.92,1.61-.11-.05.19-1.18.48-2.02.12-.34.18-.47.18-.71,0-.57-.36-1.26-.94-1.41-.28-.07-.64-.02-.88.16-1.17.86.26,4.77.09,4.82-.16.05-.88-3.55-2.49-3.81-.39-.06-.9.06-1.3.31-.09.06-.81.52-.75,1.06.03.33.34.55.47.64,1.5,1.07,3.01,2.57,2.99,2.59Z"/>
    </g>
    <g>
      <path class="e" d="M341.07,212.97c.34-.25,2.75-2.03,2.89-5.15.11-2.27-1.05-3.87-1.37-4.31-.37-.5-1.36-1.79-3.13-2.34-2.36-.74-4.42.33-5.15.71-.6.31-3.12,1.7-4.02,4.73-.24.8-.96,3.21.39,5.23,1.46,2.19,4.29,2.33,5.46,2.39.88.04,2.97.15,4.93-1.26Z"/>
      <path class="k" d="M335.94,206.32c-.24-.05-.63-.24-1.42-2.1-.61-1.44-.62-1.88-.95-1.96-.47-.11-1,.61-1.88,1.78-.62.83-.93,1.24-.89,1.56.16,1.41,4.14,2.06,4.09,2.23-.02.1-1.18-.29-2.62-.05-.73.13-1.75.3-2.17,1.12-.5.96.21,2.12.29,2.26,1.45-.73,1.99-.92,2.04-.83.06.09-.38.5-1.76,1.51.85,1.49,1.63,1.54,1.83,1.54.27,0,.65-.12,2.35-1.99.84-.92,1.45-1.71,1.51-1.67.13.09-2.63,3.27-1.86,4.35.37.51,1.51.52,2.12.05.17-.13.44-.41.69-2.29.19-1.42.19-2.38.25-2.38.06,0,.16,1.02.19,2.23.04,1.88-.14,2.38.2,2.63.53.39,1.98-.13,2.36-1.07.56-1.37-.91-3.4-.93-3.39-.02.01.58,2.35,1.71,2.55,1.28.23,3.2-2.25,2.68-3.33-.19-.4-.79-.56-1.97-.87-1.21-.32-2.42-.48-2.42-.45,0,.03,1.65.26,3.29.31.7.02,1.06,0,1.3-.25.39-.42.18-1.17-.04-1.96-.25-.9-.62-2.26-1.33-2.34-.4-.05-.59.35-1.55,1.19-1.16,1.02-2.24,1.63-2.29,1.57-.04-.05.73-.75,2.1-2.17.65-.67.93-.91.92-1.3-.02-.66-.84-1.35-1.45-1.24-.29.05-.46.27-1.35,1.93-.6,1.11-.86,1.64-.92,1.61-.05-.02.03-.37.48-2.02.36-1.31.49-1.77.25-2-.16-.15-.44-.14-1-.12-.49.02-.73.03-.88.16-.35.3-.11,1.01.06,1.95.4,2.27.2,2.67.03,2.87-.25.29-.69.45-1.05.37Z"/>
    </g>
    <g>
      <path class="i" d="M313.58,227.06c.37.2,3.04,1.55,5.9.28,2.08-.92,2.99-2.67,3.24-3.15.28-.56.99-2.01.69-3.85-.4-2.44-2.28-3.8-2.95-4.29-.55-.4-2.92-2.02-6.03-1.47-.83.15-3.3.58-4.5,2.69-1.3,2.29-.16,4.88.31,5.95.36.81,1.2,2.72,3.34,3.85Z"/>
      <path class="k" d="M317.64,217.77c-.02,1.49-1.43,2.84-1.74,2.7-.5-.22,1.87-4.4.41-5.8-.78-.75-2.53-.62-3.08.17-.9,1.3,1.48,4.38,1.29,4.48-.09.05-.58-.65-1.43-1.69-.95-1.15-1.43-1.74-1.81-1.74-1.22-.02-2.55,3.11-1.92,3.68.39.36,1.21-.59,2.71-.39,1.25.16,2.45,1.05,2.36,1.6-.07.43-.92.68-1.45.74-.74.08-.96-.23-1.91-.23-.58,0-1.19,0-1.42.38-.31.5.15,1.56.91,1.91.19.09.56.21,2.35-.4,1.35-.46,2.21-.89,2.24-.84.03.05-.84.6-1.91,1.17-1.66.88-2.19.95-2.26,1.36-.12.72,1.2,1.88,2.01,1.63.79-.24.52-1.65,1.87-3.15.43-.48,1.21-1.18,1.49-1,.6.37-1.94,4.07-.79,5.39.66.75,2.41.58,2.7-.01.17-.35-.27-.64-.65-1.69-.43-1.19-.55-2.65-.14-2.83.24-.11.66.23.89.53.46.61.19,1.13.52,2.4.17.66.28,1.07.6,1.19.5.2,1.16-.4,1.74-.92.7-.63,1.74-1.56,1.5-2.24-.15-.42-.67-.47-1.75-.85-1.6-.56-3.33-1.16-3.31-1.72.01-.26.41-.54.79-.59.92-.12,1.29,1.14,2.97,1.87.53.23,1.09.48,1.57.24.89-.44,1.03-2.43.42-2.81-.44-.27-1.47.81-2.3.61-.09-.02-.24-.07-.23-.09,0-.02.45.16.76,0,.21-.11.23-.32.36-.65.36-.9.94-1.02.84-1.47-.06-.27-.24-.61-.54-.72-.96-.36-1.98,1.86-4.26,2.19-.22.03-.78.11-.88-.1-.28-.58,3.53-2.76,3.16-3.78-.04-.12-.31-.69-.86-1.02-.09-.06-.82-.49-1.28-.2-.2.13-.28.35-.36.71-.21.95-.17,1.69-.18,1.96Z"/>
    </g>
    <g>
      <path class="i" d="M293.35,221.06c.34-.25,2.75-2.03,2.89-5.15.11-2.27-1.05-3.87-1.37-4.31-.37-.5-1.36-1.79-3.13-2.34-2.36-.74-4.42.33-5.15.71-.6.31-3.12,1.7-4.02,4.73-.24.8-.96,3.21.39,5.23,1.46,2.19,4.29,2.33,5.46,2.39.88.04,2.97.15,4.93-1.26Z"/>
      <path class="k" d="M288.22,214.4c-.24-.05-.63-.24-1.42-2.1-.61-1.44-.62-1.88-.95-1.96-.47-.11-1,.61-1.88,1.78-.62.83-.93,1.24-.89,1.56.16,1.41,4.14,2.06,4.09,2.23-.02.1-1.18-.29-2.62-.05-.73.13-1.75.3-2.17,1.12-.5.96.21,2.12.29,2.26,1.45-.73,1.99-.92,2.04-.83.06.09-.38.5-1.76,1.51.85,1.49,1.63,1.54,1.83,1.54.27,0,.65-.12,2.35-1.99.84-.92,1.45-1.71,1.51-1.67.13.09-2.63,3.27-1.86,4.35.37.51,1.51.52,2.12.05.17-.13.44-.41.69-2.29.19-1.42.19-2.38.25-2.38.06,0,.16,1.02.19,2.23.04,1.88-.14,2.38.2,2.63.53.39,1.98-.13,2.36-1.07.56-1.37-.91-3.4-.93-3.39-.02.01.58,2.35,1.71,2.55,1.28.23,3.2-2.25,2.68-3.33-.19-.4-.79-.56-1.97-.87-1.21-.32-2.42-.48-2.42-.45,0,.03,1.65.26,3.29.31.7.02,1.06,0,1.3-.25.39-.42.18-1.17-.04-1.96-.25-.9-.62-2.26-1.33-2.34-.4-.05-.59.35-1.55,1.19-1.16,1.02-2.24,1.63-2.29,1.57-.04-.05.73-.75,2.1-2.17.65-.67.93-.91.92-1.3-.02-.66-.84-1.35-1.45-1.24-.29.05-.46.27-1.35,1.93-.6,1.11-.86,1.64-.92,1.61-.05-.02.03-.37.48-2.02.36-1.31.49-1.77.25-2-.16-.15-.44-.14-1-.12-.49.02-.73.03-.88.16-.35.3-.11,1.01.06,1.95.4,2.27.2,2.67.03,2.87-.25.29-.69.45-1.05.37Z"/>
    </g>
    <g>
      <path class="i" d="M274.27,166.76c.37.2,3.04,1.55,5.9.28,2.08-.92,2.99-2.67,3.24-3.15.28-.56.99-2.01.69-3.85-.4-2.44-2.28-3.8-2.95-4.29-.55-.4-2.92-2.02-6.03-1.47-.83.15-3.3.58-4.5,2.69-1.3,2.29-.16,4.88.31,5.95.36.81,1.2,2.72,3.34,3.85Z"/>
      <path class="k" d="M277.53,159.36s.22-1.55,0-3.39c-.14-1.14-.34-1.42-.51-1.59-.77-.75-2.55-.62-3.08.17-.97,1.44,2.22,5.12,2.05,5.24-.09.06-.87-.87-2.19-2.44-1.24-1.48-1.45-1.74-1.81-1.74-1.15-.02-2.59,2.48-1.92,3.68.27.48,1.13.73,2.84,1.21,1.2.34,2.18.53,2.17.6-.02.16-4.1-.88-4.72.29-.29.56.21,1.58.91,1.91.19.09.56.21,2.35-.4,1.35-.46,2.21-.89,2.24-.84.03.05-.84.6-1.91,1.17-1.66.88-2.19.95-2.26,1.36-.11.65,1,1.71,2.01,1.63,1.45-.11,2.27-2.51,2.61-2.36.35.16-.94,2.58-.04,3.59.62.69,2.18.67,2.7-.01.28-.38.16-.97-.1-2.15-.31-1.41-.72-2.35-.68-2.37.05-.02.86,1.17,1.4,2.94.2.65.27,1.06.6,1.19.5.2,1.16-.4,1.74-.92.7-.63,1.74-1.56,1.5-2.24-.14-.38-.58-.37-1.75-.85-1.43-.58-2.46-1.27-2.43-1.34.03-.06,1,.32,2.88.9,1.02.32,1.29.38,1.57.24.89-.44,1.03-2.43.42-2.81-.41-.25-.88.4-2.3.61-.98.15-1.85,0-1.86-.1,0-.12,1.14-.36,2.03-.48.36-.05.5-.05.72-.16.5-.26.96-.89.84-1.47-.06-.28-.27-.58-.54-.72-1.3-.66-4.14,2.37-4.27,2.24-.12-.12,2.78-2.38,2.29-3.93-.12-.38-.46-.78-.86-1.02-.09-.06-.82-.49-1.28-.2-.28.18-.34.55-.36.71-.29,1.82-.95,3.84-.98,3.84Z"/>
    </g>
    <g>
      <path class="e" d="M260,170.23c.32.17,2.61,1.3,5.05.24,1.78-.78,2.56-2.24,2.77-2.65.24-.47.84-1.69.59-3.24-.34-2.05-1.95-3.2-2.53-3.61-.47-.33-2.5-1.71-5.16-1.25-.71.12-2.82.49-3.85,2.26-1.11,1.92-.13,4.11.27,5.01.31.68,1.03,2.29,2.86,3.24Z"/>
      <path class="k" d="M263.46,162.42c-.01,1.25-1.22,2.39-1.48,2.27-.43-.18,1.59-3.7.35-4.88-.67-.63-2.17-.53-2.63.14-.77,1.09,1.27,3.68,1.11,3.78-.07.04-.49-.55-1.22-1.42-.81-.97-1.23-1.46-1.55-1.47-1.04-.02-2.18,2.61-1.64,3.1.34.3,1.03-.49,2.32-.32,1.07.14,2.1.89,2.02,1.35-.06.36-.79.57-1.24.62-.64.06-.82-.2-1.63-.19-.5,0-1.02,0-1.22.32-.27.42.13,1.31.78,1.61.16.08.48.18,2.01-.34,1.16-.39,1.89-.75,1.91-.71.02.04-.72.5-1.63.98-1.42.74-1.87.79-1.93,1.14-.1.61,1.03,1.59,1.72,1.38.68-.2.44-1.39,1.59-2.65.36-.4,1.03-.99,1.27-.84.51.31-1.66,3.43-.67,4.53.57.63,2.06.49,2.31,0,.14-.29-.23-.54-.56-1.42-.37-1-.47-2.23-.12-2.39.21-.09.56.2.76.45.4.51.16.95.45,2.02.15.56.24.9.51,1.01.43.17.99-.33,1.49-.77.6-.53,1.49-1.31,1.28-1.88-.13-.36-.58-.4-1.5-.72-1.37-.48-2.85-.98-2.83-1.45,0-.22.35-.45.68-.49.79-.1,1.11.96,2.54,1.58.46.2.93.4,1.34.2.76-.37.88-2.05.36-2.36-.37-.23-1.25.68-1.96.51-.08-.02-.2-.06-.2-.07,0-.02.39.14.65,0,.18-.09.2-.27.31-.54.31-.75.8-.85.72-1.23-.05-.23-.21-.51-.46-.6-.82-.3-1.69,1.57-3.64,1.84-.19.03-.67.09-.75-.08-.24-.49,3.01-2.32,2.7-3.18-.04-.1-.26-.58-.74-.86-.08-.05-.7-.41-1.1-.17-.17.11-.24.29-.31.59-.18.8-.15,1.42-.15,1.65Z"/>
    </g>
    <g>
      <path class="i" d="M295.41,169.3c.34-.25,2.75-2.03,2.89-5.15.11-2.27-1.05-3.87-1.37-4.31-.37-.5-1.36-1.79-3.13-2.34-2.36-.74-4.42.33-5.15.71-.6.31-3.12,1.7-4.02,4.73-.24.8-.96,3.21.39,5.23,1.46,2.19,4.29,2.33,5.46,2.39.88.04,2.97.15,4.93-1.26Z"/>
      <path class="k" d="M290.25,163.06s-1.29-.89-3.04-1.51c-1.08-.38-1.42-.33-1.65-.25-1.01.36-1.7,2-1.23,2.82.86,1.51,5.58.31,5.6.51.01.1-1.17.39-3.16.86-1.88.45-2.2.52-2.37.84-.53,1.02,1.06,3.43,2.43,3.37.55-.03,1.16-.68,2.35-1.99.84-.92,1.45-1.71,1.51-1.67.13.09-2.63,3.27-1.86,4.35.37.51,1.51.52,2.12.05.17-.13.44-.41.69-2.29.19-1.42.19-2.38.25-2.38.06,0,.16,1.02.19,2.23.04,1.88-.14,2.38.2,2.63.53.39,1.98-.13,2.36-1.07.55-1.34-1.22-3.15-.93-3.39.3-.25,1.88,2,3.19,1.64.9-.25,1.58-1.65,1.2-2.42-.21-.42-.8-.58-1.97-.87-1.4-.35-2.43-.41-2.42-.45,0-.05,1.43-.24,3.25.06.68.11,1.07.24,1.34,0,.4-.36.17-1.21-.04-1.96-.25-.9-.62-2.26-1.33-2.34-.4-.05-.59.35-1.55,1.19-1.16,1.02-2.24,1.63-2.29,1.57-.04-.05.73-.75,2.1-2.17.74-.77.92-.98.92-1.3,0-.99-1.71-2.01-2.32-1.64-.41.25-.03.97-.48,2.33-.31.94-.83,1.65-.92,1.61-.11-.05.19-1.18.48-2.02.12-.34.18-.47.18-.71,0-.57-.36-1.26-.94-1.41-.28-.07-.64-.02-.88.16-1.17.86.26,4.77.09,4.82-.16.05-.88-3.55-2.49-3.81-.39-.06-.9.06-1.3.31-.09.06-.81.52-.75,1.06.03.33.34.55.47.64,1.5,1.07,3.01,2.57,2.99,2.59Z"/>
    </g>
    <g>
      <path class="e" d="M264.33,157.57c.34-.25,2.75-2.03,2.89-5.15.11-2.27-1.05-3.87-1.37-4.31-.37-.5-1.36-1.79-3.13-2.34-2.36-.74-4.42.33-5.15.71-.6.31-3.12,1.7-4.02,4.73-.24.8-.96,3.21.39,5.23,1.46,2.19,4.29,2.33,5.46,2.39.88.04,2.97.15,4.93-1.26Z"/>
      <path class="k" d="M259.2,150.92c-.24-.05-.63-.24-1.42-2.1-.61-1.44-.62-1.88-.95-1.96-.47-.11-1,.61-1.88,1.78-.62.83-.93,1.24-.89,1.56.16,1.41,4.14,2.06,4.09,2.23-.02.1-1.18-.29-2.62-.05-.73.13-1.75.3-2.17,1.12-.5.96.21,2.12.29,2.26,1.45-.73,1.99-.92,2.04-.83.06.09-.38.5-1.76,1.51.85,1.49,1.63,1.54,1.83,1.54.27,0,.65-.12,2.35-1.99.84-.92,1.45-1.71,1.51-1.67.13.09-2.63,3.27-1.86,4.35.37.51,1.51.52,2.12.05.17-.13.44-.41.69-2.29.19-1.42.19-2.38.25-2.38.06,0,.16,1.02.19,2.23.04,1.88-.14,2.38.2,2.63.53.39,1.98-.13,2.36-1.07.56-1.37-.91-3.4-.93-3.39-.02.01.58,2.35,1.71,2.55,1.28.23,3.2-2.25,2.68-3.33-.19-.4-.79-.56-1.97-.87-1.21-.32-2.42-.48-2.42-.45,0,.03,1.65.26,3.29.31.7.02,1.06,0,1.3-.25.39-.42.18-1.17-.04-1.96-.25-.9-.62-2.26-1.33-2.34-.4-.05-.59.35-1.55,1.19-1.16,1.02-2.24,1.63-2.29,1.57-.04-.05.73-.75,2.1-2.17.65-.67.93-.91.92-1.3-.02-.66-.84-1.35-1.45-1.24-.29.05-.46.27-1.35,1.93-.6,1.11-.86,1.64-.92,1.61-.05-.02.03-.37.48-2.02.36-1.31.49-1.77.25-2-.16-.15-.44-.14-1-.12-.49.02-.73.03-.88.16-.35.3-.11,1.01.06,1.95.4,2.27.2,2.67.03,2.87-.25.29-.69.45-1.05.37Z"/>
    </g>
    <g>
      <path class="i" d="M236.84,171.66c.37.2,3.04,1.55,5.9.28,2.08-.92,2.99-2.67,3.24-3.15.28-.56.99-2.01.69-3.85-.4-2.44-2.28-3.8-2.95-4.29-.55-.4-2.92-2.02-6.03-1.47-.83.15-3.3.58-4.5,2.69-1.3,2.29-.16,4.88.31,5.95.36.81,1.2,2.72,3.34,3.85Z"/>
      <path class="k" d="M240.9,162.37c-.02,1.49-1.43,2.84-1.74,2.7-.5-.22,1.87-4.4.41-5.8-.78-.75-2.53-.62-3.08.17-.9,1.3,1.48,4.38,1.29,4.48-.09.05-.58-.65-1.43-1.69-.95-1.15-1.43-1.74-1.81-1.74-1.22-.02-2.55,3.11-1.92,3.68.39.36,1.21-.59,2.71-.39,1.25.16,2.45,1.05,2.36,1.6-.07.43-.92.68-1.45.74-.74.08-.96-.23-1.91-.23-.58,0-1.19,0-1.42.38-.31.5.15,1.56.91,1.91.19.09.56.21,2.35-.4,1.35-.46,2.21-.89,2.24-.84.03.05-.84.6-1.91,1.17-1.66.88-2.19.95-2.26,1.36-.12.72,1.2,1.88,2.01,1.63.79-.24.52-1.65,1.87-3.15.43-.48,1.21-1.18,1.49-1,.6.37-1.94,4.07-.79,5.39.66.75,2.41.58,2.7-.01.17-.35-.27-.64-.65-1.69-.43-1.19-.55-2.65-.14-2.83.24-.11.66.23.89.53.46.61.19,1.13.52,2.4.17.66.28,1.07.6,1.19.5.2,1.16-.4,1.74-.92.7-.63,1.74-1.56,1.5-2.24-.15-.42-.67-.47-1.75-.85-1.6-.56-3.33-1.16-3.31-1.72.01-.26.41-.54.79-.59.92-.12,1.29,1.14,2.97,1.87.53.23,1.09.48,1.57.24.89-.44,1.03-2.43.42-2.81-.44-.27-1.47.81-2.3.61-.09-.02-.24-.07-.23-.09,0-.02.45.16.76,0,.21-.11.23-.32.36-.65.36-.9.94-1.02.84-1.47-.06-.27-.24-.61-.54-.72-.96-.36-1.98,1.86-4.26,2.19-.22.03-.78.11-.88-.1-.28-.58,3.53-2.76,3.16-3.78-.04-.12-.31-.69-.86-1.02-.09-.06-.82-.49-1.28-.2-.2.13-.28.35-.36.71-.21.95-.17,1.69-.18,1.96Z"/>
    </g>
    <g>
      <path class="i" d="M210.82,161.37c.34-.25,2.75-2.03,2.89-5.15.11-2.27-1.05-3.87-1.37-4.31-.37-.5-1.36-1.79-3.13-2.34-2.36-.74-4.42.33-5.15.71-.6.31-3.12,1.7-4.02,4.73-.24.8-.96,3.21.39,5.23,1.46,2.19,4.29,2.33,5.46,2.39.88.04,2.97.15,4.93-1.26Z"/>
      <path class="k" d="M205.69,154.71c-.24-.05-.63-.24-1.42-2.1-.61-1.44-.62-1.88-.95-1.96-.47-.11-1,.61-1.88,1.78-.62.83-.93,1.24-.89,1.56.16,1.41,4.14,2.06,4.09,2.23-.02.1-1.18-.29-2.62-.05-.73.13-1.75.3-2.17,1.12-.5.96.21,2.12.29,2.26,1.45-.73,1.99-.92,2.04-.83.06.09-.38.5-1.76,1.51.85,1.49,1.63,1.54,1.83,1.54.27,0,.65-.12,2.35-1.99.84-.92,1.45-1.71,1.51-1.67.13.09-2.63,3.27-1.86,4.35.37.51,1.51.52,2.12.05.17-.13.44-.41.69-2.29.19-1.42.19-2.38.25-2.38.06,0,.16,1.02.19,2.23.04,1.88-.14,2.38.2,2.63.53.39,1.98-.13,2.36-1.07.56-1.37-.91-3.4-.93-3.39-.02.01.58,2.35,1.71,2.55,1.28.23,3.2-2.25,2.68-3.33-.19-.4-.79-.56-1.97-.87-1.21-.32-2.42-.48-2.42-.45,0,.03,1.65.26,3.29.31.7.02,1.06,0,1.3-.25.39-.42.18-1.17-.04-1.96-.25-.9-.62-2.26-1.33-2.34-.4-.05-.59.35-1.55,1.19-1.16,1.02-2.24,1.63-2.29,1.57-.04-.05.73-.75,2.1-2.17.65-.67.93-.91.92-1.3-.02-.66-.84-1.35-1.45-1.24-.29.05-.46.27-1.35,1.93-.6,1.11-.86,1.64-.92,1.61-.05-.02.03-.37.48-2.02.36-1.31.49-1.77.25-2-.16-.15-.44-.14-1-.12-.49.02-.73.03-.88.16-.35.3-.11,1.01.06,1.95.4,2.27.2,2.67.03,2.87-.25.29-.69.45-1.05.37Z"/>
    </g>
    <g>
      <path class="i" d="M244.71,159.14c.37.2,3.04,1.55,5.9.28,2.08-.92,2.99-2.67,3.24-3.15.28-.56.99-2.01.69-3.85-.4-2.44-2.28-3.8-2.95-4.29-.55-.4-2.92-2.02-6.03-1.47-.83.15-3.3.58-4.5,2.69-1.3,2.29-.16,4.88.31,5.95.36.81,1.2,2.72,3.34,3.85Z"/>
      <path class="k" d="M247.97,151.73s.22-1.55,0-3.39c-.14-1.14-.34-1.42-.51-1.59-.77-.75-2.55-.62-3.08.17-.97,1.44,2.22,5.12,2.05,5.24-.09.06-.87-.87-2.19-2.44-1.24-1.48-1.45-1.74-1.81-1.74-1.15-.02-2.59,2.48-1.92,3.68.27.48,1.13.73,2.84,1.21,1.2.34,2.18.53,2.17.6-.02.16-4.1-.88-4.72.29-.29.56.21,1.58.91,1.91.19.09.56.21,2.35-.4,1.35-.46,2.21-.89,2.24-.84.03.05-.84.6-1.91,1.17-1.66.88-2.19.95-2.26,1.36-.11.65,1,1.71,2.01,1.63,1.45-.11,2.27-2.51,2.61-2.36.35.16-.94,2.58-.04,3.59.62.69,2.18.67,2.7-.01.28-.38.16-.97-.1-2.15-.31-1.41-.72-2.35-.68-2.37.05-.02.86,1.17,1.4,2.94.2.65.27,1.06.6,1.19.5.2,1.16-.4,1.74-.92.7-.63,1.74-1.56,1.5-2.24-.14-.38-.58-.37-1.75-.85-1.43-.58-2.46-1.27-2.43-1.34.03-.06,1,.32,2.88.9,1.02.32,1.29.38,1.57.24.89-.44,1.03-2.43.42-2.81-.41-.25-.88.4-2.3.61-.98.15-1.85,0-1.86-.1,0-.12,1.14-.36,2.03-.48.36-.05.5-.05.72-.16.5-.26.96-.89.84-1.47-.06-.28-.27-.58-.54-.72-1.3-.66-4.14,2.37-4.27,2.24-.12-.12,2.78-2.38,2.29-3.93-.12-.38-.46-.78-.86-1.02-.09-.06-.82-.49-1.28-.2-.28.18-.34.55-.36.71-.29,1.82-.95,3.84-.98,3.84Z"/>
    </g>
    <g>
      <path class="e" d="M225.64,177.82c.37.2,3.04,1.55,5.9.28,2.08-.92,2.99-2.67,3.24-3.15.28-.56.99-2.01.69-3.85-.4-2.44-2.28-3.8-2.95-4.29-.55-.4-2.92-2.02-6.03-1.47-.83.15-3.3.58-4.5,2.69-1.3,2.29-.16,4.88.31,5.95.36.81,1.2,2.72,3.34,3.85Z"/>
      <path class="k" d="M229.7,168.54c-.02,1.49-1.43,2.84-1.74,2.7-.5-.22,1.87-4.4.41-5.8-.78-.75-2.53-.62-3.08.17-.9,1.3,1.48,4.38,1.29,4.48-.09.05-.58-.65-1.43-1.69-.95-1.15-1.43-1.74-1.81-1.74-1.22-.02-2.55,3.11-1.92,3.68.39.36,1.21-.59,2.71-.39,1.25.16,2.45,1.05,2.36,1.6-.07.43-.92.68-1.45.74-.74.08-.96-.23-1.91-.23-.58,0-1.19,0-1.42.38-.31.5.15,1.56.91,1.91.19.09.56.21,2.35-.4,1.35-.46,2.21-.89,2.24-.84.03.05-.84.6-1.91,1.17-1.66.88-2.19.95-2.26,1.36-.12.72,1.2,1.88,2.01,1.63.79-.24.52-1.65,1.87-3.15.43-.48,1.21-1.18,1.49-1,.6.37-1.94,4.07-.79,5.39.66.75,2.41.58,2.7-.01.17-.35-.27-.64-.65-1.69-.43-1.19-.55-2.65-.14-2.83.24-.11.66.23.89.53.46.61.19,1.13.52,2.4.17.66.28,1.07.6,1.19.5.2,1.16-.4,1.74-.92.7-.63,1.74-1.56,1.5-2.24-.15-.42-.67-.47-1.75-.85-1.6-.56-3.33-1.16-3.31-1.72.01-.26.41-.54.79-.59.92-.12,1.29,1.14,2.97,1.87.53.23,1.09.48,1.57.24.89-.44,1.03-2.43.42-2.81-.44-.27-1.47.81-2.3.61-.09-.02-.24-.07-.23-.09,0-.02.45.16.76,0,.21-.11.23-.32.36-.65.36-.9.94-1.02.84-1.47-.06-.27-.24-.61-.54-.72-.96-.36-1.98,1.86-4.26,2.19-.22.03-.78.11-.88-.1-.28-.58,3.53-2.76,3.16-3.78-.04-.12-.31-.69-.86-1.02-.09-.06-.82-.49-1.28-.2-.2.13-.28.35-.36.71-.21.95-.17,1.69-.18,1.96Z"/>
    </g>
    <g>
      <path class="i" d="M261.8,184.6c.34-.25,2.75-2.03,2.89-5.15.11-2.27-1.05-3.87-1.37-4.31-.37-.5-1.36-1.79-3.13-2.34-2.36-.74-4.42.33-5.15.71-.6.31-3.12,1.7-4.02,4.73-.24.8-.96,3.21.39,5.23,1.46,2.19,4.29,2.33,5.46,2.39.88.04,2.97.15,4.93-1.26Z"/>
      <path class="k" d="M256.64,178.37s-1.29-.89-3.04-1.51c-1.08-.38-1.42-.33-1.65-.25-1.01.36-1.7,2-1.23,2.82.86,1.51,5.58.31,5.6.51.01.1-1.17.39-3.16.86-1.88.45-2.2.52-2.37.84-.53,1.02,1.06,3.43,2.43,3.37.55-.03,1.16-.68,2.35-1.99.84-.92,1.45-1.71,1.51-1.67.13.09-2.63,3.27-1.86,4.35.37.51,1.51.52,2.12.05.17-.13.44-.41.69-2.29.19-1.42.19-2.38.25-2.38.06,0,.16,1.02.19,2.23.04,1.88-.14,2.38.2,2.63.53.39,1.98-.13,2.36-1.07.55-1.34-1.22-3.15-.93-3.39.3-.25,1.88,2,3.19,1.64.9-.25,1.58-1.65,1.2-2.42-.21-.42-.8-.58-1.97-.87-1.4-.35-2.43-.41-2.42-.45,0-.05,1.43-.24,3.25.06.68.11,1.07.24,1.34,0,.4-.36.17-1.21-.04-1.96-.25-.9-.62-2.26-1.33-2.34-.4-.05-.59.35-1.55,1.19-1.16,1.02-2.24,1.63-2.29,1.57-.04-.05.73-.75,2.1-2.17.74-.77.92-.98.92-1.3,0-.99-1.71-2.01-2.32-1.64-.41.25-.03.97-.48,2.33-.31.94-.83,1.65-.92,1.61-.11-.05.19-1.18.48-2.02.12-.34.18-.47.18-.71,0-.57-.36-1.26-.94-1.41-.28-.07-.64-.02-.88.16-1.17.86.26,4.77.09,4.82-.16.05-.88-3.55-2.49-3.81-.39-.06-.9.06-1.3.31-.09.06-.81.52-.75,1.06.03.33.34.55.47.64,1.5,1.07,3.01,2.57,2.99,2.59Z"/>
    </g>
    <g>
      <path class="i" d="M210.6,177.7c.37.2,3.04,1.55,5.9.28,2.08-.92,2.99-2.67,3.24-3.15.28-.56.99-2.01.69-3.85-.4-2.44-2.28-3.8-2.95-4.29-.55-.4-2.92-2.02-6.03-1.47-.83.15-3.3.58-4.5,2.69-1.3,2.29-.16,4.88.31,5.95.36.81,1.2,2.72,3.34,3.85Z"/>
      <path class="k" d="M214.66,168.41c-.02,1.49-1.43,2.84-1.74,2.7-.5-.22,1.87-4.4.41-5.8-.78-.75-2.53-.62-3.08.17-.9,1.3,1.48,4.38,1.29,4.48-.09.05-.58-.65-1.43-1.69-.95-1.15-1.43-1.74-1.81-1.74-1.22-.02-2.55,3.11-1.92,3.68.39.36,1.21-.59,2.71-.39,1.25.16,2.45,1.05,2.36,1.6-.07.43-.92.68-1.45.74-.74.08-.96-.23-1.91-.23-.58,0-1.19,0-1.42.38-.31.5.15,1.56.91,1.91.19.09.56.21,2.35-.4,1.35-.46,2.21-.89,2.24-.84.03.05-.84.6-1.91,1.17-1.66.88-2.19.95-2.26,1.36-.12.72,1.2,1.88,2.01,1.63.79-.24.52-1.65,1.87-3.15.43-.48,1.21-1.18,1.49-1,.6.37-1.94,4.07-.79,5.39.66.75,2.41.58,2.7-.01.17-.35-.27-.64-.65-1.69-.43-1.19-.55-2.65-.14-2.83.24-.11.66.23.89.53.46.61.19,1.13.52,2.4.17.66.28,1.07.6,1.19.5.2,1.16-.4,1.74-.92.7-.63,1.74-1.56,1.5-2.24-.15-.42-.67-.47-1.75-.85-1.6-.56-3.33-1.16-3.31-1.72.01-.26.41-.54.79-.59.92-.12,1.29,1.14,2.97,1.87.53.23,1.09.48,1.57.24.89-.44,1.03-2.43.42-2.81-.44-.27-1.47.81-2.3.61-.09-.02-.24-.07-.23-.09,0-.02.45.16.76,0,.21-.11.23-.32.36-.65.36-.9.94-1.02.84-1.47-.06-.27-.24-.61-.54-.72-.96-.36-1.98,1.86-4.26,2.19-.22.03-.78.11-.88-.1-.28-.58,3.53-2.76,3.16-3.78-.04-.12-.31-.69-.86-1.02-.09-.06-.82-.49-1.28-.2-.2.13-.28.35-.36.71-.21.95-.17,1.69-.18,1.96Z"/>
    </g>
    <g>
      <path class="i" d="M300.95,155.25c.28.15,2.28,1.16,4.43.21,1.56-.69,2.25-2,2.43-2.37.21-.42.74-1.51.52-2.89-.3-1.83-1.71-2.85-2.21-3.22-.41-.3-2.19-1.52-4.53-1.11-.62.11-2.48.44-3.38,2.02-.98,1.71-.12,3.66.23,4.47.27.61.9,2.04,2.51,2.89Z"/>
      <path class="k" d="M303.39,149.69s.16-1.16,0-2.55c-.11-.85-.26-1.07-.39-1.19-.58-.56-1.91-.47-2.31.12-.73,1.08,1.67,3.84,1.54,3.93-.06.04-.65-.65-1.64-1.83-.93-1.11-1.09-1.3-1.36-1.31-.87-.01-1.95,1.86-1.44,2.76.2.36.85.55,2.13.91.9.25,1.64.4,1.63.45-.02.12-3.08-.66-3.54.22-.22.42.16,1.19.68,1.44.14.07.42.16,1.77-.3,1.01-.35,1.66-.67,1.68-.63.02.04-.63.45-1.43.88-1.25.66-1.64.71-1.7,1.02-.08.49.75,1.28,1.51,1.22,1.09-.08,1.7-1.88,1.96-1.77.27.12-.71,1.94-.03,2.69.47.52,1.64.5,2.02,0,.21-.28.12-.73-.08-1.62-.24-1.05-.54-1.77-.51-1.78.03-.01.64.88,1.05,2.2.15.49.2.8.45.9.37.15.87-.3,1.3-.69.52-.47,1.31-1.17,1.12-1.68-.1-.29-.43-.28-1.32-.64-1.08-.43-1.85-.95-1.82-1,.02-.04.75.24,2.16.68.77.24.97.29,1.18.18.67-.33.78-1.82.32-2.11-.31-.19-.66.3-1.72.46-.73.11-1.39,0-1.39-.08,0-.09.85-.27,1.52-.36.27-.04.38-.04.54-.12.38-.19.72-.66.63-1.1-.05-.21-.2-.44-.4-.54-.97-.5-3.11,1.78-3.2,1.68-.09-.09,2.08-1.79,1.72-2.95-.09-.28-.34-.59-.64-.77-.07-.04-.62-.37-.96-.15-.21.13-.25.41-.27.53-.22,1.37-.71,2.88-.73,2.88Z"/>
    </g>
    <g>
      <path class="i" d="M334.97,152.2c.26-.18,2.06-1.52,2.17-3.86.08-1.71-.79-2.91-1.03-3.23-.28-.38-1.02-1.34-2.35-1.76-1.77-.55-3.31.25-3.86.53-.45.23-2.34,1.28-3.02,3.55-.18.6-.72,2.41.29,3.92,1.09,1.64,3.22,1.75,4.1,1.79.66.03,2.22.11,3.7-.95Z"/>
      <path class="k" d="M331.1,147.52s-.97-.67-2.28-1.13c-.81-.29-1.07-.25-1.24-.19-.76.27-1.28,1.5-.92,2.12.64,1.13,4.18.23,4.2.39,0,.08-.88.29-2.37.65-1.41.33-1.65.39-1.78.63-.4.77.79,2.58,1.83,2.53.41-.02.87-.51,1.76-1.5.63-.69,1.09-1.29,1.13-1.25.1.07-1.97,2.45-1.39,3.26.27.38,1.13.39,1.59.04.12-.1.33-.31.52-1.71.15-1.06.14-1.78.19-1.78.04,0,.12.77.14,1.67.03,1.41-.1,1.79.15,1.97.4.29,1.48-.1,1.77-.8.41-1.01-.92-2.37-.7-2.54.22-.18,1.41,1.5,2.39,1.23.68-.18,1.18-1.24.9-1.81-.16-.32-.6-.43-1.48-.65-1.05-.26-1.82-.31-1.82-.34,0-.04,1.08-.18,2.44.05.51.08.8.18,1,0,.3-.27.12-.91-.03-1.47-.19-.68-.46-1.69-1-1.76-.3-.04-.45.26-1.16.89-.87.77-1.68,1.22-1.71,1.18-.03-.04.55-.57,1.58-1.63.56-.58.69-.74.69-.97,0-.75-1.28-1.51-1.74-1.23-.31.19-.03.72-.36,1.75-.23.7-.62,1.24-.69,1.21-.08-.03.14-.88.36-1.52.09-.26.14-.35.13-.53,0-.43-.27-.94-.7-1.06-.21-.05-.48-.02-.66.12-.88.65.2,3.58.07,3.62-.12.04-.66-2.66-1.87-2.86-.29-.05-.68.04-.97.23-.07.04-.61.39-.56.79.03.25.26.41.35.48,1.12.81,2.26,1.93,2.25,1.95Z"/>
    </g>
    <g>
      <path class="i" d="M370.73,208.71c.28.15,2.28,1.16,4.43.21,1.56-.69,2.25-2,2.43-2.37.21-.42.74-1.51.52-2.89-.3-1.83-1.71-2.85-2.21-3.22-.41-.3-2.19-1.52-4.53-1.11-.62.11-2.48.44-3.38,2.02-.98,1.71-.12,3.66.23,4.47.27.61.9,2.04,2.51,2.89Z"/>
      <path class="k" d="M373.77,201.74c-.01,1.12-1.07,2.13-1.3,2.03-.37-.16,1.4-3.3.31-4.35-.59-.56-1.9-.47-2.31.12-.67.97,1.11,3.28.97,3.36-.07.04-.43-.49-1.07-1.27-.71-.86-1.08-1.3-1.36-1.31-.92-.01-1.91,2.33-1.44,2.76.29.27.91-.44,2.04-.29.94.12,1.84.79,1.77,1.2-.05.32-.69.51-1.09.55-.56.06-.72-.17-1.43-.17-.44,0-.9,0-1.07.28-.23.38.11,1.17.68,1.44.14.07.42.16,1.77-.3,1.01-.35,1.66-.67,1.68-.63.02.04-.63.45-1.43.88-1.25.66-1.64.71-1.7,1.02-.09.54.9,1.41,1.51,1.22.59-.18.39-1.24,1.4-2.37.32-.36.9-.88,1.12-.75.45.28-1.46,3.06-.59,4.04.5.56,1.81.43,2.02,0,.13-.26-.2-.48-.49-1.27-.32-.89-.41-1.99-.11-2.13.18-.08.5.18.67.4.35.46.14.85.39,1.8.13.5.21.8.45.9.37.15.87-.3,1.3-.69.52-.47,1.31-1.17,1.12-1.68-.11-.32-.5-.35-1.32-.64-1.2-.42-2.5-.87-2.48-1.29,0-.2.31-.4.59-.44.69-.09.97.86,2.23,1.41.4.18.82.36,1.18.18.67-.33.78-1.82.32-2.11-.33-.2-1.1.61-1.72.46-.07-.02-.18-.05-.18-.06,0-.02.34.12.57,0,.16-.08.17-.24.27-.49.27-.67.7-.76.63-1.1-.04-.2-.18-.46-.4-.54-.72-.27-1.48,1.4-3.2,1.64-.16.02-.59.08-.66-.07-.21-.44,2.65-2.07,2.37-2.84-.03-.09-.23-.52-.64-.77-.07-.04-.62-.37-.96-.15-.15.09-.21.26-.27.53-.16.71-.13,1.26-.13,1.47Z"/>
    </g>
    <g>
      <path class="i" d="M297.87,134.34c.28.15,2.28,1.16,4.43.21,1.56-.69,2.25-2,2.43-2.37.21-.42.74-1.51.52-2.89-.3-1.83-1.71-2.85-2.21-3.22-.41-.3-2.19-1.52-4.53-1.11-.62.11-2.48.44-3.38,2.02-.98,1.71-.12,3.66.23,4.47.27.61.9,2.04,2.51,2.89Z"/>
      <path class="k" d="M300.31,128.79s.16-1.16,0-2.55c-.11-.85-.26-1.07-.39-1.19-.58-.56-1.91-.47-2.31.12-.73,1.08,1.67,3.84,1.54,3.93-.06.04-.65-.65-1.64-1.83-.93-1.11-1.09-1.3-1.36-1.31-.87-.01-1.95,1.86-1.44,2.76.2.36.85.55,2.13.91.9.25,1.64.4,1.63.45-.02.12-3.08-.66-3.54.22-.22.42.16,1.19.68,1.44.14.07.42.16,1.77-.3,1.01-.35,1.66-.67,1.68-.63.02.04-.63.45-1.43.88-1.25.66-1.64.71-1.7,1.02-.08.49.75,1.28,1.51,1.22,1.09-.08,1.7-1.88,1.96-1.77.27.12-.71,1.94-.03,2.69.47.52,1.64.5,2.02,0,.21-.28.12-.73-.08-1.62-.24-1.05-.54-1.77-.51-1.78.03-.01.64.88,1.05,2.2.15.49.2.8.45.9.37.15.87-.3,1.3-.69.52-.47,1.31-1.17,1.12-1.68-.1-.29-.43-.28-1.32-.64-1.08-.43-1.85-.95-1.82-1,.02-.04.75.24,2.16.68.77.24.97.29,1.18.18.67-.33.78-1.82.32-2.11-.31-.19-.66.3-1.72.46-.73.11-1.39,0-1.39-.08,0-.09.85-.27,1.52-.36.27-.04.38-.04.54-.12.38-.19.72-.66.63-1.1-.05-.21-.2-.44-.4-.54-.97-.5-3.11,1.78-3.2,1.68-.09-.09,2.08-1.79,1.72-2.95-.09-.28-.34-.59-.64-.77-.07-.04-.62-.37-.96-.15-.21.13-.25.41-.27.53-.22,1.37-.71,2.88-.73,2.88Z"/>
    </g>
    <g>
      <path class="e" d="M328.87,230.71c.28.15,2.28,1.16,4.43.21,1.56-.69,2.25-2,2.43-2.37.21-.42.74-1.51.52-2.89-.3-1.83-1.71-2.85-2.21-3.22-.41-.3-2.19-1.52-4.53-1.11-.62.11-2.48.44-3.38,2.02-.98,1.71-.12,3.66.23,4.47.27.61.9,2.04,2.51,2.89Z"/>
      <path class="k" d="M331.91,223.74c-.01,1.12-1.07,2.13-1.3,2.03-.37-.16,1.4-3.3.31-4.35-.59-.56-1.9-.47-2.31.12-.67.97,1.11,3.28.97,3.36-.07.04-.43-.49-1.07-1.27-.71-.86-1.08-1.3-1.36-1.31-.92-.01-1.91,2.33-1.44,2.76.29.27.91-.44,2.04-.29.94.12,1.84.79,1.77,1.2-.05.32-.69.51-1.09.55-.56.06-.72-.17-1.43-.17-.44,0-.9,0-1.07.28-.23.38.11,1.17.68,1.44.14.07.42.16,1.77-.3,1.01-.35,1.66-.67,1.68-.63.02.04-.63.45-1.43.88-1.25.66-1.64.71-1.7,1.02-.09.54.9,1.41,1.51,1.22.59-.18.39-1.24,1.4-2.37.32-.36.9-.88,1.12-.75.45.28-1.46,3.06-.59,4.04.5.56,1.81.43,2.02,0,.13-.26-.2-.48-.49-1.27-.32-.89-.41-1.99-.11-2.13.18-.08.5.18.67.4.35.46.14.85.39,1.8.13.5.21.8.45.9.37.15.87-.3,1.3-.69.52-.47,1.31-1.17,1.12-1.68-.11-.32-.5-.35-1.32-.64-1.2-.42-2.5-.87-2.48-1.29,0-.2.31-.4.59-.44.69-.09.97.86,2.23,1.41.4.18.82.36,1.18.18.67-.33.78-1.82.32-2.11-.33-.2-1.1.61-1.72.46-.07-.02-.18-.05-.18-.06,0-.02.34.12.57,0,.16-.08.17-.24.27-.49.27-.67.7-.76.63-1.1-.04-.2-.18-.46-.4-.54-.72-.27-1.48,1.4-3.2,1.64-.16.02-.59.08-.66-.07-.21-.44,2.65-2.07,2.37-2.84-.03-.09-.23-.52-.64-.77-.07-.04-.62-.37-.96-.15-.15.09-.21.26-.27.53-.16.71-.13,1.26-.13,1.47Z"/>
    </g>
    <g>
      <path class="i" d="M239.5,243.67c.37.2,3.04,1.55,5.9.28,2.08-.92,2.99-2.67,3.24-3.15.28-.56.99-2.01.69-3.85-.4-2.44-2.28-3.8-2.95-4.29-.55-.4-2.92-2.02-6.03-1.47-.83.15-3.3.58-4.5,2.69-1.3,2.29-.16,4.88.31,5.95.36.81,1.2,2.72,3.34,3.85Z"/>
      <path class="k" d="M242.76,236.27s.22-1.55,0-3.39c-.14-1.14-.34-1.42-.51-1.59-.77-.75-2.55-.62-3.08.17-.97,1.44,2.22,5.12,2.05,5.24-.09.06-.87-.87-2.19-2.44-1.24-1.48-1.45-1.74-1.81-1.74-1.15-.02-2.59,2.48-1.92,3.68.27.48,1.13.73,2.84,1.21,1.2.34,2.18.53,2.17.6-.02.16-4.1-.88-4.72.29-.29.56.21,1.58.91,1.91.19.09.56.21,2.35-.4,1.35-.46,2.21-.89,2.24-.84.03.05-.84.6-1.91,1.17-1.66.88-2.19.95-2.26,1.36-.11.65,1,1.71,2.01,1.63,1.45-.11,2.27-2.51,2.61-2.36.35.16-.94,2.58-.04,3.59.62.69,2.18.67,2.7-.01.28-.38.16-.97-.1-2.15-.31-1.41-.72-2.35-.68-2.37.05-.02.86,1.17,1.4,2.94.2.65.27,1.06.6,1.19.5.2,1.16-.4,1.74-.92.7-.63,1.74-1.56,1.5-2.24-.14-.38-.58-.37-1.75-.85-1.43-.58-2.46-1.27-2.43-1.34.03-.06,1,.32,2.88.9,1.02.32,1.29.38,1.57.24.89-.44,1.03-2.43.42-2.81-.41-.25-.88.4-2.3.61-.98.15-1.85,0-1.86-.1,0-.12,1.14-.36,2.03-.48.36-.05.5-.05.72-.16.5-.26.96-.89.84-1.47-.06-.28-.27-.58-.54-.72-1.3-.66-4.14,2.37-4.27,2.24-.12-.12,2.78-2.38,2.29-3.93-.12-.38-.46-.78-.86-1.02-.09-.06-.82-.49-1.28-.2-.28.18-.34.55-.36.71-.29,1.82-.95,3.84-.98,3.84Z"/>
    </g>
    <g>
      <path class="i" d="M260.63,246.2c.34-.25,2.75-2.03,2.89-5.15.11-2.27-1.05-3.87-1.37-4.31-.37-.5-1.36-1.79-3.13-2.34-2.36-.74-4.42.33-5.15.71-.6.31-3.12,1.7-4.02,4.73-.24.8-.96,3.21.39,5.23,1.46,2.19,4.29,2.33,5.46,2.39.88.04,2.97.15,4.93-1.26Z"/>
      <path class="k" d="M255.47,239.97s-1.29-.89-3.04-1.51c-1.08-.38-1.42-.33-1.65-.25-1.01.36-1.7,2-1.23,2.82.86,1.51,5.58.31,5.6.51.01.1-1.17.39-3.16.86-1.88.45-2.2.52-2.37.84-.53,1.02,1.06,3.43,2.43,3.37.55-.03,1.16-.68,2.35-1.99.84-.92,1.45-1.71,1.51-1.67.13.09-2.63,3.27-1.86,4.35.37.51,1.51.52,2.12.05.17-.13.44-.41.69-2.29.19-1.42.19-2.38.25-2.38.06,0,.16,1.02.19,2.23.04,1.88-.14,2.38.2,2.63.53.39,1.98-.13,2.36-1.07.55-1.34-1.22-3.15-.93-3.39.3-.25,1.88,2,3.19,1.64.9-.25,1.58-1.65,1.2-2.42-.21-.42-.8-.58-1.97-.87-1.4-.35-2.43-.41-2.42-.45,0-.05,1.43-.24,3.25.06.68.11,1.07.24,1.34,0,.4-.36.17-1.21-.04-1.96-.25-.9-.62-2.26-1.33-2.34-.4-.05-.59.35-1.55,1.19-1.16,1.02-2.24,1.63-2.29,1.57-.04-.05.73-.75,2.1-2.17.74-.77.92-.98.92-1.3,0-.99-1.71-2.01-2.32-1.64-.41.25-.03.97-.48,2.33-.31.94-.83,1.65-.92,1.61-.11-.05.19-1.18.48-2.02.12-.34.18-.47.18-.71,0-.57-.36-1.26-.94-1.41-.28-.07-.64-.02-.88.16-1.17.86.26,4.77.09,4.82-.16.05-.88-3.55-2.49-3.81-.39-.06-.9.06-1.3.31-.09.06-.81.52-.75,1.06.03.33.34.55.47.64,1.5,1.07,3.01,2.57,2.99,2.59Z"/>
    </g>
    <g>
      <path class="e" d="M229.56,234.48c.34-.25,2.75-2.03,2.89-5.15.11-2.27-1.05-3.87-1.37-4.31-.37-.5-1.36-1.79-3.13-2.34-2.36-.74-4.42.33-5.15.71-.6.31-3.12,1.7-4.02,4.73-.24.8-.96,3.21.39,5.23,1.46,2.19,4.29,2.33,5.46,2.39.88.04,2.97.15,4.93-1.26Z"/>
      <path class="k" d="M224.43,227.83c-.24-.05-.63-.24-1.42-2.1-.61-1.44-.62-1.88-.95-1.96-.47-.11-1,.61-1.88,1.78-.62.83-.93,1.24-.89,1.56.16,1.41,4.14,2.06,4.09,2.23-.02.1-1.18-.29-2.62-.05-.73.13-1.75.3-2.17,1.12-.5.96.21,2.12.29,2.26,1.45-.73,1.99-.92,2.04-.83.06.09-.38.5-1.76,1.51.85,1.49,1.63,1.54,1.83,1.54.27,0,.65-.12,2.35-1.99.84-.92,1.45-1.71,1.51-1.67.13.09-2.63,3.27-1.86,4.35.37.51,1.51.52,2.12.05.17-.13.44-.41.69-2.29.19-1.42.19-2.38.25-2.38.06,0,.16,1.02.19,2.23.04,1.88-.14,2.38.2,2.63.53.39,1.98-.13,2.36-1.07.56-1.37-.91-3.4-.93-3.39-.02.01.58,2.35,1.71,2.55,1.28.23,3.2-2.25,2.68-3.33-.19-.4-.79-.56-1.97-.87-1.21-.32-2.42-.48-2.42-.45,0,.03,1.65.26,3.29.31.7.02,1.06,0,1.3-.25.39-.42.18-1.17-.04-1.96-.25-.9-.62-2.26-1.33-2.34-.4-.05-.59.35-1.55,1.19-1.16,1.02-2.24,1.63-2.29,1.57-.04-.05.73-.75,2.1-2.17.65-.67.93-.91.92-1.3-.02-.66-.84-1.35-1.45-1.24-.29.05-.46.27-1.35,1.93-.6,1.11-.86,1.64-.92,1.61-.05-.02.03-.37.48-2.02.36-1.31.49-1.77.25-2-.16-.15-.44-.14-1-.12-.49.02-.73.03-.88.16-.35.3-.11,1.01.06,1.95.4,2.27.2,2.67.03,2.87-.25.29-.69.45-1.05.37Z"/>
    </g>
    <g>
      <path class="i" d="M202.07,248.57c.37.2,3.04,1.55,5.9.28,2.08-.92,2.99-2.67,3.24-3.15.28-.56.99-2.01.69-3.85-.4-2.44-2.28-3.8-2.95-4.29-.55-.4-2.92-2.02-6.03-1.47-.83.15-3.3.58-4.5,2.69-1.3,2.29-.16,4.88.31,5.95.36.81,1.2,2.72,3.34,3.85Z"/>
      <path class="k" d="M206.13,239.28c-.02,1.49-1.43,2.84-1.74,2.7-.5-.22,1.87-4.4.41-5.8-.78-.75-2.53-.62-3.08.17-.9,1.3,1.48,4.38,1.29,4.48-.09.05-.58-.65-1.43-1.69-.95-1.15-1.43-1.74-1.81-1.74-1.22-.02-2.55,3.11-1.92,3.68.39.36,1.21-.59,2.71-.39,1.25.16,2.45,1.05,2.36,1.6-.07.43-.92.68-1.45.74-.74.08-.96-.23-1.91-.23-.58,0-1.19,0-1.42.38-.31.5.15,1.56.91,1.91.19.09.56.21,2.35-.4,1.35-.46,2.21-.89,2.24-.84.03.05-.84.6-1.91,1.17-1.66.88-2.19.95-2.26,1.36-.12.72,1.2,1.88,2.01,1.63.79-.24.52-1.65,1.87-3.15.43-.48,1.21-1.18,1.49-1,.6.37-1.94,4.07-.79,5.39.66.75,2.41.58,2.7-.01.17-.35-.27-.64-.65-1.69-.43-1.19-.55-2.65-.14-2.83.24-.11.66.23.89.53.46.61.19,1.13.52,2.4.17.66.28,1.07.6,1.19.5.2,1.16-.4,1.74-.92.7-.63,1.74-1.56,1.5-2.24-.15-.42-.67-.47-1.75-.85-1.6-.56-3.33-1.16-3.31-1.72.01-.26.41-.54.79-.59.92-.12,1.29,1.14,2.97,1.87.53.23,1.09.48,1.57.24.89-.44,1.03-2.43.42-2.81-.44-.27-1.47.81-2.3.61-.09-.02-.24-.07-.23-.09,0-.02.45.16.76,0,.21-.11.23-.32.36-.65.36-.9.94-1.02.84-1.47-.06-.27-.24-.61-.54-.72-.96-.36-1.98,1.86-4.26,2.19-.22.03-.78.11-.88-.1-.28-.58,3.53-2.76,3.16-3.78-.04-.12-.31-.69-.86-1.02-.09-.06-.82-.49-1.28-.2-.2.13-.28.35-.36.71-.21.95-.17,1.69-.18,1.96Z"/>
    </g>
    <g>
      <path class="i" d="M176.05,238.27c.34-.25,2.75-2.03,2.89-5.15.11-2.27-1.05-3.87-1.37-4.31-.37-.5-1.36-1.79-3.13-2.34-2.36-.74-4.42.33-5.15.71-.6.31-3.12,1.7-4.02,4.73-.24.8-.96,3.21.39,5.23,1.46,2.19,4.29,2.33,5.46,2.39.88.04,2.97.15,4.93-1.26Z"/>
      <path class="k" d="M170.92,231.62c-.24-.05-.63-.24-1.42-2.1-.61-1.44-.62-1.88-.95-1.96-.47-.11-1,.61-1.88,1.78-.62.83-.93,1.24-.89,1.56.16,1.41,4.14,2.06,4.09,2.23-.02.1-1.18-.29-2.62-.05-.73.13-1.75.3-2.17,1.12-.5.96.21,2.12.29,2.26,1.45-.73,1.99-.92,2.04-.83.06.09-.38.5-1.76,1.51.85,1.49,1.63,1.54,1.83,1.54.27,0,.65-.12,2.35-1.99.84-.92,1.45-1.71,1.51-1.67.13.09-2.63,3.27-1.86,4.35.37.51,1.51.52,2.12.05.17-.13.44-.41.69-2.29.19-1.42.19-2.38.25-2.38.06,0,.16,1.02.19,2.23.04,1.88-.14,2.38.2,2.63.53.39,1.98-.13,2.36-1.07.56-1.37-.91-3.4-.93-3.39-.02.01.58,2.35,1.71,2.55,1.28.23,3.2-2.25,2.68-3.33-.19-.4-.79-.56-1.97-.87-1.21-.32-2.42-.48-2.42-.45,0,.03,1.65.26,3.29.31.7.02,1.06,0,1.3-.25.39-.42.18-1.17-.04-1.96-.25-.9-.62-2.26-1.33-2.34-.4-.05-.59.35-1.55,1.19-1.16,1.02-2.24,1.63-2.29,1.57-.04-.05.73-.75,2.1-2.17.65-.67.93-.91.92-1.3-.02-.66-.84-1.35-1.45-1.24-.29.05-.46.27-1.35,1.93-.6,1.11-.86,1.64-.92,1.61-.05-.02.03-.37.48-2.02.36-1.31.49-1.77.25-2-.16-.15-.44-.14-1-.12-.49.02-.73.03-.88.16-.35.3-.11,1.01.06,1.95.4,2.27.2,2.67.03,2.87-.25.29-.69.45-1.05.37Z"/>
    </g>
    <g>
      <path class="e" d="M190.87,254.73c.37.2,3.04,1.55,5.9.28,2.08-.92,2.99-2.67,3.24-3.15.28-.56.99-2.01.69-3.85-.4-2.44-2.28-3.8-2.95-4.29-.55-.4-2.92-2.02-6.03-1.47-.83.15-3.3.58-4.5,2.69-1.3,2.29-.16,4.88.31,5.95.36.81,1.2,2.72,3.34,3.85Z"/>
      <path class="k" d="M194.93,245.44c-.02,1.49-1.43,2.84-1.74,2.7-.5-.22,1.87-4.4.41-5.8-.78-.75-2.53-.62-3.08.17-.9,1.3,1.48,4.38,1.29,4.48-.09.05-.58-.65-1.43-1.69-.95-1.15-1.43-1.74-1.81-1.74-1.22-.02-2.55,3.11-1.92,3.68.39.36,1.21-.59,2.71-.39,1.25.16,2.45,1.05,2.36,1.6-.07.43-.92.68-1.45.74-.74.08-.96-.23-1.91-.23-.58,0-1.19,0-1.42.38-.31.5.15,1.56.91,1.91.19.09.56.21,2.35-.4,1.35-.46,2.21-.89,2.24-.84.03.05-.84.6-1.91,1.17-1.66.88-2.19.95-2.26,1.36-.12.72,1.2,1.88,2.01,1.63.79-.24.52-1.65,1.87-3.15.43-.48,1.21-1.18,1.49-1,.6.37-1.94,4.07-.79,5.39.66.75,2.41.58,2.7-.01.17-.35-.27-.64-.65-1.69-.43-1.19-.55-2.65-.14-2.83.24-.11.66.23.89.53.46.61.19,1.13.52,2.4.17.66.28,1.07.6,1.19.5.2,1.16-.4,1.74-.92.7-.63,1.74-1.56,1.5-2.24-.15-.42-.67-.47-1.75-.85-1.6-.56-3.33-1.16-3.31-1.72.01-.26.41-.54.79-.59.92-.12,1.29,1.14,2.97,1.87.53.23,1.09.48,1.57.24.89-.44,1.03-2.43.42-2.81-.44-.27-1.47.81-2.3.61-.09-.02-.24-.07-.23-.09,0-.02.45.16.76,0,.21-.11.23-.32.36-.65.36-.9.94-1.02.84-1.47-.06-.27-.24-.61-.54-.72-.96-.36-1.98,1.86-4.26,2.19-.22.03-.78.11-.88-.1-.28-.58,3.53-2.76,3.16-3.78-.04-.12-.31-.69-.86-1.02-.09-.06-.82-.49-1.28-.2-.2.13-.28.35-.36.71-.21.95-.17,1.69-.18,1.96Z"/>
    </g>
    <g>
      <path class="i" d="M227.03,261.51c.34-.25,2.75-2.03,2.89-5.15.11-2.27-1.05-3.87-1.37-4.31-.37-.5-1.36-1.79-3.13-2.34-2.36-.74-4.42.33-5.15.71-.6.31-3.12,1.7-4.02,4.73-.24.8-.96,3.21.39,5.23,1.46,2.19,4.29,2.33,5.46,2.39.88.04,2.97.15,4.93-1.26Z"/>
      <path class="k" d="M221.87,255.28s-1.29-.89-3.04-1.51c-1.08-.38-1.42-.33-1.65-.25-1.01.36-1.7,2-1.23,2.82.86,1.51,5.58.31,5.6.51.01.1-1.17.39-3.16.86-1.88.45-2.2.52-2.37.84-.53,1.02,1.06,3.43,2.43,3.37.55-.03,1.16-.68,2.35-1.99.84-.92,1.45-1.71,1.51-1.67.13.09-2.63,3.27-1.86,4.35.37.51,1.51.52,2.12.05.17-.13.44-.41.69-2.29.19-1.42.19-2.38.25-2.38.06,0,.16,1.02.19,2.23.04,1.88-.14,2.38.2,2.63.53.39,1.98-.13,2.36-1.07.55-1.34-1.22-3.15-.93-3.39.3-.25,1.88,2,3.19,1.64.9-.25,1.58-1.65,1.2-2.42-.21-.42-.8-.58-1.97-.87-1.4-.35-2.43-.41-2.42-.45,0-.05,1.43-.24,3.25.06.68.11,1.07.24,1.34,0,.4-.36.17-1.21-.04-1.96-.25-.9-.62-2.26-1.33-2.34-.4-.05-.59.35-1.55,1.19-1.16,1.02-2.24,1.63-2.29,1.57-.04-.05.73-.75,2.1-2.17.74-.77.92-.98.92-1.3,0-.99-1.71-2.01-2.32-1.64-.41.25-.03.97-.48,2.33-.31.94-.83,1.65-.92,1.61-.11-.05.19-1.18.48-2.02.12-.34.18-.47.18-.71,0-.57-.36-1.26-.94-1.41-.28-.07-.64-.02-.88.16-1.17.86.26,4.77.09,4.82-.16.05-.88-3.55-2.49-3.81-.39-.06-.9.06-1.3.31-.09.06-.81.52-.75,1.06.03.33.34.55.47.64,1.5,1.07,3.01,2.57,2.99,2.59Z"/>
    </g>
    <g>
      <path class="i" d="M175.82,254.6c.37.2,3.04,1.55,5.9.28,2.08-.92,2.99-2.67,3.24-3.15.28-.56.99-2.01.69-3.85-.4-2.44-2.28-3.8-2.95-4.29-.55-.4-2.92-2.02-6.03-1.47-.83.15-3.3.58-4.5,2.69-1.3,2.29-.16,4.88.31,5.95.36.81,1.2,2.72,3.34,3.85Z"/>
      <path class="k" d="M179.88,245.32c-.02,1.49-1.43,2.84-1.74,2.7-.5-.22,1.87-4.4.41-5.8-.78-.75-2.53-.62-3.08.17-.9,1.3,1.48,4.38,1.29,4.48-.09.05-.58-.65-1.43-1.69-.95-1.15-1.43-1.74-1.81-1.74-1.22-.02-2.55,3.11-1.92,3.68.39.36,1.21-.59,2.71-.39,1.25.16,2.45,1.05,2.36,1.6-.07.43-.92.68-1.45.74-.74.08-.96-.23-1.91-.23-.58,0-1.19,0-1.42.38-.31.5.15,1.56.91,1.91.19.09.56.21,2.35-.4,1.35-.46,2.21-.89,2.24-.84.03.05-.84.6-1.91,1.17-1.66.88-2.19.95-2.26,1.36-.12.72,1.2,1.88,2.01,1.63.79-.24.52-1.65,1.87-3.15.43-.48,1.21-1.18,1.49-1,.6.37-1.94,4.07-.79,5.39.66.75,2.41.58,2.7-.01.17-.35-.27-.64-.65-1.69-.43-1.19-.55-2.65-.14-2.83.24-.11.66.23.89.53.46.61.19,1.13.52,2.4.17.66.28,1.07.6,1.19.5.2,1.16-.4,1.74-.92.7-.63,1.74-1.56,1.5-2.24-.15-.42-.67-.47-1.75-.85-1.6-.56-3.33-1.16-3.31-1.72.01-.26.41-.54.79-.59.92-.12,1.29,1.14,2.97,1.87.53.23,1.09.48,1.57.24.89-.44,1.03-2.43.42-2.81-.44-.27-1.47.81-2.3.61-.09-.02-.24-.07-.23-.09,0-.02.45.16.76,0,.21-.11.23-.32.36-.65.36-.9.94-1.02.84-1.47-.06-.27-.24-.61-.54-.72-.96-.36-1.98,1.86-4.26,2.19-.22.03-.78.11-.88-.1-.28-.58,3.53-2.76,3.16-3.78-.04-.12-.31-.69-.86-1.02-.09-.06-.82-.49-1.28-.2-.2.13-.28.35-.36.71-.21.95-.17,1.69-.18,1.96Z"/>
    </g>
    <g>
      <path class="i" d="M266.17,232.15c.28.15,2.28,1.16,4.43.21,1.56-.69,2.25-2,2.43-2.37.21-.42.74-1.51.52-2.89-.3-1.83-1.71-2.85-2.21-3.22-.41-.3-2.19-1.52-4.53-1.11-.62.11-2.48.44-3.38,2.02-.98,1.71-.12,3.66.23,4.47.27.61.9,2.04,2.51,2.89Z"/>
      <path class="k" d="M268.62,226.6s.16-1.16,0-2.55c-.11-.85-.26-1.07-.39-1.19-.58-.56-1.91-.47-2.31.12-.73,1.08,1.67,3.84,1.54,3.93-.06.04-.65-.65-1.64-1.83-.93-1.11-1.09-1.3-1.36-1.31-.87-.01-1.95,1.86-1.44,2.76.2.36.85.55,2.13.91.9.25,1.64.4,1.63.45-.02.12-3.08-.66-3.54.22-.22.42.16,1.19.68,1.44.14.07.42.16,1.77-.3,1.01-.35,1.66-.67,1.68-.63.02.04-.63.45-1.43.88-1.25.66-1.64.71-1.7,1.02-.08.49.75,1.28,1.51,1.22,1.09-.08,1.7-1.88,1.96-1.77.27.12-.71,1.94-.03,2.69.47.52,1.64.5,2.02,0,.21-.28.12-.73-.08-1.62-.24-1.05-.54-1.77-.51-1.78.03-.01.64.88,1.05,2.2.15.49.2.8.45.9.37.15.87-.3,1.3-.69.52-.47,1.31-1.17,1.12-1.68-.1-.29-.43-.28-1.32-.64-1.08-.43-1.85-.95-1.82-1,.02-.04.75.24,2.16.68.77.24.97.29,1.18.18.67-.33.78-1.82.32-2.11-.31-.19-.66.3-1.72.46-.73.11-1.39,0-1.39-.08,0-.09.85-.27,1.52-.36.27-.04.38-.04.54-.12.38-.19.72-.66.63-1.1-.05-.21-.2-.44-.4-.54-.97-.5-3.11,1.78-3.2,1.68-.09-.09,2.08-1.79,1.72-2.95-.09-.28-.34-.59-.64-.77-.07-.04-.62-.37-.96-.15-.21.13-.25.41-.27.53-.22,1.37-.71,2.88-.73,2.88Z"/>
    </g>
    <g>
      <path class="i" d="M263.09,211.25c.28.15,2.28,1.16,4.43.21,1.56-.69,2.25-2,2.43-2.37.21-.42.74-1.51.52-2.89-.3-1.83-1.71-2.85-2.21-3.22-.41-.3-2.19-1.52-4.53-1.11-.62.11-2.48.44-3.38,2.02-.98,1.71-.12,3.66.23,4.47.27.61.9,2.04,2.51,2.89Z"/>
      <path class="k" d="M265.54,205.69s.16-1.16,0-2.55c-.11-.85-.26-1.07-.39-1.19-.58-.56-1.91-.47-2.31.12-.73,1.08,1.67,3.84,1.54,3.93-.06.04-.65-.65-1.64-1.83-.93-1.11-1.09-1.3-1.36-1.31-.87-.01-1.95,1.86-1.44,2.76.2.36.85.55,2.13.91.9.25,1.64.4,1.63.45-.02.12-3.08-.66-3.54.22-.22.42.16,1.19.68,1.44.14.07.42.16,1.77-.3,1.01-.35,1.66-.67,1.68-.63.02.04-.63.45-1.43.88-1.25.66-1.64.71-1.7,1.02-.08.49.75,1.28,1.51,1.22,1.09-.08,1.7-1.88,1.96-1.77.27.12-.71,1.94-.03,2.69.47.52,1.64.5,2.02,0,.21-.28.12-.73-.08-1.62-.24-1.05-.54-1.77-.51-1.78.03-.01.64.88,1.05,2.2.15.49.2.8.45.9.37.15.87-.3,1.3-.69.52-.47,1.31-1.17,1.12-1.68-.1-.29-.43-.28-1.32-.64-1.08-.43-1.85-.95-1.82-1,.02-.04.75.24,2.16.68.77.24.97.29,1.18.18.67-.33.78-1.82.32-2.11-.31-.19-.66.3-1.72.46-.73.11-1.39,0-1.39-.08,0-.09.85-.27,1.52-.36.27-.04.38-.04.54-.12.38-.19.72-.66.63-1.1-.05-.21-.2-.44-.4-.54-.97-.5-3.11,1.78-3.2,1.68-.09-.09,2.08-1.79,1.72-2.95-.09-.28-.34-.59-.64-.77-.07-.04-.62-.37-.96-.15-.21.13-.25.41-.27.53-.22,1.37-.71,2.88-.73,2.88Z"/>
    </g>
  </g>
</svg>