<?xml version="1.0" encoding="UTF-8"?>
<svg xmlns="http://www.w3.org/2000/svg" viewBox="0 0 1781.86 1348.38">
  <defs>
    <style>
      .y {
        fill: #dcc17d;
      }

      .z {
        fill: #676b55;
      }

      .aa {
        fill: #62130e;
      }

      .ab {
        fill: #4b5d7d;
      }

      .ac {
        fill: #b9932e;
      }

      .ad {
        fill: #372e27;
      }

      .ae {
        fill: #d37228;
      }

      .af {
        fill: #6b6d64;
      }

      .ag {
        fill: #043932;
      }

      .ah {
        fill: #b63f26;
      }

      .ai {
        fill: #a2762f;
      }

      .aj {
        fill: #e39d47;
      }

      .ak {
        fill: #4b568f;
      }

      .al {
        fill: #fff;
      }

      .am {
        fill: #6b687d;
      }

      .an {
        fill: #0b1115;
      }

      .ao {
        fill: #595a93;
      }

      .ap {
        fill: #fdbb5a;
      }

      .aq {
        fill: #442610;
      }

      .ar {
        fill: #40170e;
      }

      .as {
        fill: #9f7346;
      }

      .at {
        fill: #742815;
      }

      .au {
        fill: #483622;
      }

      .av {
        fill: #80684f;
      }

      .aw {
        fill: #5f6b4b;
      }

      .ax, .ay {
        fill: none;
      }

      .az {
        fill: #ddd;
      }

      .ba {
        fill: #ab7d2e;
      }

      .bb {
        fill: #111110;
      }

      .bc {
        fill: #45454a;
      }

      .bd {
        fill: #bc9757;
      }

      .be {
        fill: #484219;
      }

      .bf {
        fill: #d65627;
      }

      .bg {
        fill: #35130f;
      }

      .bh {
        fill: #e0deb8;
      }

      .bi {
        fill: #388786;
      }

      .bj {
        fill: #d27328;
      }

      .bk {
        fill: #d0def2;
      }

      .bl {
        fill: #141817;
      }

      .bm {
        fill: #765738;
      }

      .bn {
        fill: #fffffa;
      }

      .bo {
        fill: #054651;
      }

      .bp {
        fill: #7d491e;
      }

      .bq {
        fill: #464854;
      }

      .br {
        fill: #c5994e;
      }

      .bs {
        fill: #95712a;
      }

      .bt {
        fill: #034651;
      }

      .ay {
        stroke: #ddd;
        stroke-linecap: round;
        stroke-miterlimit: 10;
        stroke-width: 31px;
      }

      .bu {
        fill: #a57e2d;
      }

      .bv {
        fill: #b87132;
      }

      .bw {
        fill: #fdbd55;
      }

      .bx {
        fill: #c19145;
      }

      .by {
        fill: #f6c75f;
      }

      .bz {
        fill: #4b4661;
      }

      .ca {
        fill: #917a49;
      }

      .cb {
        fill: #163744;
      }

      .cc {
        fill: #6e5181;
      }

      .cd {
        fill: #378272;
      }

      .ce {
        fill: #0d2d3b;
      }

      .cf {
        fill: #b78643;
      }

      .cg {
        fill: #45737b;
      }

      .ch {
        fill: #448f8f;
      }

      .ci {
        fill: #262416;
      }

      .cj {
        fill: #d85727;
      }

      .ck {
        fill: #2e2d28;
      }

      .cl {
        fill: #b1ae34;
      }

      .cm {
        fill: #0f2c38;
      }

      .cn {
        fill: #a0a078;
      }

      .co {
        fill: #22222e;
      }

      .cp {
        fill: #af782b;
      }

      .cq {
        fill: #e0b625;
      }

      .cr {
        fill: #b7763b;
      }

      .cs {
        fill: #666e63;
      }

      .ct {
        fill: #e9b63f;
      }

      .cu {
        fill: #253022;
      }

      .cv {
        fill: #1b1c26;
      }

      .cw {
        fill: #31525b;
      }

      .cx {
        fill: #1c6067;
      }

      .cy {
        fill: #2a7e9a;
      }

      .cz {
        fill: #d69739;
      }

      .da {
        fill: #e4cc9c;
      }

      .db {
        fill: #585834;
      }

      .dc {
        fill: #574f80;
      }

      .dd {
        fill: #4e4a51;
      }

      .de {
        fill: #343440;
      }

      .df {
        fill: #4c1c12;
      }

      .dg {
        fill: #e6b572;
      }

      .dh {
        fill: #4a8c86;
      }

      .di {
        fill: #dbe190;
      }

      .dj {
        fill: #0a3844;
      }

      .dk {
        fill: #ccc576;
      }

      .dl {
        fill: #4175a9;
      }

      .dm {
        fill: #307c6c;
      }
    </style>
  </defs>
  <g id="a" data-name="Layer 5">
    <g id="b" data-name="Layer 4 copy 2">
      <g>
        <path class="ay" d="M1024.02,152.73c1.3.32,2.61.64,3.91.97,89.9,22.68,168.36,67.5,231.02,127.19"/>
        <path class="ay" d="M1298.71,323.24c25.93,30.91,48.19,64.73,66.31,100.69"/>
        <path class="ay" d="M1387.9,476.28c10.92,29.24,19.24,59.56,24.76,90.6"/>
        <path class="ay" d="M1419.1,617.41c3.81,49.18.62,99.66-10.34,150.14"/>
        <path class="ay" d="M474.62,360.01c108.12-154.78,295.56-242.15,489.05-218.33"/>
      </g>
      <g>
        <path class="ay" d="M788.69,1121.27c-1.3-.32-2.61-.64-3.91-.97-89.9-22.68-168.36-67.5-231.02-127.19"/>
        <path class="ay" d="M514,950.76c-25.93-30.91-48.19-64.73-66.31-100.69"/>
        <path class="ay" d="M424.81,797.73c-10.92-29.24-19.24-59.56-24.76-90.6"/>
        <path class="ay" d="M393.61,656.6c-3.81-49.18-.62-99.66,10.34-150.14"/>
        <path class="ay" d="M1338.09,914c-108.12,154.78-295.56,242.15-489.05,218.33"/>
      </g>
    </g>
    <g id="c" data-name="Layer 8">
      <path class="az" d="M912.82,147.55c-13.77,67.83-13.54,137.89-5.17,206.42,15.57,123.23,61.36,242.8,130.92,345.84,52.33,78.08,118.73,146.82,196.28,199.94,24.3,16.59,49.7,31.64,76.43,44.02,0,0-66.24,82.8-66.24,82.8-13.4-16.89-26.86-33.32-40.08-49.75-70.92-88.26-136.28-180.94-190.26-280.14-40.14-72.92-74.31-149.37-102.47-227.7-9.32-26.04-18.32-52.92-26.41-79.39-18.18-58.99-33.21-118.68-46.45-179.09-4.6-20.53-8.79-41.11-13.49-61.73,0,0,86.94-1.23,86.94-1.23h0Z"/>
    </g>
    <g id="d" data-name="Layer 8 copy 14">
      <path class="az" d="M956.55,140.48c-5.74,41.61-1.63,84.34,8.32,125.07,7.82,30.85,19.77,61,35.84,88.49,30.3,52.43,75.9,95.85,129.22,124.46,74.86,40.18,165.23,49.11,247.14,27.93,6.55-1.77,13.28-3.76,19.56-6.13,0,0,7.57,27.74,7.57,27.74-98.25,16.19-203.46,1.3-288.91-51.09-4.21-2.69-9.48-6.15-13.7-8.83-2.96-2.09-10.35-7.31-13.31-9.4-3.12-2.35-7.59-5.94-10.71-8.33-2.87-2.13-9.67-8.03-12.51-10.42-4.81-3.86-11.39-10.47-16.02-14.66-2.63-2.71-8.85-9.01-11.4-11.64-3.48-3.93-7.46-8.18-10.89-12.13-6.36-7.59-12.63-15.49-18.54-23.45-4.21-6.01-9.86-14.08-13.67-20.31,0,0-2.94-4.59-2.94-4.59l-2.76-4.7c-22.35-37.61-38.1-79.06-47.9-121.68-4.98-21.5-8.47-43.46-10.36-65.53-.69-7.56-1.11-14.96-1.25-22.66,0,0,27.25,1.85,27.25,1.85h0Z"/>
    </g>
    <g id="e" data-name="Layer 8 copy">
      <path class="az" d="M852.08,1128.41c13.94-68.96,36.14-135.89,67.22-198.91,70.96-145.03,189.71-247.68,346.06-291.57,51.45-14.61,104.32-22.01,157.83-24.84,0,0-5.42,63.09-5.42,63.09-23.54-5.89-47.88-8.95-72.19-10.07-118.18-5.54-237.06,42.44-317.9,129.51-55.71,59.39-93.1,134.75-111.01,213.94-7.24,32.19-11.56,65.14-11.8,98.08,0,8.12.16,16.31.92,24l-53.72-3.23h0Z"/>
    </g>
    <g id="f" data-name="Layer 8 copy 7">
      <path class="az" d="M929.65,1120.11c.44-23.67,2.03-47.8,5.49-71.24,23.63-168.97,134.85-315.37,304.29-356.82,51.5-12.82,105.37-15.64,158.12-10.28,7.9.75,15.78,1.84,23.67,2.97l-4.61,21.27c-7.25-2.13-14.59-3.92-22-5.55-44.77-9.51-91.27-10.99-136.54-4.05-116.82,17.44-214.92,93.76-265.69,199.71-6.71,13.71-12.49,28.09-17.55,42.48-19.91,57.93-26.37,120.15-18.6,180l-26.58,1.51h0Z"/>
    </g>
    <g id="g" data-name="Layer 8 copy 9">
      <path class="az" d="M519.92,305.55c44.42,46.89,93.21,89.85,146.42,126.54,30.87,20.91,98.78,63.7,136.02,53.02,37.31-12.34,9.6-90.16-.39-115.95-23.78-60.18-57.02-116.27-94.12-169.13-4.19-5.84-8.38-11.67-12.71-17.41l18.3-11.77c13.98,25.5,27.87,51.07,41.02,77,19.74,39.62,112.57,219.94,49.24,241.33-65.34,19.16-230.05-108.85-284.39-150.54,0,0-17.3-13.4-17.3-13.4l17.92-19.69h0Z"/>
    </g>
    <g id="h" data-name="Layer 8 copy 10">
      <path class="az" d="M401.38,556.91c71.62,13.91,143.29,24.79,213.53,44.24,11.64,3.4,23.25,7.02,34.5,11.8,16.56,6.79,43.45,21.38,22.96,40.49-4.62,4.29-9.92,7.44-15.39,10.42-32.57,16.49-68.17,25.34-103.13,34.93-46.81,12.25-93.99,22.7-141.25,34.02l-3.28-21.51c47.97-3.36,95.74-10.13,142.86-19.66,29.31-6.17,58.65-13.16,86.56-24.15,11.29-4.72,31.7-13.09,36.27-24.93,2.36-7.87-5.6-13.65-11.55-17.42-15.34-9.04-32.88-13.79-50.09-18.26-23.29-5.73-47.01-9.78-70.77-13.06-47.63-6.38-95.71-10.1-143.78-10.41,0,0,2.56-26.5,2.56-26.5h0Z"/>
    </g>
    <g id="i" data-name="Layer 8 copy 11">
      <path class="az" d="M405.22,603.41c70.43,4.69,140.64,5.93,210.53,15.43,11.61,1.75,23.23,3.71,34.65,6.91,9.22,2.74,24.24,7.14,28.02,17.03,4.14,13.06-14.73,24.33-23.93,30.12-10.11,6.12-20.71,11.2-31.35,16.1-64.34,28.61-131.22,49.78-197.31,74.2,0,0-5.71-21-5.71-21,22.95-4.11,45.7-9.21,68.32-14.82,45.09-11.42,89.92-24.55,132.79-42.71,15.72-7,40.25-17.83,50.79-31.22,8.76-11.2-5.63-17.51-14.65-20.6-13.66-4.53-28.08-6.51-42.36-8.14-17.3-1.83-34.74-2.69-52.15-3.07-40.72-.73-81.48.98-122.05,4.6-11.6,1.02-23.19,2.28-34.76,3.76l-.82-26.61h0Z"/>
    </g>
    <g id="j" data-name="Layer 8 copy 12">
      <path class="az" d="M391.75,639.66c55.98-6.72,112.17-11.31,168.55-11.48,40.22.06,80.56,1.86,120.25,9.13,27.82,5.44,70.67,15.31,86.26,41.08,16.68,29.28-17.34,65.32-37.16,84.5-23.39,22.22-49.68,41-76.61,58.63-27,17.47-54.94,33.47-83.4,48.43-28.44,15.04-57.49,28.89-86.8,42.24l-5.09-12.29c44.79-16.88,88.56-36.62,130.7-59.35,28.02-15.25,55.42-31.8,81.16-50.67,19.18-14.18,37.8-29.36,53.52-47.33,10.06-11.75,19.84-25.01,23.12-40.27,3.72-16.56-6.02-29.15-19.5-37.62-41.28-25.51-114.16-28.98-162.39-28.96-63.81.42-127.52,7.76-190.12,19.84,0,0-2.5-15.87-2.5-15.87h0Z"/>
    </g>
    <g id="k" data-name="Layer 8 copy 13">
      <path class="az" d="M1050.78,170.48c-7.31,28.63-15.65,57.31-25.02,85.3-4.36,13.05-10.11,28.93-14.93,41.8-2.75,7.57-7.83,19.82-10.83,27.52-3.69,9.06-9.2,21.48-13.04,30.59-5.73,12.22-11.13,24.77-17.25,36.78-12.92,26.62-28.82,55.52-43.87,81.14-5.92,9.58-13.56,21.74-19.5,31.31-8.77,12.89-17.72,27.15-26.94,39.65-5.77,7.96-11.49,15.96-17.3,23.89-38.65,50.65-81.36,99.04-128.15,142.28-5.99,5.35-15.75,14.55-21.85,19.83-5.49,4.68-16.88,14.5-22.37,19.25-56.72,47.12-118.27,89.11-183.07,124.3-8.8,4.93-17.49,9.38-26.15,13.92,0,0-5.77-11.99-5.77-11.99,10.72-4.92,22.67-10.48,33.06-15.65,63.28-31.57,123.27-70.6,178.35-114.94,5.69-4.76,16.89-14.05,22.53-18.82,8.5-7.35,18.97-16.91,27.38-24.44,5.92-5.66,15.3-14.63,21.23-20.29,3.28-2.86,22.16-22.67,25.71-26.21,2.82-2.85,7.19-7.79,9.93-10.81,4.69-5.17,12.66-14.03,17.23-19.07,9.87-11.99,21.02-24.49,30.41-36.78,10.75-13.62,25.26-33.11,34.99-47.17,8.36-11.44,16.6-24.76,24.52-36.59,1-1.48,3.02-4.65,3.92-6.21,5.01-8.37,12.04-19.94,17.02-28.3,5.75-10.42,17.63-31.31,22.8-41.89,11.12-21.31,21.82-44.24,31.21-66.34,0,0,2.91-6.73,2.91-6.73l1.45-3.36c2.02-5,4.95-12.56,6.74-17.04,18.7-47.58,33.73-96.97,44.56-146.93,1.81-8.14,2.87-14.12,4.4-21.47,0,0,15.69,3.48,15.69,3.48h0Z"/>
    </g>
    <g id="l" data-name="Layer 8 copy 2">
      <path class="az" d="M1210.75,237.91c-83.35,97.57-134.33,221.39-150.61,348.34-18.36,145.87,10.37,297.68,83.83,425.09,9.1,15.76,18.85,31.09,29.46,45.79l-39.68,23.12c-10.17-21.8-19.68-43.64-28.45-65.91-22.43-57.32-39.75-116.74-50.61-177.19-13.96-76.24-17.56-154.38-10.96-231.59,8.83-101.02,35.57-199.92,77.3-292.38,15.58-34.83,33.42-68.59,52.74-101.64,0,0,36.97,26.35,36.97,26.35h0Z"/>
    </g>
    <g id="m" data-name="Layer 8 copy 3">
      <path class="az" d="M632.48,201.05c42.95,62.88,82.25,128.35,112.72,198.12,66.94,150.58,90.09,313.05,68.2,475.93-10.53,81.42-31.76,160.91-58.57,238.62,0,0-90.43-55.37-90.43-55.37,40.18-38.8,70.45-87.23,93.27-138.13,54.38-121.73,60.01-264.68,17.15-391.32-27.1-81.05-73.87-155.87-136.15-214.47-20.48-19.08-42.62-36.72-66.7-50.93,0,0,60.51-62.44,60.51-62.44h0Z"/>
    </g>
    <g id="n" data-name="Layer 8 copy 4">
      <path class="az" d="M817.85,149.95c9.63,110.01,39.63,218.26,86.33,318.28,7.66,16.8,16.75,34.28,25.29,50.69.85,1.63,15.45,27.41,16.66,29.64,15.36,25.82,31.66,51.73,49.26,76.08,40.89,57.33,88.09,110.37,140.31,157.56,59.53,53.75,125.59,100.56,196.77,137.35,0,0-12.72,21.78-12.72,21.78-166.25-108.03-306.47-255.12-399.81-430.18-40.91-75.8-72.99-156.32-96.36-239.25-8.37-29.16-15.53-59.22-21.63-88.98-2.14-9.98-3.96-20.01-5.92-30.04,0,0,21.8-2.92,21.8-2.92h0Z"/>
    </g>
    <g id="o" data-name="Layer 8 copy 6">
      <path class="az" d="M1159.41,207.02c-98.87,147.66-135.46,335.72-102.3,510.27,21.94,115.34,72.48,225.72,147.9,315.84,0,0-20.18,15.13-20.18,15.13-10.43-15.75-20.5-31.73-29.94-48.08-58.73-101.08-97.61-214.03-109.79-330.41-4.5-41.51-5.47-83.92-3.31-125.62,4.53-83.99,22.55-166.95,52.29-245.66,13.16-35.11,28.88-69.32,46.44-102.74l18.89,11.27h0Z"/>
    </g>
    <g id="p" data-name="Layer 8 copy 5">
      <path class="az" d="M1254.63,280.58c-30.3,23.7-58.85,49.81-85.69,77.34-8.87,9.21-17.54,18.66-25.73,28.46-7.93,9.77-16.15,19.73-21.38,31.15-.96,2.46-3.03,7.33-.53,8.96,9.42,3.6,36.22-10.91,45.58-15.74,29.98-16.24,58.5-35.41,86.02-55.52,13.79-10.18,27.37-20.63,40.47-31.73l13.77,21.12c-46.58,22.88-91.01,48.83-137.61,71.38-10.52,4.67-40.5,20.17-50.53,14.33-8.52-5.58,1.45-20.07,5.07-26.14,4.67-7.34,9.9-14.21,15.18-21.01,32.13-40.54,67.36-78.02,99.96-118.31,0,0,15.41,15.69,15.41,15.69h0Z"/>
    </g>
    <g id="q" data-name="Layer 8 copy 8">
      <path class="az" d="M404.65,506.65c291.78,93.07,607.17,111.61,908.41,57.42,8.04-1.53,22.95-4.23,31.07-5.99,20.68-4.12,41.26-8.77,61.73-13.75l4.78,24.76c-168.01,24.29-338.34,35.51-508,28.13-169.78-6.62-338.08-31.48-503.82-69.37,0,0,5.83-21.21,5.83-21.21h0Z"/>
    </g>
  </g>
  <g id="r" data-name="Layer 42 copy">
    <g id="t" data-name="Layer 24 copy">
      <path class="bt" d="M301.94,643.63c-64.77-14.57-128.84-32.28-191.68-53.73-.43-.15-.66-.61-.51-1.04.15-.43.61-.66,1.04-.51,54.88,18.78,110.88,34.34,167.63,46.32,8.11,1.7,16.24,3.3,24.37,4.86,2.65.56,2,4.62-.85,4.1h0Z"/>
      <path class="bt" d="M292.19,638.83c-56.68-20.67-112.61-46.74-162.81-79.48.1-.17.32-.22.49-.12,51.55,31.3,106.43,57.02,163.39,76.57,1.93.69,1.03,3.72-1.06,3.03h0Z"/>
      <path class="bt" d="M422.24,715.95c-46.68-31.5-95.31-60.18-145.4-85.92-16.75-8.52-33.69-16.68-50.94-24.14-.5-.21-.73-.79-.51-1.29.22-.51.81-.73,1.31-.5,24.63,11.39,52.18,23.84,76.94,35.35,42.81,19.8,84.96,40.91,126.82,62.71,3.94,2.05,5.47,6.91,3.42,10.85-2.17,4.25-7.71,5.64-11.64,2.94h0Z"/>
      <path class="bt" d="M452.52,726.31c-6.84-2.14-16.4-5.17-23.15-7.13-54.27-15.76-109.61-29.4-165.88-35.41-24.25-2.55-48.69-1.73-73.05-3.38-40.79-2.85-81.35-9.45-120.98-19.17-.57-.14-.93-.72-.78-1.3.14-.56.7-.91,1.26-.79,39.85,8.05,80.26,12.93,120.83,14.1,16.29.44,32.44-.32,48.79-.43,41.16-.1,82.05,5.94,122.41,13.33,32.18,6.04,64.35,13.34,95.97,21.9,5.09,1.35,8.13,6.57,6.78,11.66-1.38,5.29-7.01,8.34-12.19,6.62h0Z"/>
      <path class="bt" d="M149.13,677.34c-38.98,3.79-78.48,1.61-116.73-6.41-.49-.1-.81-.59-.71-1.08.1-.49.58-.8,1.07-.71,38.18,7.45,77.44,9.07,116.02,4.79,2.23-.2,2.64,3.12.35,3.41h0Z"/>
      <path class="bo" d="M116.04,591.56c-3.62-.72-5.43-1.08-7.64-1.16-3.3-.12-6.59-.94-9.89-.73-.16.01-.75.06-1.05-.3-.22-.26-.19-.62-.15-1.06.09-1.01.48-1.28.31-1.72-.2-.5-.85-.53-.82-.74.03-.27,1.13-.54,2.29-.35,1.43.24,2.02,1.04,2.66.71.45-.23.28-.68.74-.93.57-.31,1.09.23,2.83.66,1.25.31,1.64.19,1.78.14.72-.25.8-.8,1.3-.92.86-.22,1.8,1.14,2.53,1.94.71.77,2.6,1.54,6.35,3.06,2.37.96,3.29,1.21,6.75,2.57,3.46,1.36,4.2,1.75,4.14,2.07-.07.41-1.42.67-2.58.38-1.12-.27-1.83-.99-2.1-1.25-1.17-1.11-3.27-1.54-7.42-2.37Z"/>
      <path class="bo" d="M32.7,669.32c-3.77-1.23-5.65-1.84-6.79-2.38-2.7-1.28-5.82-2.09-8.31-3.59-.12-.07-.56-.35-1.02-.24-.34.08-.54.33-.78.63-.55.69-.41,1.03-.83,1.25-.47.25-1,0-1.11.14-.14.19.56.82,1.6,1.17,1.28.43,2.25.15,2.56.63.21.33-.2.56,0,.91.26.43,1.01.3,2.66.73,1.18.31,1.42.55,1.5.64.42.46.13.85.45,1.13.55.5,2.14,0,3.22-.22,1.04-.21,3.03.06,6.95.61,2.48.35,3.37.57,6.96,1.1,2.14.32,4.57.46,4.58.35,0-.06-.78-.21-1.76-.4-1.17-.23-1.75-.34-2.94-.51-1.66-.24-3.44-.81-6.94-1.95Z"/>
      <path class="be" d="M162.78,607.91c0,.07-3.23-.03-3.79.04-.05,0-.1.01-.1.01s-.37.05-.74.12c-.39.07-2.15.53-2.99.87-2.71,1.09-5.23,3.61-5.23,3.61-5.69,5.71-18.3,6.64-26.3,11.65-.07.05-2.64,1.65-6.22,2.01-.83.08-2.36.22-2.6-.35-.07-.17-.21-.84,2.72-3.05,4.17-3.14,8.13-4.56,8.14-4.56.62-.22,8.33-3.41,23.75-9.78.79-.33,2.28-.94,4.36-1.29,4.97-.82,9.01.63,9,.7Z"/>
      <path class="ci" d="M299.89,678.16c.63-.38-1.33-4.78-1.96-6.19-1.84-4.11-4.59-12.92-16.68-24.72-5.62-5.48-9.7-9.47-15.25-10.43,0,0-.18-.03-7.89-1.16-.39.24-.98.55-1.74.8-.3.1-.43.12-.5.23-.47.66,1.74,2.98,2.19,3.45,2.47,2.6,3.73,3.87,7.06,5.53,3.83,1.92,12.69,7.92,19.97,15.66,1.43,1.51,3.2,3.63,6.75,7.87,5.24,6.25,7.5,9.29,8.06,8.96Z"/>
      <path class="ci" d="M222.42,623.88c.39.62-3.36,3.65-4.57,4.61-3.51,2.81-9.98,9.4-26.12,14.39-7.5,2.32-12.95,4-18.33,2.32,0,0-.17-.05-7.55-2.57-.24-.39-.62-.93-1.18-1.5-.22-.22-.32-.3-.34-.44-.12-.8,2.91-1.86,3.52-2.07,3.38-1.18,5.09-1.74,8.8-1.71,4.28.04,14.9-1.27,24.92-4.82,1.96-.7,4.51-1.77,9.6-3.92,7.51-3.17,10.91-4.85,11.26-4.3Z"/>
      <path class="be" d="M324.17,650.97c-1.43-.49-1.81-2.26-2.37-3.45-1.49-3.21-5.04-4.14-7.83-5.41-2.44-1.11-5.63-4.12-12.02-10.14-15.81-14.9-19.05-24.42-30.04-37.58,0,0-3.69-4.42-5.04-11.28-.51-2.59-.05-3.17.25-3.34.6-.35,1.62.3,2.29.8,14.82,11,22.44,21.87,22.44,21.87,11.86,16.92,17.78,25.38,22.43,29.95,3.92,3.85,6.54,8.84,9.96,13.14,1.02,1.28,3.02,3.77,2.28,4.94-.4.62-1.52.79-2.35.5Z"/>
      <path class="be" d="M223.27,606.22c-2.38-5.59-3.13-4.45-9.17-15.48-13.16-24.01-12.56-34.69-20.23-44.42,0,0-6.68-8.47-4.96-12.77.11-.27.61-1.35.41-2.7-.14-.95-.51-1.31-1.14-2.48-1.33-2.48-.78-2.96-2.02-5-.82-1.34-1.06-1.14-1.81-2.52-.82-1.51-.6-1.91-1.36-3.11-.68-1.07-1.45-1.72-2.47-2.56-1.4-1.15-2.43-1.68-3.06-2.08-2.35-1.49-3.39-4.3-5.49-9.92-1.06-2.85-1.93-5.24-1.32-5.62.53-.33,1.85.98,3.06,2.08,4.49,4.08,7.67,5.51,9.56,6.97,9.88,7.66,23.75,39.44,23.75,39.44s9.68,22.18,15.94,44.89c1.93,7,1.64,9.5,3.08,12.51.13.28.94,1.95.84,4.11-.04.9-.28,2.65-.93,2.77-.91.17-2.2-2.97-2.69-4.11Z"/>
      <path class="be" d="M257.15,628.21c.86.8-2.9,6.18-4.29,8.14-9.23,13.04-20.9,26.56-23.56,29.66,0,0-18.07,21.06-28.96,28.96-2.32,1.68-4.4,2.29-8.55,3.5-.64.19-1.76.49-2.03.08-.36-.54.99-2.03,1.38-2.46,2.92-3.31,4.24-7.71,6.37-11.55,3.7-6.67,7.72-7.77,19.68-20.62,4.95-5.31,3.99-4.83,9.37-10.57,8.14-8.68,12.2-13.01,16.57-15.31,2.43-1.28,4.9-2.08,7.02-4.73.72-.9,1.64-2.32,3.55-3.66.25-.18,2.86-1.99,3.46-1.44Z"/>
      <path class="be" d="M193.17,672.35c-2.14-3.56-5.79-4.89-8.69-6.45-7.57-4.09-12.47-11.18-13.52-12.7,0,0-3.05-4.42-5.52-14.74-.21-.88-.56-2.54.07-2.92.46-.28,1.23.24,1.91.69,3.47,2.24,3.94,2.01,5.37,3.1,3.83,2.94,7.2,9.81,13.27,18.31,2.26,3.16,3.8,6.9,6.57,9.62.8.79,2.99,2.84,3.09,5.62.02.67-.06,1.85-.51,1.98-.61.16-1.55-1.67-2.05-2.5Z"/>
      <path class="be" d="M155.2,677.3c-2.99,6-9.23,11.78-11.56,14.06-8.24,8.06-7.28,11.12-16.43,18.88-.69.58-6.2,5.23-6.88,4.57-.45-.44,1.45-2.97,3.5-5.91,5.58-7.98,3.93-6.96,10.36-16.44,8.07-11.9,10.67-13.52,12.14-14.18,1.65-.74,3.89-1.18,7.09-3.24,1.23-.79,2.35-1.67,2.77-1.34.58.45-.64,2.9-.99,3.6Z"/>
      <path class="be" d="M127.12,554.72c-1.96-3.49-1.74-4.08-5.74-14.89-.75-2.04-1.64-4.38-1.83-7.63-.11-1.88-.06-5.1.77-5.28.61-.13,1.41,1.4,1.96,2.52,3.5,7.06,5.67,11.45,6.18,18.27.25,3.4-.02,5.98,1.42,9.74.59,1.56,1.35,3,1.21,3.08-.22.12-2.29-2.83-3.97-5.82Z"/>
      <path class="be" d="M227.87,680.16c.14.17-.44.84-.82,1.33-1.95,2.5-2.25,4.89-2.75,6.22-1.24,3.3-5.55,4.89-8.81,6.29-16.39,7.02-24.58,10.54-28.2,11.54-11.33,3.12-23.99,5.29-24.24,4.34-.08-.31,1.14-.91,4.9-2.42,13.73-5.53,17.7-5.59,26.45-9.24,6.48-2.7,5.96-3.36,16.31-8.27,4.5-2.13,6.58-3.51,8.5-4.79.96-.64,2.3-1.46,4.98-3.1,2.29-1.4,3.51-2.11,3.69-1.89Z"/>
      <path class="be" d="M90.19,660.83c-.84,1.2-12.16-3.09-21.34-11.68-6.45-6.03-6.47-9.16-14.67-15.85-5.04-4.11-9-6.16-8.61-7.01.44-.93,5.97.18,10.77,2.86,3.78,2.11,4.89,3.95,9.16,8.22,7.29,7.3,9.52,7.41,18.69,16.5,4.28,4.24,6.42,6.36,5.99,6.96Z"/>
      <path class="ci" d="M276.15,680.97c-1.51,0-2.44,1.56-3.35,2.51-2.44,2.56-6.1,2.31-9.15,2.61-2.66.27-6.66,2.09-14.64,5.75-19.76,9.04-25.88,17.01-40.51,25.95,0,0-4.91,3-8.4,9.07-1.31,2.29-1.06,2.98-.84,3.24.45.52,1.63.23,2.43-.03,17.57-5.66,28.27-13.51,28.27-13.51,16.66-12.22,24.99-18.33,30.86-21.17,4.95-2.39,9.03-6.28,13.65-9.25,1.38-.89,4.07-2.6,3.74-3.95-.18-.72-1.19-1.23-2.07-1.23Z"/>
      <path class="ci" d="M159.91,576.98c.07.73-4.64,1.75-6.15,2.07-4.4.94-13.14,3.92-29.8,1.13-7.74-1.3-13.37-2.24-17.42-6.15,0,0-.13-.13-5.6-5.68-.04-.46-.13-1.11-.38-1.87-.1-.3-.15-.41-.11-.54.26-.77,3.43-.35,4.08-.27,3.55.46,5.33.72,8.63,2.43,3.81,1.96,13.89,5.56,24.43,6.88,2.06.26,4.82.44,10.34.8,8.14.54,11.93.56,11.99,1.21Z"/>
      <path class="ci" d="M363.87,665.99c-1-4.03-4.1-6.37-6.41-8.72-6.04-6.14-8.63-14.35-9.19-16.11,0,0-1.62-5.12-.94-15.71.06-.9.21-2.59.92-2.77.52-.13,1.11.6,1.63,1.22,2.65,3.16,3.18,3.08,4.22,4.54,2.8,3.93,4,11.5,7.31,21.4,1.23,3.68,1.61,7.71,3.45,11.13.53.99,2.03,3.6,1.3,6.28-.17.64-.6,1.76-1.07,1.74-.63-.02-.99-2.05-1.22-2.99Z"/>
      <path class="be" d="M347.72,650.11c-4.62,4.85-12.28,8.55-15.19,10.04-10.25,5.29-10.22,8.49-21.25,13.22-.83.36-7.47,3.18-7.92,2.35-.3-.55,2.26-2.41,5.09-4.62,7.68-5.99,5.8-5.5,14.73-12.67,11.21-9,14.18-9.79,15.77-9.99,1.8-.23,4.07.02,7.73-1.01,1.41-.4,2.74-.9,3.04-.47.42.6-1.46,2.58-2.01,3.15Z"/>
      <path class="be" d="M361.37,671.49c.18.13-.21.93-.45,1.5-1.25,2.91-.93,5.3-1.07,6.71-.36,3.5-4.12,6.15-6.91,8.33-14.05,10.97-21.08,16.46-24.32,18.35-10.16,5.91-21.85,11.24-22.33,10.38-.16-.28.87-1.17,4.11-3.59,11.87-8.85,15.69-9.92,23.21-15.68,5.57-4.27,4.91-4.77,13.66-12.15,3.8-3.21,5.47-5.08,6.99-6.8.76-.87,1.85-2,4.03-4.27,1.86-1.94,2.86-2.94,3.09-2.77Z"/>
      <path class="be" d="M177.38,612.43c-2.38,2.8-6.01,4.17-8.94,5.64-7.66,3.82-13.01,9.46-14.16,10.67,0,0-3.34,3.52-6.65,11.19-.28.65-.77,1.88-.2,2.08.41.14,1.21-.32,1.9-.72,3.54-2.01,3.97-1.9,5.45-2.85,3.96-2.55,7.82-7.86,14.44-14.65,2.46-2.52,4.29-5.38,7.2-7.65.84-.66,3.14-2.38,3.49-4.38.08-.48.11-1.32-.31-1.35-.57-.05-1.64,1.37-2.2,2.03Z"/>
      <path class="be" d="M43.16,669.46c-3.08-2.55-3.08-3.19-10.69-11.85-1.43-1.63-3.09-3.5-4.44-6.47-.78-1.72-1.88-4.74-1.17-5.2.52-.33,1.82.8,2.73,1.65,5.79,5.34,9.4,8.66,12.31,14.85,1.45,3.08,2.13,5.59,4.81,8.59,1.11,1.24,2.34,2.31,2.23,2.44-.16.2-3.15-1.82-5.79-4.01Z"/>
      <path class="ci" d="M85.56,681.7c-2.01,1.97-1.98,2.42-6.8,8.93-.91,1.23-1.97,2.63-2.74,4.79-.45,1.25-1.04,3.44-.51,3.72.39.2,1.23-.67,1.82-1.31,3.75-4.08,6.08-6.62,7.76-11.13.84-2.24,1.16-4.04,2.87-6.31.71-.94,1.5-1.76,1.42-1.84-.12-.13-2.1,1.46-3.82,3.15Z"/>
      <path class="ci" d="M173.72,680.29c-7.22,5.85-12.52,6.8-18.38,9.77-13.71,6.96-21.07,20.25-25.13,27.57-1.26,2.28-7.31,13.46-7.41,26.11-.01,1.75-.06,7.28,1.48,7.63,1.15.26,2.69-2.49,3.23-3.46,5.93-10.55,17.35-28.53,21.82-34.94,9.06-12.97,13.58-19.46,20.54-23.17.99-.53,7.14-3.72,10.12-10.07.19-.4,1.69-3.61.88-4.24-.95-.73-4.42,2.56-7.15,4.78Z"/>
      <path class="be" d="M163.47,672.34c.13-.19-.51-.8-.93-1.26-2.15-2.33-2.65-4.68-3.26-5.97-1.51-3.18-5.94-4.41-9.3-5.53-16.91-5.64-25.37-8.46-29.06-9.15-11.55-2.17-24.35-3.28-24.52-2.31-.05.31,1.21.81,5.08,2.01,14.15,4.37,18.1,4.1,27.12,7.01,6.68,2.16,6.22,2.86,16.94,6.88,4.66,1.75,6.85,2.96,8.87,4.07,1.01.56,2.41,1.26,5.22,2.67,2.4,1.21,3.67,1.81,3.84,1.58Z"/>
      <path class="be" d="M332.83,714.96c.33-8.78.5-13.17,1.46-15.66,1.1-2.86,2.98-6.02,1.79-9.35-.44-1.24-1.41-2.77-.73-4.12.39-.78,1.31-1.46,2.03-1.29,1.35.31,1.67,3.49,1.84,5.12.58,5.47,2.21,10.86,2.12,16.35-.1,6.16,1.42,15.61,4.47,33.85-3.82-.18-7.66-.27-11.5-.3-1.08-6.82-1.86-14.28-1.47-24.6Z"/>
      <path class="ci" d="M254.74,744.5c1.18-2.76,1.97-5.17,3.96-7.19,2.13-2.15,4.31-3.73,4.31-3.73,10.04-7.25,12.4-17.69,31.64-37.17,8.84-8.94,9.24-7.65,13.06-12.37.78-.97,2.88-3.63,3.71-3.22.59.29.34,2.05.14,2.92-.49,2.11-1.73,3.49-1.93,3.72-1.93,2.18-4.84,8.38-6.39,11.18-.5.91-.64,1.06-3.32,4.92-9.78,14.11-8.53,12.97-10.33,15.11-6.85,8.13-9.74,6.56-13.56,13.44-1.54,2.77-2.07,4.83-4.67,7.89-2.13,2.51-3.45,2.52-7.56,6.33-8.89,8.26-9.81,8.22-10.22,8-.67-.35-1.17-1.76,0-6.89.25-.7.63-1.74,1.16-2.96Z"/>
      <path class="be" d="M377.97,664.3c.92-9.25-1.21-14.2-1.95-20.73-1.73-15.28,5.31-28.74,9.2-36.16,1.21-2.31,7.22-13.51,17.73-20.55,1.46-.98,6.05-4.05,7.19-2.96.85.82-.6,3.62-1.11,4.6-5.55,10.75-14.28,30.19-17.17,37.44-5.85,14.7-8.78,22.05-8.04,29.9.1,1.12.82,8.01-2.84,13.99-.23.37-2.09,3.4-3.06,3.06-1.13-.39-.29-5.1.05-8.6Z"/>
      <path class="ci" d="M118.2,678.21c-2.06,3.6-5.69,5-8.55,6.63-7.49,4.25-12.24,11.43-13.25,12.97,0,0-2.96,4.48-5.22,14.85-.19.89-.51,2.55.13,2.92.46.27,1.23-.27,1.9-.73,3.42-2.31,3.9-2.09,5.3-3.21,3.77-3.01,7-9.96,12.9-18.58,2.19-3.2,3.66-6.97,6.37-9.75.78-.8,2.94-2.9,2.97-5.69,0-.67-.1-1.85-.55-1.97-.61-.15-1.51,1.7-2,2.54Z"/>
      <path class="be" d="M286.77,638.99c-4.62,4.85-12.28,8.55-15.19,10.04-10.25,5.29-10.22,8.49-21.25,13.22-.83.36-7.47,3.18-7.92,2.35-.3-.55,2.26-2.41,5.09-4.62,7.68-5.99,5.8-5.5,14.73-12.67,11.21-9,14.18-9.79,15.77-9.99,1.8-.23,4.07.02,7.73-1.01,1.41-.4,2.74-.9,3.04-.47.42.6-1.46,2.58-2.01,3.15Z"/>
      <path class="ci" d="M313.51,638.95c.18.13-.21.93-.45,1.5-1.25,2.91-.93,5.3-1.07,6.71-.36,3.5-4.12,6.15-6.91,8.33-14.05,10.97-21.08,16.46-24.32,18.35-10.16,5.91-21.85,11.24-22.33,10.38-.16-.28.87-1.17,4.11-3.59,11.87-8.85,15.69-9.92,23.21-15.68,5.57-4.27,4.91-4.77,13.66-12.15,3.8-3.21,5.47-5.08,6.99-6.8.76-.87,1.85-2,4.03-4.27,1.86-1.94,2.86-2.94,3.09-2.77Z"/>
      <path class="be" d="M253.11,674.95c-2.6-2.59-6.34-3.66-9.38-4.87-7.95-3.17-13.75-8.35-15-9.46,0,0-3.62-3.23-7.56-10.59-.34-.63-.93-1.81-.38-2.06.4-.18,1.23.22,1.96.56,3.69,1.71,4.12,1.56,5.66,2.39,4.15,2.21,8.45,7.19,15.61,13.4,2.66,2.31,4.72,5,7.81,7.03.89.58,3.33,2.11,3.84,4.08.12.47.22,1.3-.2,1.37-.56.09-1.75-1.23-2.36-1.84Z"/>
      <path class="ci" d="M264.89,619.04c-4.21-8.29-8.67-11.31-12.81-16.41-9.69-11.94-11-27.07-11.73-35.42-.23-2.59-1.2-15.27,3.87-26.87.7-1.61,2.91-6.67,4.46-6.36,1.16.23,1.44,3.37,1.54,4.48,1.12,12.05,4.23,33.13,5.7,40.79,2.99,15.54,4.48,23.3,9.33,29.52.69.89,5.01,6.31,5.14,13.31,0,.44.08,3.99-.92,4.23-1.17.28-2.99-4.14-4.59-7.28Z"/>
      <path class="ci" d="M185.32,541.12c-3.12,3.83-2.6,9.67-2.43,12.68.61,10.8-1.91,9.31-1.17,20.77,0,0,.48,7.52,4.33,15.18.25.49.96,1.9,1.37,1.79.38-.1.28-1.47.25-2.79-.15-6.77,1.67-9.27-.1-11.28-.53-.6-1.27-1.04-1.38-1.98-.11-.9.45-1.56.83-2.26.38-.71.7-1.66.53-5.02-.4-8.12-2.78-14.25-1.46-21.77.56-3.17,1.73-6.37,1.02-6.7-.49-.23-1.53,1.04-1.79,1.37Z"/>
      <path class="be" d="M62.77,676.04c.03.06-2.76,1.67-3.21,2.03-.04.03-.07.06-.07.06s-.29.24-.57.49c-.29.27-1.55,1.58-2.09,2.32-1.73,2.35-2.55,5.82-2.55,5.82-1.84,7.85-12.08,15.27-16.25,23.74-.04.08-1.38,2.8-4.23,4.98-.66.51-1.89,1.43-2.4,1.07-.15-.11-.62-.6.71-4.02,1.9-4.86,4.52-8.15,4.52-8.16.41-.52,5.29-7.28,15.06-20.8.5-.7,1.44-2,3.03-3.39,3.8-3.31,7.99-4.21,8.03-4.14Z"/>
      <path class="be" d="M175.44,582.88c-1-4.03-4.1-6.37-6.41-8.72-6.04-6.14-8.63-14.35-9.19-16.11,0,0-1.62-5.12-.94-15.71.06-.9.21-2.59.92-2.77.52-.13,1.11.6,1.63,1.22,2.65,3.16,3.18,3.08,4.22,4.54,2.8,3.93,4,11.5,7.31,21.4,1.23,3.68,1.61,7.71,3.45,11.13.53.99,2.03,3.6,1.3,6.28-.17.64-.6,1.76-1.07,1.74-.63-.02-.99-2.05-1.22-2.99Z"/>
      <g>
        <path class="ac" d="M64.78,671.01c-.18-.38-1.41-3.11,0-5.91,1.02-2.04,2.8-2.87,3.3-3.09.57-.26,2.06-.9,3.88-.52,2.42.51,3.69,2.45,4.15,3.14.37.56,1.89,3.01,1.2,6.09-.18.82-.73,3.27-2.89,4.37-2.34,1.2-4.88-.06-5.93-.58-.79-.39-2.66-1.32-3.69-3.51Z"/>
        <path class="cq" d="M72.33,668.09s1.56-.15,3.39.16c1.13.19,1.4.41,1.56.58.71.81.51,2.57-.31,3.07-1.49.9-5.02-2.45-5.14-2.29-.06.08.83.91,2.34,2.3,1.42,1.31,1.67,1.52,1.66,1.89-.03,1.15-2.6,2.48-3.77,1.75-.47-.29-.68-1.16-1.08-2.89-.28-1.22-.43-2.2-.5-2.19-.16.02.7,4.14-.5,4.7-.57.27-1.57-.28-1.87-.99-.08-.19-.18-.57.51-2.33.52-1.33.99-2.17.94-2.2-.05-.03-.64.81-1.25,1.85-.95,1.62-1.04,2.15-1.46,2.2-.66.08-1.66-1.08-1.54-2.08.17-1.44,2.61-2.16,2.47-2.5-.14-.36-2.62.83-3.58-.12-.67-.65-.57-2.21.13-2.69.39-.27.98-.11,2.15.2,1.39.38,2.32.83,2.34.79.02-.05-1.13-.91-2.87-1.53-.64-.23-1.05-.31-1.17-.65-.17-.51.45-1.14.99-1.7.66-.67,1.64-1.67,2.3-1.4.38.16.35.59.77,1.79.51,1.46,1.16,2.52,1.23,2.49.06-.03-.27-1.01-.77-2.92-.27-1.04-.32-1.3-.17-1.58.48-.87,2.48-.92,2.82-.29.23.42-.44.86-.72,2.27-.19.97-.08,1.85.02,1.86.12.01.41-1.12.57-2,.06-.36.07-.5.19-.71.28-.49.93-.92,1.5-.77.28.07.57.29.69.57.6,1.33-2.56,4.03-2.43,4.16.12.12,2.5-2.67,4.03-2.11.37.14.76.49.98.9.05.1.45.84.14,1.29-.19.27-.57.31-.72.33-1.83.21-3.88.78-3.88.8Z"/>
      </g>
      <g>
        <path class="bu" d="M115.98,677.59c-.37.2-3.04,1.55-5.9.28-2.08-.92-2.99-2.67-3.24-3.15-.28-.56-.99-2.01-.69-3.85.4-2.44,2.28-3.8,2.95-4.29.55-.4,2.92-2.02,6.03-1.47.83.15,3.3.58,4.5,2.69,1.3,2.29.16,4.88-.31,5.95-.36.81-1.2,2.72-3.34,3.85Z"/>
        <path class="cq" d="M112.72,670.18s-.22-1.55,0-3.39c.14-1.14.34-1.42.51-1.59.77-.75,2.55-.62,3.08.17.97,1.44-2.22,5.12-2.05,5.24.09.06.87-.87,2.19-2.44,1.24-1.48,1.45-1.74,1.81-1.74,1.15-.02,2.59,2.48,1.92,3.68-.27.48-1.13.73-2.84,1.21-1.2.34-2.18.53-2.17.6.02.16,4.1-.88,4.72.29.29.56-.21,1.58-.91,1.91-.19.09-.56.21-2.35-.4-1.35-.46-2.21-.89-2.24-.84-.03.05.84.6,1.91,1.17,1.66.88,2.19.95,2.26,1.36.11.65-1,1.71-2.01,1.63-1.45-.11-2.27-2.51-2.61-2.36-.35.16.94,2.58.04,3.59-.62.69-2.18.67-2.7-.01-.28-.38-.16-.97.1-2.15.31-1.41.72-2.35.68-2.37-.05-.02-.86,1.17-1.4,2.94-.2.65-.27,1.06-.6,1.19-.5.2-1.16-.4-1.74-.92-.7-.63-1.74-1.56-1.5-2.24.14-.38.58-.37,1.75-.85,1.43-.58,2.46-1.27,2.43-1.34-.03-.06-1,.32-2.88.9-1.02.32-1.29.38-1.57.24-.89-.44-1.03-2.43-.42-2.81.41-.25.88.4,2.3.61.98.15,1.85,0,1.86-.1,0-.12-1.14-.36-2.03-.48-.36-.05-.5-.05-.72-.16-.5-.26-.96-.89-.84-1.47.06-.28.27-.58.54-.72,1.3-.66,4.14,2.37,4.27,2.24.12-.12-2.78-2.38-2.29-3.93.12-.38.46-.78.86-1.02.09-.06.82-.49,1.28-.2.28.18.34.55.36.71.29,1.82.95,3.84.98,3.84Z"/>
      </g>
      <g>
        <path class="ac" d="M128.22,682.16c-.37.2-3.04,1.55-5.9.28-2.08-.92-2.99-2.67-3.24-3.15-.28-.56-.99-2.01-.69-3.85.4-2.44,2.28-3.8,2.95-4.29.55-.4,2.92-2.02,6.03-1.47.83.15,3.3.58,4.5,2.69,1.3,2.29.16,4.88-.31,5.95-.36.81-1.2,2.72-3.34,3.85Z"/>
        <path class="cq" d="M124.16,672.87c.02,1.49,1.43,2.84,1.74,2.7.5-.22-1.87-4.4-.41-5.8.78-.75,2.53-.62,3.08.17.9,1.3-1.48,4.38-1.29,4.48.09.05.58-.65,1.43-1.69.95-1.15,1.43-1.74,1.81-1.74,1.22-.02,2.55,3.11,1.92,3.68-.39.36-1.21-.59-2.71-.39-1.25.16-2.45,1.05-2.36,1.6.07.43.92.68,1.45.74.74.08.96-.23,1.91-.23.58,0,1.19,0,1.42.38.31.5-.15,1.56-.91,1.91-.19.09-.56.21-2.35-.4-1.35-.46-2.21-.89-2.24-.84-.03.05.84.6,1.91,1.17,1.66.88,2.19.95,2.26,1.36.12.72-1.2,1.88-2.01,1.63-.79-.24-.52-1.65-1.87-3.15-.43-.48-1.21-1.18-1.49-1-.6.37,1.94,4.07.79,5.39-.66.75-2.41.58-2.7-.01-.17-.35.27-.64.65-1.69.43-1.19.55-2.65.14-2.83-.24-.11-.66.23-.89.53-.46.61-.19,1.13-.52,2.4-.17.66-.28,1.07-.6,1.19-.5.2-1.16-.4-1.74-.92-.7-.63-1.74-1.56-1.5-2.24.15-.42.67-.47,1.75-.85,1.6-.56,3.33-1.16,3.31-1.72-.01-.26-.41-.54-.79-.59-.92-.12-1.29,1.14-2.97,1.87-.53.23-1.09.48-1.57.24-.89-.44-1.03-2.43-.42-2.81.44-.27,1.47.81,2.3.61.09-.02.24-.07.23-.09,0-.02-.45.16-.76,0-.21-.11-.23-.32-.36-.65-.36-.9-.94-1.02-.84-1.47.06-.27.24-.61.54-.72.96-.36,1.98,1.86,4.26,2.19.22.03.78.11.88-.1.28-.58-3.53-2.76-3.16-3.78.04-.12.31-.69.86-1.02.09-.06.82-.49,1.28-.2.2.13.28.35.36.71.21.95.17,1.69.18,1.96Z"/>
      </g>
      <g>
        <path class="bu" d="M102.21,689.4c-.34-.25-2.75-2.03-2.89-5.15-.11-2.27,1.05-3.87,1.37-4.31.37-.5,1.36-1.79,3.13-2.34,2.36-.74,4.42.33,5.15.71.6.31,3.12,1.7,4.02,4.73.24.8.96,3.21-.39,5.23-1.46,2.19-4.29,2.33-5.46,2.39-.88.04-2.97.15-4.93-1.26Z"/>
        <path class="cq" d="M107.36,683.16s1.29-.89,3.04-1.51c1.08-.38,1.42-.33,1.65-.25,1.01.36,1.7,2,1.23,2.82-.86,1.51-5.58.31-5.6.51-.01.1,1.17.39,3.16.86,1.88.45,2.2.52,2.37.84.53,1.02-1.06,3.43-2.43,3.37-.55-.03-1.16-.68-2.35-1.99-.84-.92-1.45-1.71-1.51-1.67-.13.09,2.63,3.27,1.86,4.35-.37.51-1.51.52-2.12.05-.17-.13-.44-.41-.69-2.29-.19-1.42-.19-2.38-.25-2.38-.06,0-.16,1.02-.19,2.23-.04,1.88.14,2.38-.2,2.63-.53.39-1.98-.13-2.36-1.07-.55-1.34,1.22-3.15.93-3.39-.3-.25-1.88,2-3.19,1.64-.9-.25-1.58-1.65-1.2-2.42.21-.42.8-.58,1.97-.87,1.4-.35,2.43-.41,2.42-.45,0-.05-1.43-.24-3.25.06-.68.11-1.07.24-1.34,0-.4-.36-.17-1.21.04-1.96.25-.9.62-2.26,1.33-2.34.4-.05.59.35,1.55,1.19,1.16,1.02,2.24,1.63,2.29,1.57.04-.05-.73-.75-2.1-2.17-.74-.77-.92-.98-.92-1.3,0-.99,1.71-2.01,2.32-1.64.41.25.03.97.48,2.33.31.94.83,1.65.92,1.61.11-.05-.19-1.18-.48-2.02-.12-.34-.18-.47-.18-.71,0-.57.36-1.26.94-1.41.28-.07.64-.02.88.16,1.17.86-.26,4.77-.09,4.82.16.05.88-3.55,2.49-3.81.39-.06.9.06,1.3.31.09.06.81.52.75,1.06-.03.33-.34.55-.47.64-1.5,1.07-3.01,2.57-2.99,2.59Z"/>
      </g>
      <g>
        <path class="ac" d="M125.92,668.4c-.34-.25-2.75-2.03-2.89-5.15-.11-2.27,1.05-3.87,1.37-4.31.37-.5,1.36-1.79,3.13-2.34,2.36-.74,4.42.33,5.15.71.6.31,3.12,1.7,4.02,4.73.24.8.96,3.21-.39,5.23-1.46,2.19-4.29,2.33-5.46,2.39-.88.04-2.97.15-4.93-1.26Z"/>
        <path class="cq" d="M131.05,661.74c.24-.05.63-.24,1.42-2.1.61-1.44.62-1.88.95-1.96.47-.11,1,.61,1.88,1.78.62.83.93,1.24.89,1.56-.16,1.41-4.14,2.06-4.09,2.23.02.1,1.18-.29,2.62-.05.73.13,1.75.3,2.17,1.12.5.96-.21,2.12-.29,2.26-1.45-.73-1.99-.92-2.04-.83-.06.09.38.5,1.76,1.51-.85,1.49-1.63,1.54-1.83,1.54-.27,0-.65-.12-2.35-1.99-.84-.92-1.45-1.71-1.51-1.67-.13.09,2.63,3.27,1.86,4.35-.37.51-1.51.52-2.12.05-.17-.13-.44-.41-.69-2.29-.19-1.42-.19-2.38-.25-2.38-.06,0-.16,1.02-.19,2.23-.04,1.88.14,2.38-.2,2.63-.53.39-1.98-.13-2.36-1.07-.56-1.37.91-3.4.93-3.39.02.01-.58,2.35-1.71,2.55-1.28.23-3.2-2.25-2.68-3.33.19-.4.79-.56,1.97-.87,1.21-.32,2.42-.48,2.42-.45,0,.03-1.65.26-3.29.31-.7.02-1.06,0-1.3-.25-.39-.42-.18-1.17.04-1.96.25-.9.62-2.26,1.33-2.34.4-.05.59.35,1.55,1.19,1.16,1.02,2.24,1.63,2.29,1.57.04-.05-.73-.75-2.1-2.17-.65-.67-.93-.91-.92-1.3.02-.66.84-1.35,1.45-1.24.29.05.46.27,1.35,1.93.6,1.11.86,1.64.92,1.61.05-.02-.03-.37-.48-2.02-.36-1.31-.49-1.77-.25-2,.16-.15.44-.14,1-.12.49.02.73.03.88.16.35.3.11,1.01-.06,1.95-.4,2.27-.2,2.67-.03,2.87.25.29.69.45,1.05.37Z"/>
      </g>
      <g>
        <path class="bu" d="M153.41,682.49c-.37.2-3.04,1.55-5.9.28-2.08-.92-2.99-2.67-3.24-3.15-.28-.56-.99-2.01-.69-3.85.4-2.44,2.28-3.8,2.95-4.29.55-.4,2.92-2.02,6.03-1.47.83.15,3.3.58,4.5,2.69,1.3,2.29.16,4.88-.31,5.95-.36.81-1.2,2.72-3.34,3.85Z"/>
        <path class="cq" d="M149.35,673.2c.02,1.49,1.43,2.84,1.74,2.7.5-.22-1.87-4.4-.41-5.8.78-.75,2.53-.62,3.08.17.9,1.3-1.48,4.38-1.29,4.48.09.05.58-.65,1.43-1.69.95-1.15,1.43-1.74,1.81-1.74,1.22-.02,2.55,3.11,1.92,3.68-.39.36-1.21-.59-2.71-.39-1.25.16-2.45,1.05-2.36,1.6.07.43.92.68,1.45.74.74.08.96-.23,1.91-.23.58,0,1.19,0,1.42.38.31.5-.15,1.56-.91,1.91-.19.09-.56.21-2.35-.4-1.35-.46-2.21-.89-2.24-.84-.03.05.84.6,1.91,1.17,1.66.88,2.19.95,2.26,1.36.12.72-1.2,1.88-2.01,1.63-.79-.24-.52-1.65-1.87-3.15-.43-.48-1.21-1.18-1.49-1-.6.37,1.94,4.07.79,5.39-.66.75-2.41.58-2.7-.01-.17-.35.27-.64.65-1.69.43-1.19.55-2.65.14-2.83-.24-.11-.66.23-.89.53-.46.61-.19,1.13-.52,2.4-.17.66-.28,1.07-.6,1.19-.5.2-1.16-.4-1.74-.92-.7-.63-1.74-1.56-1.5-2.24.15-.42.67-.47,1.75-.85,1.6-.56,3.33-1.16,3.31-1.72-.01-.26-.41-.54-.79-.59-.92-.12-1.29,1.14-2.97,1.87-.53.23-1.09.48-1.57.24-.89-.44-1.03-2.43-.42-2.81.44-.27,1.47.81,2.3.61.09-.02.24-.07.23-.09,0-.02-.45.16-.76,0-.21-.11-.23-.32-.36-.65-.36-.9-.94-1.02-.84-1.47.06-.27.24-.61.54-.72.96-.36,1.98,1.86,4.26,2.19.22.03.78.11.88-.1.28-.58-3.53-2.76-3.16-3.78.04-.12.31-.69.86-1.02.09-.06.82-.49,1.28-.2.2.13.28.35.36.71.21.95.17,1.69.18,1.96Z"/>
      </g>
      <g>
        <path class="bu" d="M173.64,676.48c-.34-.25-2.75-2.03-2.89-5.15-.11-2.27,1.05-3.87,1.37-4.31.37-.5,1.36-1.79,3.13-2.34,2.36-.74,4.42.33,5.15.71.6.31,3.12,1.7,4.02,4.73.24.8.96,3.21-.39,5.23-1.46,2.19-4.29,2.33-5.46,2.39-.88.04-2.97.15-4.93-1.26Z"/>
        <path class="cq" d="M178.77,669.83c.24-.05.63-.24,1.42-2.1.61-1.44.62-1.88.95-1.96.47-.11,1,.61,1.88,1.78.62.83.93,1.24.89,1.56-.16,1.41-4.14,2.06-4.09,2.23.02.1,1.18-.29,2.62-.05.73.13,1.75.3,2.17,1.12.5.96-.21,2.12-.29,2.26-1.45-.73-1.99-.92-2.04-.83-.06.09.38.5,1.76,1.51-.85,1.49-1.63,1.54-1.83,1.54-.27,0-.65-.12-2.35-1.99-.84-.92-1.45-1.71-1.51-1.67-.13.09,2.63,3.27,1.86,4.35-.37.51-1.51.52-2.12.05-.17-.13-.44-.41-.69-2.29-.19-1.42-.19-2.38-.25-2.38-.06,0-.16,1.02-.19,2.23-.04,1.88.14,2.38-.2,2.63-.53.39-1.98-.13-2.36-1.07-.56-1.37.91-3.4.93-3.39.02.01-.58,2.35-1.71,2.55-1.28.23-3.2-2.25-2.68-3.33.19-.4.79-.56,1.97-.87,1.21-.32,2.42-.48,2.42-.45,0,.03-1.65.26-3.29.31-.7.02-1.06,0-1.3-.25-.39-.42-.18-1.17.04-1.96.25-.9.62-2.26,1.33-2.34.4-.05.59.35,1.55,1.19,1.16,1.02,2.24,1.63,2.29,1.57.04-.05-.73-.75-2.1-2.17-.65-.67-.93-.91-.92-1.3.02-.66.84-1.35,1.45-1.24.29.05.46.27,1.35,1.93.6,1.11.86,1.64.92,1.61.05-.02-.03-.37-.48-2.02-.36-1.31-.49-1.77-.25-2,.16-.15.44-.14,1-.12.49.02.73.03.88.16.35.3.11,1.01-.06,1.95-.4,2.27-.2,2.67-.03,2.87.25.29.69.45,1.05.37Z"/>
      </g>
      <g>
        <path class="bu" d="M192.72,622.19c-.37.2-3.04,1.55-5.9.28-2.08-.92-2.99-2.67-3.24-3.15-.28-.56-.99-2.01-.69-3.85.4-2.44,2.28-3.8,2.95-4.29.55-.4,2.92-2.02,6.03-1.47.83.15,3.3.58,4.5,2.69,1.3,2.29.16,4.88-.31,5.95-.36.81-1.2,2.72-3.34,3.85Z"/>
        <path class="cq" d="M189.46,614.78s-.22-1.55,0-3.39c.14-1.14.34-1.42.51-1.59.77-.75,2.55-.62,3.08.17.97,1.44-2.22,5.12-2.05,5.24.09.06.87-.87,2.19-2.44,1.24-1.48,1.45-1.74,1.81-1.74,1.15-.02,2.59,2.48,1.92,3.68-.27.48-1.13.73-2.84,1.21-1.2.34-2.18.53-2.17.6.02.16,4.1-.88,4.72.29.29.56-.21,1.58-.91,1.91-.19.09-.56.21-2.35-.4-1.35-.46-2.21-.89-2.24-.84-.03.05.84.6,1.91,1.17,1.66.88,2.19.95,2.26,1.36.11.65-1,1.71-2.01,1.63-1.45-.11-2.27-2.51-2.61-2.36-.35.16.94,2.58.04,3.59-.62.69-2.18.67-2.7-.01-.28-.38-.16-.97.1-2.15.31-1.41.72-2.35.68-2.37-.05-.02-.86,1.17-1.4,2.94-.2.65-.27,1.06-.6,1.19-.5.2-1.16-.4-1.74-.92-.7-.63-1.74-1.56-1.5-2.24.14-.38.58-.37,1.75-.85,1.43-.58,2.46-1.27,2.43-1.34-.03-.06-1,.32-2.88.9-1.02.32-1.29.38-1.57.24-.89-.44-1.03-2.43-.42-2.81.41-.25.88.4,2.3.61.98.15,1.85,0,1.86-.1,0-.12-1.14-.36-2.03-.48-.36-.05-.5-.05-.72-.16-.5-.26-.96-.89-.84-1.47.06-.28.27-.58.54-.72,1.3-.66,4.14,2.37,4.27,2.24.12-.12-2.78-2.38-2.29-3.93.12-.38.46-.78.86-1.02.09-.06.82-.49,1.28-.2.28.18.34.55.36.71.29,1.82.95,3.84.98,3.84Z"/>
      </g>
      <g>
        <path class="ac" d="M207,625.65c-.32.17-2.61,1.3-5.05.24-1.78-.78-2.56-2.24-2.77-2.65-.24-.47-.84-1.69-.59-3.24.34-2.05,1.95-3.2,2.53-3.61.47-.33,2.5-1.71,5.16-1.25.71.12,2.82.49,3.85,2.26,1.11,1.92.13,4.11-.27,5.01-.31.68-1.03,2.29-2.86,3.24Z"/>
        <path class="cq" d="M203.54,617.84c.01,1.25,1.22,2.39,1.48,2.27.43-.18-1.59-3.7-.35-4.88.67-.63,2.17-.53,2.63.14.77,1.09-1.27,3.68-1.11,3.78.07.04.49-.55,1.22-1.42.81-.97,1.23-1.46,1.55-1.47,1.04-.02,2.18,2.61,1.64,3.1-.34.3-1.03-.49-2.32-.32-1.07.14-2.1.89-2.02,1.35.06.36.79.57,1.24.62.64.06.82-.2,1.63-.19.5,0,1.02,0,1.22.32.27.42-.13,1.31-.78,1.61-.16.08-.48.18-2.01-.34-1.16-.39-1.89-.75-1.91-.71-.02.04.72.5,1.63.98,1.42.74,1.87.79,1.93,1.14.1.61-1.03,1.59-1.72,1.38-.68-.2-.44-1.39-1.59-2.65-.36-.4-1.03-.99-1.27-.84-.51.31,1.66,3.43.67,4.53-.57.63-2.06.49-2.31,0-.14-.29.23-.54.56-1.42.37-1,.47-2.23.12-2.39-.21-.09-.56.2-.76.45-.4.51-.16.95-.45,2.02-.15.56-.24.9-.51,1.01-.43.17-.99-.33-1.49-.77-.6-.53-1.49-1.31-1.28-1.88.13-.36.58-.4,1.5-.72,1.37-.48,2.85-.98,2.83-1.45,0-.22-.35-.45-.68-.49-.79-.1-1.11.96-2.54,1.58-.46.2-.93.4-1.34.2-.76-.37-.88-2.05-.36-2.36.37-.23,1.25.68,1.96.51.08-.02.2-.06.2-.07,0-.02-.39.14-.65,0-.18-.09-.2-.27-.31-.54-.31-.75-.8-.85-.72-1.23.05-.23.21-.51.46-.6.82-.3,1.69,1.57,3.64,1.84.19.03.67.09.75-.08.24-.49-3.01-2.32-2.7-3.18.04-.1.26-.58.74-.86.08-.05.7-.41,1.1-.17.17.11.24.29.31.59.18.8.15,1.42.15,1.65Z"/>
      </g>
      <g>
        <path class="bu" d="M171.59,624.72c-.34-.25-2.75-2.03-2.89-5.15-.11-2.27,1.05-3.87,1.37-4.31.37-.5,1.36-1.79,3.13-2.34,2.36-.74,4.42.33,5.15.71.6.31,3.12,1.7,4.02,4.73.24.8.96,3.21-.39,5.23-1.46,2.19-4.29,2.33-5.46,2.39-.88.04-2.97.15-4.93-1.26Z"/>
        <path class="cq" d="M176.74,618.49s1.29-.89,3.04-1.51c1.08-.38,1.42-.33,1.65-.25,1.01.36,1.7,2,1.23,2.82-.86,1.51-5.58.31-5.6.51-.01.1,1.17.39,3.16.86,1.88.45,2.2.52,2.37.84.53,1.02-1.06,3.43-2.43,3.37-.55-.03-1.16-.68-2.35-1.99-.84-.92-1.45-1.71-1.51-1.67-.13.09,2.63,3.27,1.86,4.35-.37.51-1.51.52-2.12.05-.17-.13-.44-.41-.69-2.29-.19-1.42-.19-2.38-.25-2.38-.06,0-.16,1.02-.19,2.23-.04,1.88.14,2.38-.2,2.63-.53.39-1.98-.13-2.36-1.07-.55-1.34,1.22-3.15.93-3.39-.3-.25-1.88,2-3.19,1.64-.9-.25-1.58-1.65-1.2-2.42.21-.42.8-.58,1.97-.87,1.4-.35,2.43-.41,2.42-.45,0-.05-1.43-.24-3.25.06-.68.11-1.07.24-1.34,0-.4-.36-.17-1.21.04-1.96.25-.9.62-2.26,1.33-2.34.4-.05.59.35,1.55,1.19,1.16,1.02,2.24,1.63,2.29,1.57.04-.05-.73-.75-2.1-2.17-.74-.77-.92-.98-.92-1.3,0-.99,1.71-2.01,2.32-1.64.41.25.03.97.48,2.33.31.94.83,1.65.92,1.61.11-.05-.19-1.18-.48-2.02-.12-.34-.18-.47-.18-.71,0-.57.36-1.26.94-1.41.28-.07.64-.02.88.16,1.17.86-.26,4.77-.09,4.82.16.05.88-3.55,2.49-3.81.39-.06.9.06,1.3.31.09.06.81.52.75,1.06-.03.33-.34.55-.47.64-1.5,1.07-3.01,2.57-2.99,2.59Z"/>
      </g>
      <g>
        <path class="ac" d="M202.66,613c-.34-.25-2.75-2.03-2.89-5.15-.11-2.27,1.05-3.87,1.37-4.31.37-.5,1.36-1.79,3.13-2.34,2.36-.74,4.42.33,5.15.71.6.31,3.12,1.7,4.02,4.73.24.8.96,3.21-.39,5.23-1.46,2.19-4.29,2.33-5.46,2.39-.88.04-2.97.15-4.93-1.26Z"/>
        <path class="cq" d="M207.79,606.34c.24-.05.63-.24,1.42-2.1.61-1.44.62-1.88.95-1.96.47-.11,1,.61,1.88,1.78.62.83.93,1.24.89,1.56-.16,1.41-4.14,2.06-4.09,2.23.02.1,1.18-.29,2.62-.05.73.13,1.75.3,2.17,1.12.5.96-.21,2.12-.29,2.26-1.45-.73-1.99-.92-2.04-.83-.06.09.38.5,1.76,1.51-.85,1.49-1.63,1.54-1.83,1.54-.27,0-.65-.12-2.35-1.99-.84-.92-1.45-1.71-1.51-1.67-.13.09,2.63,3.27,1.86,4.35-.37.51-1.51.52-2.12.05-.17-.13-.44-.41-.69-2.29-.19-1.42-.19-2.38-.25-2.38-.06,0-.16,1.02-.19,2.23-.04,1.88.14,2.38-.2,2.63-.53.39-1.98-.13-2.36-1.07-.56-1.37.91-3.4.93-3.39.02.01-.58,2.35-1.71,2.55-1.28.23-3.2-2.25-2.68-3.33.19-.4.79-.56,1.97-.87,1.21-.32,2.42-.48,2.42-.45,0,.03-1.65.26-3.29.31-.7.02-1.06,0-1.3-.25-.39-.42-.18-1.17.04-1.96.25-.9.62-2.26,1.33-2.34.4-.05.59.35,1.55,1.19,1.16,1.02,2.24,1.63,2.29,1.57.04-.05-.73-.75-2.1-2.17-.65-.67-.93-.91-.92-1.3.02-.66.84-1.35,1.45-1.24.29.05.46.27,1.35,1.93.6,1.11.86,1.64.92,1.61.05-.02-.03-.37-.48-2.02-.36-1.31-.49-1.77-.25-2,.16-.15.44-.14,1-.12.49.02.73.03.88.16.35.3.11,1.01-.06,1.95-.4,2.27-.2,2.67-.03,2.87.25.29.69.45,1.05.37Z"/>
      </g>
      <g>
        <path class="bu" d="M230.15,627.09c-.37.2-3.04,1.55-5.9.28-2.08-.92-2.99-2.67-3.24-3.15-.28-.56-.99-2.01-.69-3.85.4-2.44,2.28-3.8,2.95-4.29.55-.4,2.92-2.02,6.03-1.47.83.15,3.3.58,4.5,2.69,1.3,2.29.16,4.88-.31,5.95-.36.81-1.2,2.72-3.34,3.85Z"/>
        <path class="cq" d="M226.09,617.8c.02,1.49,1.43,2.84,1.74,2.7.5-.22-1.87-4.4-.41-5.8.78-.75,2.53-.62,3.08.17.9,1.3-1.48,4.38-1.29,4.48.09.05.58-.65,1.43-1.69.95-1.15,1.43-1.74,1.81-1.74,1.22-.02,2.55,3.11,1.92,3.68-.39.36-1.21-.59-2.71-.39-1.25.16-2.45,1.05-2.36,1.6.07.43.92.68,1.45.74.74.08.96-.23,1.91-.23.58,0,1.19,0,1.42.38.31.5-.15,1.56-.91,1.91-.19.09-.56.21-2.35-.4-1.35-.46-2.21-.89-2.24-.84-.03.05.84.6,1.91,1.17,1.66.88,2.19.95,2.26,1.36.12.72-1.2,1.88-2.01,1.63-.79-.24-.52-1.65-1.87-3.15-.43-.48-1.21-1.18-1.49-1-.6.37,1.94,4.07.79,5.39-.66.75-2.41.58-2.7-.01-.17-.35.27-.64.65-1.69.43-1.19.55-2.65.14-2.83-.24-.11-.66.23-.89.53-.46.61-.19,1.13-.52,2.4-.17.66-.28,1.07-.6,1.19-.5.2-1.16-.4-1.74-.92-.7-.63-1.74-1.56-1.5-2.24.15-.42.67-.47,1.75-.85,1.6-.56,3.33-1.16,3.31-1.72-.01-.26-.41-.54-.79-.59-.92-.12-1.29,1.14-2.97,1.87-.53.23-1.09.48-1.57.24-.89-.44-1.03-2.43-.42-2.81.44-.27,1.47.81,2.3.61.09-.02.24-.07.23-.09,0-.02-.45.16-.76,0-.21-.11-.23-.32-.36-.65-.36-.9-.94-1.02-.84-1.47.06-.27.24-.61.54-.72.96-.36,1.98,1.86,4.26,2.19.22.03.78.11.88-.1.28-.58-3.53-2.76-3.16-3.78.04-.12.31-.69.86-1.02.09-.06.82-.49,1.28-.2.2.13.28.35.36.71.21.95.17,1.69.18,1.96Z"/>
      </g>
      <g>
        <path class="bu" d="M256.17,616.79c-.34-.25-2.75-2.03-2.89-5.15-.11-2.27,1.05-3.87,1.37-4.31.37-.5,1.36-1.79,3.13-2.34,2.36-.74,4.42.33,5.15.71.6.31,3.12,1.7,4.02,4.73.24.8.96,3.21-.39,5.23-1.46,2.19-4.29,2.33-5.46,2.39-.88.04-2.97.15-4.93-1.26Z"/>
        <path class="cq" d="M261.3,610.14c.24-.05.63-.24,1.42-2.1.61-1.44.62-1.88.95-1.96.47-.11,1,.61,1.88,1.78.62.83.93,1.24.89,1.56-.16,1.41-4.14,2.06-4.09,2.23.02.1,1.18-.29,2.62-.05.73.13,1.75.3,2.17,1.12.5.96-.21,2.12-.29,2.26-1.45-.73-1.99-.92-2.04-.83-.06.09.38.5,1.76,1.51-.85,1.49-1.63,1.54-1.83,1.54-.27,0-.65-.12-2.35-1.99-.84-.92-1.45-1.71-1.51-1.67-.13.09,2.63,3.27,1.86,4.35-.37.51-1.51.52-2.12.05-.17-.13-.44-.41-.69-2.29-.19-1.42-.19-2.38-.25-2.38-.06,0-.16,1.02-.19,2.23-.04,1.88.14,2.38-.2,2.63-.53.39-1.98-.13-2.36-1.07-.56-1.37.91-3.4.93-3.39.02.01-.58,2.35-1.71,2.55-1.28.23-3.2-2.25-2.68-3.33.19-.4.79-.56,1.97-.87,1.21-.32,2.42-.48,2.42-.45,0,.03-1.65.26-3.29.31-.7.02-1.06,0-1.3-.25-.39-.42-.18-1.17.04-1.96.25-.9.62-2.26,1.33-2.34.4-.05.59.35,1.55,1.19,1.16,1.02,2.24,1.63,2.29,1.57.04-.05-.73-.75-2.1-2.17-.65-.67-.93-.91-.92-1.3.02-.66.84-1.35,1.45-1.24.29.05.46.27,1.35,1.93.6,1.11.86,1.64.92,1.61.05-.02-.03-.37-.48-2.02-.36-1.31-.49-1.77-.25-2,.16-.15.44-.14,1-.12.49.02.73.03.88.16.35.3.11,1.01-.06,1.95-.4,2.27-.2,2.67-.03,2.87.25.29.69.45,1.05.37Z"/>
      </g>
      <g>
        <path class="bu" d="M222.28,614.56c-.37.2-3.04,1.55-5.9.28-2.08-.92-2.99-2.67-3.24-3.15-.28-.56-.99-2.01-.69-3.85.4-2.44,2.28-3.8,2.95-4.29.55-.4,2.92-2.02,6.03-1.47.83.15,3.3.58,4.5,2.69,1.3,2.29.16,4.88-.31,5.95-.36.81-1.2,2.72-3.34,3.85Z"/>
        <path class="cq" d="M219.02,607.16s-.22-1.55,0-3.39c.14-1.14.34-1.42.51-1.59.77-.75,2.55-.62,3.08.17.97,1.44-2.22,5.12-2.05,5.24.09.06.87-.87,2.19-2.44,1.24-1.48,1.45-1.74,1.81-1.74,1.15-.02,2.59,2.48,1.92,3.68-.27.48-1.13.73-2.84,1.21-1.2.34-2.18.53-2.17.6.02.16,4.1-.88,4.72.29.29.56-.21,1.58-.91,1.91-.19.09-.56.21-2.35-.4-1.35-.46-2.21-.89-2.24-.84-.03.05.84.6,1.91,1.17,1.66.88,2.19.95,2.26,1.36.11.65-1,1.71-2.01,1.63-1.45-.11-2.27-2.51-2.61-2.36-.35.16.94,2.58.04,3.59-.62.69-2.18.67-2.7-.01-.28-.38-.16-.97.1-2.15.31-1.41.72-2.35.68-2.37-.05-.02-.86,1.17-1.4,2.94-.2.65-.27,1.06-.6,1.19-.5.2-1.16-.4-1.74-.92-.7-.63-1.74-1.56-1.5-2.24.14-.38.58-.37,1.75-.85,1.43-.58,2.46-1.27,2.43-1.34-.03-.06-1,.32-2.88.9-1.02.32-1.29.38-1.57.24-.89-.44-1.03-2.43-.42-2.81.41-.25.88.4,2.3.61.98.15,1.85,0,1.86-.1,0-.12-1.14-.36-2.03-.48-.36-.05-.5-.05-.72-.16-.5-.26-.96-.89-.84-1.47.06-.28.27-.58.54-.72,1.3-.66,4.14,2.37,4.27,2.24.12-.12-2.78-2.38-2.29-3.93.12-.38.46-.78.86-1.02.09-.06.82-.49,1.28-.2.28.18.34.55.36.71.29,1.82.95,3.84.98,3.84Z"/>
      </g>
      <g>
        <path class="ac" d="M241.35,633.25c-.37.2-3.04,1.55-5.9.28-2.08-.92-2.99-2.67-3.24-3.15-.28-.56-.99-2.01-.69-3.85.4-2.44,2.28-3.8,2.95-4.29.55-.4,2.92-2.02,6.03-1.47.83.15,3.3.58,4.5,2.69,1.3,2.29.16,4.88-.31,5.95-.36.81-1.2,2.72-3.34,3.85Z"/>
        <path class="cq" d="M237.29,623.96c.02,1.49,1.43,2.84,1.74,2.7.5-.22-1.87-4.4-.41-5.8.78-.75,2.53-.62,3.08.17.9,1.3-1.48,4.38-1.29,4.48.09.05.58-.65,1.43-1.69.95-1.15,1.43-1.74,1.81-1.74,1.22-.02,2.55,3.11,1.92,3.68-.39.36-1.21-.59-2.71-.39-1.25.16-2.45,1.05-2.36,1.6.07.43.92.68,1.45.74.74.08.96-.23,1.91-.23.58,0,1.19,0,1.42.38.31.5-.15,1.56-.91,1.91-.19.09-.56.21-2.35-.4-1.35-.46-2.21-.89-2.24-.84-.03.05.84.6,1.91,1.17,1.66.88,2.19.95,2.26,1.36.12.72-1.2,1.88-2.01,1.63-.79-.24-.52-1.65-1.87-3.15-.43-.48-1.21-1.18-1.49-1-.6.37,1.94,4.07.79,5.39-.66.75-2.41.58-2.7-.01-.17-.35.27-.64.65-1.69.43-1.19.55-2.65.14-2.83-.24-.11-.66.23-.89.53-.46.61-.19,1.13-.52,2.4-.17.66-.28,1.07-.6,1.19-.5.2-1.16-.4-1.74-.92-.7-.63-1.74-1.56-1.5-2.24.15-.42.67-.47,1.75-.85,1.6-.56,3.33-1.16,3.31-1.72-.01-.26-.41-.54-.79-.59-.92-.12-1.29,1.14-2.97,1.87-.53.23-1.09.48-1.57.24-.89-.44-1.03-2.43-.42-2.81.44-.27,1.47.81,2.3.61.09-.02.24-.07.23-.09,0-.02-.45.16-.76,0-.21-.11-.23-.32-.36-.65-.36-.9-.94-1.02-.84-1.47.06-.27.24-.61.54-.72.96-.36,1.98,1.86,4.26,2.19.22.03.78.11.88-.1.28-.58-3.53-2.76-3.16-3.78.04-.12.31-.69.86-1.02.09-.06.82-.49,1.28-.2.2.13.28.35.36.71.21.95.17,1.69.18,1.96Z"/>
      </g>
      <g>
        <path class="bu" d="M205.19,640.03c-.34-.25-2.75-2.03-2.89-5.15-.11-2.27,1.05-3.87,1.37-4.31.37-.5,1.36-1.79,3.13-2.34,2.36-.74,4.42.33,5.15.71.6.31,3.12,1.7,4.02,4.73.24.8.96,3.21-.39,5.23-1.46,2.19-4.29,2.33-5.46,2.39-.88.04-2.97.15-4.93-1.26Z"/>
        <path class="cq" d="M210.35,633.8s1.29-.89,3.04-1.51c1.08-.38,1.42-.33,1.65-.25,1.01.36,1.7,2,1.23,2.82-.86,1.51-5.58.31-5.6.51-.01.1,1.17.39,3.16.86,1.88.45,2.2.52,2.37.84.53,1.02-1.06,3.43-2.43,3.37-.55-.03-1.16-.68-2.35-1.99-.84-.92-1.45-1.71-1.51-1.67-.13.09,2.63,3.27,1.86,4.35-.37.51-1.51.52-2.12.05-.17-.13-.44-.41-.69-2.29-.19-1.42-.19-2.38-.25-2.38-.06,0-.16,1.02-.19,2.23-.04,1.88.14,2.38-.2,2.63-.53.39-1.98-.13-2.36-1.07-.55-1.34,1.22-3.15.93-3.39-.3-.25-1.88,2-3.19,1.64-.9-.25-1.58-1.65-1.2-2.42.21-.42.8-.58,1.97-.87,1.4-.35,2.43-.41,2.42-.45,0-.05-1.43-.24-3.25.06-.68.11-1.07.24-1.34,0-.4-.36-.17-1.21.04-1.96.25-.9.62-2.26,1.33-2.34.4-.05.59.35,1.55,1.19,1.16,1.02,2.24,1.63,2.29,1.57.04-.05-.73-.75-2.1-2.17-.74-.77-.92-.98-.92-1.3,0-.99,1.71-2.01,2.32-1.64.41.25.03.97.48,2.33.31.94.83,1.65.92,1.61.11-.05-.19-1.18-.48-2.02-.12-.34-.18-.47-.18-.71,0-.57.36-1.26.94-1.41.28-.07.64-.02.88.16,1.17.86-.26,4.77-.09,4.82.16.05.88-3.55,2.49-3.81.39-.06.9.06,1.3.31.09.06.81.52.75,1.06-.03.33-.34.55-.47.64-1.5,1.07-3.01,2.57-2.99,2.59Z"/>
      </g>
      <g>
        <path class="bu" d="M256.39,633.12c-.37.2-3.04,1.55-5.9.28-2.08-.92-2.99-2.67-3.24-3.15-.28-.56-.99-2.01-.69-3.85.4-2.44,2.28-3.8,2.95-4.29.55-.4,2.92-2.02,6.03-1.47.83.15,3.3.58,4.5,2.69,1.3,2.29.16,4.88-.31,5.95-.36.81-1.2,2.72-3.34,3.85Z"/>
        <path class="cq" d="M252.34,623.83c.02,1.49,1.43,2.84,1.74,2.7.5-.22-1.87-4.4-.41-5.8.78-.75,2.53-.62,3.08.17.9,1.3-1.48,4.38-1.29,4.48.09.05.58-.65,1.43-1.69.95-1.15,1.43-1.74,1.81-1.74,1.22-.02,2.55,3.11,1.92,3.68-.39.36-1.21-.59-2.71-.39-1.25.16-2.45,1.05-2.36,1.6.07.43.92.68,1.45.74.74.08.96-.23,1.91-.23.58,0,1.19,0,1.42.38.31.5-.15,1.56-.91,1.91-.19.09-.56.21-2.35-.4-1.35-.46-2.21-.89-2.24-.84-.03.05.84.6,1.91,1.17,1.66.88,2.19.95,2.26,1.36.12.72-1.2,1.88-2.01,1.63-.79-.24-.52-1.65-1.87-3.15-.43-.48-1.21-1.18-1.49-1-.6.37,1.94,4.07.79,5.39-.66.75-2.41.58-2.7-.01-.17-.35.27-.64.65-1.69.43-1.19.55-2.65.14-2.83-.24-.11-.66.23-.89.53-.46.61-.19,1.13-.52,2.4-.17.66-.28,1.07-.6,1.19-.5.2-1.16-.4-1.74-.92-.7-.63-1.74-1.56-1.5-2.24.15-.42.67-.47,1.75-.85,1.6-.56,3.33-1.16,3.31-1.72-.01-.26-.41-.54-.79-.59-.92-.12-1.29,1.14-2.97,1.87-.53.23-1.09.48-1.57.24-.89-.44-1.03-2.43-.42-2.81.44-.27,1.47.81,2.3.61.09-.02.24-.07.23-.09,0-.02-.45.16-.76,0-.21-.11-.23-.32-.36-.65-.36-.9-.94-1.02-.84-1.47.06-.27.24-.61.54-.72.96-.36,1.98,1.86,4.26,2.19.22.03.78.11.88-.1.28-.58-3.53-2.76-3.16-3.78.04-.12.31-.69.86-1.02.09-.06.82-.49,1.28-.2.2.13.28.35.36.71.21.95.17,1.69.18,1.96Z"/>
      </g>
      <g>
        <path class="bu" d="M166.04,610.67c-.28.15-2.28,1.16-4.43.21-1.56-.69-2.25-2-2.43-2.37-.21-.42-.74-1.51-.52-2.89.3-1.83,1.71-2.85,2.21-3.22.41-.3,2.19-1.52,4.53-1.11.62.11,2.48.44,3.38,2.02.98,1.71.12,3.66-.23,4.47-.27.61-.9,2.04-2.51,2.89Z"/>
        <path class="cq" d="M163.6,605.12s-.16-1.16,0-2.55c.11-.85.26-1.07.39-1.19.58-.56,1.91-.47,2.31.12.73,1.08-1.67,3.84-1.54,3.93.06.04.65-.65,1.64-1.83.93-1.11,1.09-1.3,1.36-1.31.87-.01,1.95,1.86,1.44,2.76-.2.36-.85.55-2.13.91-.9.25-1.64.4-1.63.45.02.12,3.08-.66,3.54.22.22.42-.16,1.19-.68,1.44-.14.07-.42.16-1.77-.3-1.01-.35-1.66-.67-1.68-.63-.02.04.63.45,1.43.88,1.25.66,1.64.71,1.7,1.02.08.49-.75,1.28-1.51,1.22-1.09-.08-1.7-1.88-1.96-1.77-.27.12.71,1.94.03,2.69-.47.52-1.64.5-2.02,0-.21-.28-.12-.73.08-1.62.24-1.05.54-1.77.51-1.78-.03-.01-.64.88-1.05,2.2-.15.49-.2.8-.45.9-.37.15-.87-.3-1.3-.69-.52-.47-1.31-1.17-1.12-1.68.1-.29.43-.28,1.32-.64,1.08-.43,1.85-.95,1.82-1-.02-.04-.75.24-2.16.68-.77.24-.97.29-1.18.18-.67-.33-.78-1.82-.32-2.11.31-.19.66.3,1.72.46.73.11,1.39,0,1.39-.08,0-.09-.85-.27-1.52-.36-.27-.04-.38-.04-.54-.12-.38-.19-.72-.66-.63-1.1.05-.21.2-.44.4-.54.97-.5,3.11,1.78,3.2,1.68.09-.09-2.08-1.79-1.72-2.95.09-.28.34-.59.64-.77.07-.04.62-.37.96-.15.21.13.25.41.27.53.22,1.37.71,2.88.73,2.88Z"/>
      </g>
      <g>
        <path class="bu" d="M132.03,607.62c-.26-.18-2.06-1.52-2.17-3.86-.08-1.71.79-2.91,1.03-3.23.28-.38,1.02-1.34,2.35-1.76,1.77-.55,3.31.25,3.86.53.45.23,2.34,1.28,3.02,3.55.18.6.72,2.41-.29,3.92-1.09,1.64-3.22,1.75-4.1,1.79-.66.03-2.22.11-3.7-.95Z"/>
        <path class="cq" d="M135.9,602.95s.97-.67,2.28-1.13c.81-.29,1.07-.25,1.24-.19.76.27,1.28,1.5.92,2.12-.64,1.13-4.18.23-4.2.39,0,.08.88.29,2.37.65,1.41.33,1.65.39,1.78.63.4.77-.79,2.58-1.83,2.53-.41-.02-.87-.51-1.76-1.5-.63-.69-1.09-1.29-1.13-1.25-.1.07,1.97,2.45,1.39,3.26-.27.38-1.13.39-1.59.04-.12-.1-.33-.31-.52-1.71-.15-1.06-.14-1.78-.19-1.78-.04,0-.12.77-.14,1.67-.03,1.41.1,1.79-.15,1.97-.4.29-1.48-.1-1.77-.8-.41-1.01.92-2.37.7-2.54-.22-.18-1.41,1.5-2.39,1.23-.68-.18-1.18-1.24-.9-1.81.16-.32.6-.43,1.48-.65,1.05-.26,1.82-.31,1.82-.34,0-.04-1.08-.18-2.44.05-.51.08-.8.18-1,0-.3-.27-.12-.91.03-1.47.19-.68.46-1.69,1-1.76.3-.04.45.26,1.16.89.87.77,1.68,1.22,1.71,1.18.03-.04-.55-.57-1.58-1.63-.56-.58-.69-.74-.69-.97,0-.75,1.28-1.51,1.74-1.23.31.19.03.72.36,1.75.23.7.62,1.24.69,1.21.08-.03-.14-.88-.36-1.52-.09-.26-.14-.35-.13-.53,0-.43.27-.94.7-1.06.21-.05.48-.02.66.12.88.65-.2,3.58-.07,3.62.12.04.66-2.66,1.87-2.86.29-.05.68.04.97.23.07.04.61.39.56.79-.03.25-.26.41-.35.48-1.12.81-2.26,1.93-2.25,1.95Z"/>
      </g>
      <g>
        <path class="bu" d="M96.27,664.14c-.28.15-2.28,1.16-4.43.21-1.56-.69-2.25-2-2.43-2.37-.21-.42-.74-1.51-.52-2.89.3-1.83,1.71-2.85,2.21-3.22.41-.3,2.19-1.52,4.53-1.11.62.11,2.48.44,3.38,2.02.98,1.71.12,3.66-.23,4.47-.27.61-.9,2.04-2.51,2.89Z"/>
        <path class="cq" d="M93.22,657.17c.01,1.12,1.07,2.13,1.3,2.03.37-.16-1.4-3.3-.31-4.35.59-.56,1.9-.47,2.31.12.67.97-1.11,3.28-.97,3.36.07.04.43-.49,1.07-1.27.71-.86,1.08-1.3,1.36-1.31.92-.01,1.91,2.33,1.44,2.76-.29.27-.91-.44-2.04-.29-.94.12-1.84.79-1.77,1.2.05.32.69.51,1.09.55.56.06.72-.17,1.43-.17.44,0,.9,0,1.07.28.23.38-.11,1.17-.68,1.44-.14.07-.42.16-1.77-.3-1.01-.35-1.66-.67-1.68-.63-.02.04.63.45,1.43.88,1.25.66,1.64.71,1.7,1.02.09.54-.9,1.41-1.51,1.22-.59-.18-.39-1.24-1.4-2.37-.32-.36-.9-.88-1.12-.75-.45.28,1.46,3.06.59,4.04-.5.56-1.81.43-2.02,0-.13-.26.2-.48.49-1.27.32-.89.41-1.99.11-2.13-.18-.08-.5.18-.67.4-.35.46-.14.85-.39,1.8-.13.5-.21.8-.45.9-.37.15-.87-.3-1.3-.69-.52-.47-1.31-1.17-1.12-1.68.11-.32.5-.35,1.32-.64,1.2-.42,2.5-.87,2.48-1.29,0-.2-.31-.4-.59-.44-.69-.09-.97.86-2.23,1.41-.4.18-.82.36-1.18.18-.67-.33-.78-1.82-.32-2.11.33-.2,1.1.61,1.72.46.07-.02.18-.05.18-.06,0-.02-.34.12-.57,0-.16-.08-.17-.24-.27-.49-.27-.67-.7-.76-.63-1.1.04-.2.18-.46.4-.54.72-.27,1.48,1.4,3.2,1.64.16.02.59.08.66-.07.21-.44-2.65-2.07-2.37-2.84.03-.09.23-.52.64-.77.07-.04.62-.37.96-.15.15.09.21.26.27.53.16.71.13,1.26.13,1.47Z"/>
      </g>
      <g>
        <path class="bu" d="M169.13,589.77c-.28.15-2.28,1.16-4.43.21-1.56-.69-2.25-2-2.43-2.37-.21-.42-.74-1.51-.52-2.89.3-1.83,1.71-2.85,2.21-3.22.41-.3,2.19-1.52,4.53-1.11.62.11,2.48.44,3.38,2.02.98,1.71.12,3.66-.23,4.47-.27.61-.9,2.04-2.51,2.89Z"/>
        <path class="cq" d="M166.68,584.21s-.16-1.16,0-2.55c.11-.85.26-1.07.39-1.19.58-.56,1.91-.47,2.31.12.73,1.08-1.67,3.84-1.54,3.93.06.04.65-.65,1.64-1.83.93-1.11,1.09-1.3,1.36-1.31.87-.01,1.95,1.86,1.44,2.76-.2.36-.85.55-2.13.91-.9.25-1.64.4-1.63.45.02.12,3.08-.66,3.54.22.22.42-.16,1.19-.68,1.44-.14.07-.42.16-1.77-.3-1.01-.35-1.66-.67-1.68-.63-.02.04.63.45,1.43.88,1.25.66,1.64.71,1.7,1.02.08.49-.75,1.28-1.51,1.22-1.09-.08-1.7-1.88-1.96-1.77-.27.12.71,1.94.03,2.69-.47.52-1.64.5-2.02,0-.21-.28-.12-.73.08-1.62.24-1.05.54-1.77.51-1.78-.03-.01-.64.88-1.05,2.2-.15.49-.2.8-.45.9-.37.15-.87-.3-1.3-.69-.52-.47-1.31-1.17-1.12-1.68.1-.29.43-.28,1.32-.64,1.08-.43,1.85-.95,1.82-1-.02-.04-.75.24-2.16.68-.77.24-.97.29-1.18.18-.67-.33-.78-1.82-.32-2.11.31-.19.66.3,1.72.46.73.11,1.39,0,1.39-.08,0-.09-.85-.27-1.52-.36-.27-.04-.38-.04-.54-.12-.38-.19-.72-.66-.63-1.1.05-.21.2-.44.4-.54.97-.5,3.11,1.78,3.2,1.68.09-.09-2.08-1.79-1.72-2.95.09-.28.34-.59.64-.77.07-.04.62-.37.96-.15.21.13.25.41.27.53.22,1.37.71,2.88.73,2.88Z"/>
      </g>
      <g>
        <path class="ac" d="M138.12,686.14c-.28.15-2.28,1.16-4.43.21-1.56-.69-2.25-2-2.43-2.37-.21-.42-.74-1.51-.52-2.89.3-1.83,1.71-2.85,2.21-3.22.41-.3,2.19-1.52,4.53-1.11.62.11,2.48.44,3.38,2.02.98,1.71.12,3.66-.23,4.47-.27.61-.9,2.04-2.51,2.89Z"/>
        <path class="cq" d="M135.08,679.17c.01,1.12,1.07,2.13,1.3,2.03.37-.16-1.4-3.3-.31-4.35.59-.56,1.9-.47,2.31.12.67.97-1.11,3.28-.97,3.36.07.04.43-.49,1.07-1.27.71-.86,1.08-1.3,1.36-1.31.92-.01,1.91,2.33,1.44,2.76-.29.27-.91-.44-2.04-.29-.94.12-1.84.79-1.77,1.2.05.32.69.51,1.09.55.56.06.72-.17,1.43-.17.44,0,.9,0,1.07.28.23.38-.11,1.17-.68,1.44-.14.07-.42.16-1.77-.3-1.01-.35-1.66-.67-1.68-.63-.02.04.63.45,1.43.88,1.25.66,1.64.71,1.7,1.02.09.54-.9,1.41-1.51,1.22-.59-.18-.39-1.24-1.4-2.37-.32-.36-.9-.88-1.12-.75-.45.28,1.46,3.06.59,4.04-.5.56-1.81.43-2.02,0-.13-.26.2-.48.49-1.27.32-.89.41-1.99.11-2.13-.18-.08-.5.18-.67.4-.35.46-.14.85-.39,1.8-.13.5-.21.8-.45.9-.37.15-.87-.3-1.3-.69-.52-.47-1.31-1.17-1.12-1.68.11-.32.5-.35,1.32-.64,1.2-.42,2.5-.87,2.48-1.29,0-.2-.31-.4-.59-.44-.69-.09-.97.86-2.23,1.41-.4.18-.82.36-1.18.18-.67-.33-.78-1.82-.32-2.11.33-.2,1.1.61,1.72.46.07-.02.18-.05.18-.06,0-.02-.34.12-.57,0-.16-.08-.17-.24-.27-.49-.27-.67-.7-.76-.63-1.1.04-.2.18-.46.4-.54.72-.27,1.48,1.4,3.2,1.64.16.02.59.08.66-.07.21-.44-2.65-2.07-2.37-2.84.03-.09.23-.52.64-.77.07-.04.62-.37.96-.15.15.09.21.26.27.53.16.71.13,1.26.13,1.47Z"/>
      </g>
      <g>
        <path class="bu" d="M227.5,699.1c-.37.2-3.04,1.55-5.9.28-2.08-.92-2.99-2.67-3.24-3.15-.28-.56-.99-2.01-.69-3.85.4-2.44,2.28-3.8,2.95-4.29.55-.4,2.92-2.02,6.03-1.47.83.15,3.3.58,4.5,2.69,1.3,2.29.16,4.88-.31,5.95-.36.81-1.2,2.72-3.34,3.85Z"/>
        <path class="cq" d="M224.24,691.69s-.22-1.55,0-3.39c.14-1.14.34-1.42.51-1.59.77-.75,2.55-.62,3.08.17.97,1.44-2.22,5.12-2.05,5.24.09.06.87-.87,2.19-2.44,1.24-1.48,1.45-1.74,1.81-1.74,1.15-.02,2.59,2.48,1.92,3.68-.27.48-1.13.73-2.84,1.21-1.2.34-2.18.53-2.17.6.02.16,4.1-.88,4.72.29.29.56-.21,1.58-.91,1.91-.19.09-.56.21-2.35-.4-1.35-.46-2.21-.89-2.24-.84-.03.05.84.6,1.91,1.17,1.66.88,2.19.95,2.26,1.36.11.65-1,1.71-2.01,1.63-1.45-.11-2.27-2.51-2.61-2.36-.35.16.94,2.58.04,3.59-.62.69-2.18.67-2.7-.01-.28-.38-.16-.97.1-2.15.31-1.41.72-2.35.68-2.37-.05-.02-.86,1.17-1.4,2.94-.2.65-.27,1.06-.6,1.19-.5.2-1.16-.4-1.74-.92-.7-.63-1.74-1.56-1.5-2.24.14-.38.58-.37,1.75-.85,1.43-.58,2.46-1.27,2.43-1.34-.03-.06-1,.32-2.88.9-1.02.32-1.29.38-1.57.24-.89-.44-1.03-2.43-.42-2.81.41-.25.88.4,2.3.61.98.15,1.85,0,1.86-.1,0-.12-1.14-.36-2.03-.48-.36-.05-.5-.05-.72-.16-.5-.26-.96-.89-.84-1.47.06-.28.27-.58.54-.72,1.3-.66,4.14,2.37,4.27,2.24.12-.12-2.78-2.38-2.29-3.93.12-.38.46-.78.86-1.02.09-.06.82-.49,1.28-.2.28.18.34.55.36.71.29,1.82.95,3.84.98,3.84Z"/>
      </g>
      <g>
        <path class="bu" d="M206.36,701.63c-.34-.25-2.75-2.03-2.89-5.15-.11-2.27,1.05-3.87,1.37-4.31.37-.5,1.36-1.79,3.13-2.34,2.36-.74,4.42.33,5.15.71.6.31,3.12,1.7,4.02,4.73.24.8.96,3.21-.39,5.23-1.46,2.19-4.29,2.33-5.46,2.39-.88.04-2.97.15-4.93-1.26Z"/>
        <path class="cq" d="M211.52,695.4s1.29-.89,3.04-1.51c1.08-.38,1.42-.33,1.65-.25,1.01.36,1.7,2,1.23,2.82-.86,1.51-5.58.31-5.6.51-.01.1,1.17.39,3.16.86,1.88.45,2.2.52,2.37.84.53,1.02-1.06,3.43-2.43,3.37-.55-.03-1.16-.68-2.35-1.99-.84-.92-1.45-1.71-1.51-1.67-.13.09,2.63,3.27,1.86,4.35-.37.51-1.51.52-2.12.05-.17-.13-.44-.41-.69-2.29-.19-1.42-.19-2.38-.25-2.38-.06,0-.16,1.02-.19,2.23-.04,1.88.14,2.38-.2,2.63-.53.39-1.98-.13-2.36-1.07-.55-1.34,1.22-3.15.93-3.39-.3-.25-1.88,2-3.19,1.64-.9-.25-1.58-1.65-1.2-2.42.21-.42.8-.58,1.97-.87,1.4-.35,2.43-.41,2.42-.45,0-.05-1.43-.24-3.25.06-.68.11-1.07.24-1.34,0-.4-.36-.17-1.21.04-1.96.25-.9.62-2.26,1.33-2.34.4-.05.59.35,1.55,1.19,1.16,1.02,2.24,1.63,2.29,1.57.04-.05-.73-.75-2.1-2.17-.74-.77-.92-.98-.92-1.3,0-.99,1.71-2.01,2.32-1.64.41.25.03.97.48,2.33.31.94.83,1.65.92,1.61.11-.05-.19-1.18-.48-2.02-.12-.34-.18-.47-.18-.71,0-.57.36-1.26.94-1.41.28-.07.64-.02.88.16,1.17.86-.26,4.77-.09,4.82.16.05.88-3.55,2.49-3.81.39-.06.9.06,1.3.31.09.06.81.52.75,1.06-.03.33-.34.55-.47.64-1.5,1.07-3.01,2.57-2.99,2.59Z"/>
      </g>
      <g>
        <path class="ac" d="M237.44,689.91c-.34-.25-2.75-2.03-2.89-5.15-.11-2.27,1.05-3.87,1.37-4.31.37-.5,1.36-1.79,3.13-2.34,2.36-.74,4.42.33,5.15.71.6.31,3.12,1.7,4.02,4.73.24.8.96,3.21-.39,5.23-1.46,2.19-4.29,2.33-5.46,2.39-.88.04-2.97.15-4.93-1.26Z"/>
        <path class="cq" d="M242.57,683.25c.24-.05.63-.24,1.42-2.1.61-1.44.62-1.88.95-1.96.47-.11,1,.61,1.88,1.78.62.83.93,1.24.89,1.56-.16,1.41-4.14,2.06-4.09,2.23.02.1,1.18-.29,2.62-.05.73.13,1.75.3,2.17,1.12.5.96-.21,2.12-.29,2.26-1.45-.73-1.99-.92-2.04-.83-.06.09.38.5,1.76,1.51-.85,1.49-1.63,1.54-1.83,1.54-.27,0-.65-.12-2.35-1.99-.84-.92-1.45-1.71-1.51-1.67-.13.09,2.63,3.27,1.86,4.35-.37.51-1.51.52-2.12.05-.17-.13-.44-.41-.69-2.29-.19-1.42-.19-2.38-.25-2.38-.06,0-.16,1.02-.19,2.23-.04,1.88.14,2.38-.2,2.63-.53.39-1.98-.13-2.36-1.07-.56-1.37.91-3.4.93-3.39.02.01-.58,2.35-1.71,2.55-1.28.23-3.2-2.25-2.68-3.33.19-.4.79-.56,1.97-.87,1.21-.32,2.42-.48,2.42-.45,0,.03-1.65.26-3.29.31-.7.02-1.06,0-1.3-.25-.39-.42-.18-1.17.04-1.96.25-.9.62-2.26,1.33-2.34.4-.05.59.35,1.55,1.19,1.16,1.02,2.24,1.63,2.29,1.57.04-.05-.73-.75-2.1-2.17-.65-.67-.93-.91-.92-1.3.02-.66.84-1.35,1.45-1.24.29.05.46.27,1.35,1.93.6,1.11.86,1.64.92,1.61.05-.02-.03-.37-.48-2.02-.36-1.31-.49-1.77-.25-2,.16-.15.44-.14,1-.12.49.02.73.03.88.16.35.3.11,1.01-.06,1.95-.4,2.27-.2,2.67-.03,2.87.25.29.69.45,1.05.37Z"/>
      </g>
      <g>
        <path class="bu" d="M264.92,704c-.37.2-3.04,1.55-5.9.28-2.08-.92-2.99-2.67-3.24-3.15-.28-.56-.99-2.01-.69-3.85.4-2.44,2.28-3.8,2.95-4.29.55-.4,2.92-2.02,6.03-1.47.83.15,3.3.58,4.5,2.69,1.3,2.29.16,4.88-.31,5.95-.36.81-1.2,2.72-3.34,3.85Z"/>
        <path class="cq" d="M260.87,694.71c.02,1.49,1.43,2.84,1.74,2.7.5-.22-1.87-4.4-.41-5.8.78-.75,2.53-.62,3.08.17.9,1.3-1.48,4.38-1.29,4.48.09.05.58-.65,1.43-1.69.95-1.15,1.43-1.74,1.81-1.74,1.22-.02,2.55,3.11,1.92,3.68-.39.36-1.21-.59-2.71-.39-1.25.16-2.45,1.05-2.36,1.6.07.43.92.68,1.45.74.74.08.96-.23,1.91-.23.58,0,1.19,0,1.42.38.31.5-.15,1.56-.91,1.91-.19.09-.56.21-2.35-.4-1.35-.46-2.21-.89-2.24-.84-.03.05.84.6,1.91,1.17,1.66.88,2.19.95,2.26,1.36.12.72-1.2,1.88-2.01,1.63-.79-.24-.52-1.65-1.87-3.15-.43-.48-1.21-1.18-1.49-1-.6.37,1.94,4.07.79,5.39-.66.75-2.41.58-2.7-.01-.17-.35.27-.64.65-1.69.43-1.19.55-2.65.14-2.83-.24-.11-.66.23-.89.53-.46.61-.19,1.13-.52,2.4-.17.66-.28,1.07-.6,1.19-.5.2-1.16-.4-1.74-.92-.7-.63-1.74-1.56-1.5-2.24.15-.42.67-.47,1.75-.85,1.6-.56,3.33-1.16,3.31-1.72-.01-.26-.41-.54-.79-.59-.92-.12-1.29,1.14-2.97,1.87-.53.23-1.09.48-1.57.24-.89-.44-1.03-2.43-.42-2.81.44-.27,1.47.81,2.3.61.09-.02.24-.07.23-.09,0-.02-.45.16-.76,0-.21-.11-.23-.32-.36-.65-.36-.9-.94-1.02-.84-1.47.06-.27.24-.61.54-.72.96-.36,1.98,1.86,4.26,2.19.22.03.78.11.88-.1.28-.58-3.53-2.76-3.16-3.78.04-.12.31-.69.86-1.02.09-.06.82-.49,1.28-.2.2.13.28.35.36.71.21.95.17,1.69.18,1.96Z"/>
      </g>
      <g>
        <path class="bu" d="M290.95,693.7c-.34-.25-2.75-2.03-2.89-5.15-.11-2.27,1.05-3.87,1.37-4.31.37-.5,1.36-1.79,3.13-2.34,2.36-.74,4.42.33,5.15.71.6.31,3.12,1.7,4.02,4.73.24.8.96,3.21-.39,5.23-1.46,2.19-4.29,2.33-5.46,2.39-.88.04-2.97.15-4.93-1.26Z"/>
        <path class="cq" d="M296.08,687.04c.24-.05.63-.24,1.42-2.1.61-1.44.62-1.88.95-1.96.47-.11,1,.61,1.88,1.78.62.83.93,1.24.89,1.56-.16,1.41-4.14,2.06-4.09,2.23.02.1,1.18-.29,2.62-.05.73.13,1.75.3,2.17,1.12.5.96-.21,2.12-.29,2.26-1.45-.73-1.99-.92-2.04-.83-.06.09.38.5,1.76,1.51-.85,1.49-1.63,1.54-1.83,1.54-.27,0-.65-.12-2.35-1.99-.84-.92-1.45-1.71-1.51-1.67-.13.09,2.63,3.27,1.86,4.35-.37.51-1.51.52-2.12.05-.17-.13-.44-.41-.69-2.29-.19-1.42-.19-2.38-.25-2.38-.06,0-.16,1.02-.19,2.23-.04,1.88.14,2.38-.2,2.63-.53.39-1.98-.13-2.36-1.07-.56-1.37.91-3.4.93-3.39.02.01-.58,2.35-1.71,2.55-1.28.23-3.2-2.25-2.68-3.33.19-.4.79-.56,1.97-.87,1.21-.32,2.42-.48,2.42-.45,0,.03-1.65.26-3.29.31-.7.02-1.06,0-1.3-.25-.39-.42-.18-1.17.04-1.96.25-.9.62-2.26,1.33-2.34.4-.05.59.35,1.55,1.19,1.16,1.02,2.24,1.63,2.29,1.57.04-.05-.73-.75-2.1-2.17-.65-.67-.93-.91-.92-1.3.02-.66.84-1.35,1.45-1.24.29.05.46.27,1.35,1.93.6,1.11.86,1.64.92,1.61.05-.02-.03-.37-.48-2.02-.36-1.31-.49-1.77-.25-2,.16-.15.44-.14,1-.12.49.02.73.03.88.16.35.3.11,1.01-.06,1.95-.4,2.27-.2,2.67-.03,2.87.25.29.69.45,1.05.37Z"/>
      </g>
      <g>
        <path class="ac" d="M276.12,710.16c-.37.2-3.04,1.55-5.9.28-2.08-.92-2.99-2.67-3.24-3.15-.28-.56-.99-2.01-.69-3.85.4-2.44,2.28-3.8,2.95-4.29.55-.4,2.92-2.02,6.03-1.47.83.15,3.3.58,4.5,2.69,1.3,2.29.16,4.88-.31,5.95-.36.81-1.2,2.72-3.34,3.85Z"/>
        <path class="cq" d="M272.06,700.87c.02,1.49,1.43,2.84,1.74,2.7.5-.22-1.87-4.4-.41-5.8.78-.75,2.53-.62,3.08.17.9,1.3-1.48,4.38-1.29,4.48.09.05.58-.65,1.43-1.69.95-1.15,1.43-1.74,1.81-1.74,1.22-.02,2.55,3.11,1.92,3.68-.39.36-1.21-.59-2.71-.39-1.25.16-2.45,1.05-2.36,1.6.07.43.92.68,1.45.74.74.08.96-.23,1.91-.23.58,0,1.19,0,1.42.38.31.5-.15,1.56-.91,1.91-.19.09-.56.21-2.35-.4-1.35-.46-2.21-.89-2.24-.84-.03.05.84.6,1.91,1.17,1.66.88,2.19.95,2.26,1.36.12.72-1.2,1.88-2.01,1.63-.79-.24-.52-1.65-1.87-3.15-.43-.48-1.21-1.18-1.49-1-.6.37,1.94,4.07.79,5.39-.66.75-2.41.58-2.7-.01-.17-.35.27-.64.65-1.69.43-1.19.55-2.65.14-2.83-.24-.11-.66.23-.89.53-.46.61-.19,1.13-.52,2.4-.17.66-.28,1.07-.6,1.19-.5.2-1.16-.4-1.74-.92-.7-.63-1.74-1.56-1.5-2.24.15-.42.67-.47,1.75-.85,1.6-.56,3.33-1.16,3.31-1.72-.01-.26-.41-.54-.79-.59-.92-.12-1.29,1.14-2.97,1.87-.53.23-1.09.48-1.57.24-.89-.44-1.03-2.43-.42-2.81.44-.27,1.47.81,2.3.61.09-.02.24-.07.23-.09,0-.02-.45.16-.76,0-.21-.11-.23-.32-.36-.65-.36-.9-.94-1.02-.84-1.47.06-.27.24-.61.54-.72.96-.36,1.98,1.86,4.26,2.19.22.03.78.11.88-.1.28-.58-3.53-2.76-3.16-3.78.04-.12.31-.69.86-1.02.09-.06.82-.49,1.28-.2.2.13.28.35.36.71.21.95.17,1.69.18,1.96Z"/>
      </g>
      <g>
        <path class="bu" d="M239.97,716.94c-.34-.25-2.75-2.03-2.89-5.15-.11-2.27,1.05-3.87,1.37-4.31.37-.5,1.36-1.79,3.13-2.34,2.36-.74,4.42.33,5.15.71.6.31,3.12,1.7,4.02,4.73.24.8.96,3.21-.39,5.23-1.46,2.19-4.29,2.33-5.46,2.39-.88.04-2.97.15-4.93-1.26Z"/>
        <path class="cq" d="M245.12,710.71s1.29-.89,3.04-1.51c1.08-.38,1.42-.33,1.65-.25,1.01.36,1.7,2,1.23,2.82-.86,1.51-5.58.31-5.6.51-.01.1,1.17.39,3.16.86,1.88.45,2.2.52,2.37.84.53,1.02-1.06,3.43-2.43,3.37-.55-.03-1.16-.68-2.35-1.99-.84-.92-1.45-1.71-1.51-1.67-.13.09,2.63,3.27,1.86,4.35-.37.51-1.51.52-2.12.05-.17-.13-.44-.41-.69-2.29-.19-1.42-.19-2.38-.25-2.38-.06,0-.16,1.02-.19,2.23-.04,1.88.14,2.38-.2,2.63-.53.39-1.98-.13-2.36-1.07-.55-1.34,1.22-3.15.93-3.39-.3-.25-1.88,2-3.19,1.64-.9-.25-1.58-1.65-1.2-2.42.21-.42.8-.58,1.97-.87,1.4-.35,2.43-.41,2.42-.45,0-.05-1.43-.24-3.25.06-.68.11-1.07.24-1.34,0-.4-.36-.17-1.21.04-1.96.25-.9.62-2.26,1.33-2.34.4-.05.59.35,1.55,1.19,1.16,1.02,2.24,1.63,2.29,1.57.04-.05-.73-.75-2.1-2.17-.74-.77-.92-.98-.92-1.3,0-.99,1.71-2.01,2.32-1.64.41.25.03.97.48,2.33.31.94.83,1.65.92,1.61.11-.05-.19-1.18-.48-2.02-.12-.34-.18-.47-.18-.71,0-.57.36-1.26.94-1.41.28-.07.64-.02.88.16,1.17.86-.26,4.77-.09,4.82.16.05.88-3.55,2.49-3.81.39-.06.9.06,1.3.31.09.06.81.52.75,1.06-.03.33-.34.55-.47.64-1.5,1.07-3.01,2.57-2.99,2.59Z"/>
      </g>
      <g>
        <path class="bu" d="M291.17,710.03c-.37.2-3.04,1.55-5.9.28-2.08-.92-2.99-2.67-3.24-3.15-.28-.56-.99-2.01-.69-3.85.4-2.44,2.28-3.8,2.95-4.29.55-.4,2.92-2.02,6.03-1.47.83.15,3.3.58,4.5,2.69,1.3,2.29.16,4.88-.31,5.95-.36.81-1.2,2.72-3.34,3.85Z"/>
        <path class="cq" d="M287.11,700.74c.02,1.49,1.43,2.84,1.74,2.7.5-.22-1.87-4.4-.41-5.8.78-.75,2.53-.62,3.08.17.9,1.3-1.48,4.38-1.29,4.48.09.05.58-.65,1.43-1.69.95-1.15,1.43-1.74,1.81-1.74,1.22-.02,2.55,3.11,1.92,3.68-.39.36-1.21-.59-2.71-.39-1.25.16-2.45,1.05-2.36,1.6.07.43.92.68,1.45.74.74.08.96-.23,1.91-.23.58,0,1.19,0,1.42.38.31.5-.15,1.56-.91,1.91-.19.09-.56.21-2.35-.4-1.35-.46-2.21-.89-2.24-.84-.03.05.84.6,1.91,1.17,1.66.88,2.19.95,2.26,1.36.12.72-1.2,1.88-2.01,1.63-.79-.24-.52-1.65-1.87-3.15-.43-.48-1.21-1.18-1.49-1-.6.37,1.94,4.07.79,5.39-.66.75-2.41.58-2.7-.01-.17-.35.27-.64.65-1.69.43-1.19.55-2.65.14-2.83-.24-.11-.66.23-.89.53-.46.61-.19,1.13-.52,2.4-.17.66-.28,1.07-.6,1.19-.5.2-1.16-.4-1.74-.92-.7-.63-1.74-1.56-1.5-2.24.15-.42.67-.47,1.75-.85,1.6-.56,3.33-1.16,3.31-1.72-.01-.26-.41-.54-.79-.59-.92-.12-1.29,1.14-2.97,1.87-.53.23-1.09.48-1.57.24-.89-.44-1.03-2.43-.42-2.81.44-.27,1.47.81,2.3.61.09-.02.24-.07.23-.09,0-.02-.45.16-.76,0-.21-.11-.23-.32-.36-.65-.36-.9-.94-1.02-.84-1.47.06-.27.24-.61.54-.72.96-.36,1.98,1.86,4.26,2.19.22.03.78.11.88-.1.28-.58-3.53-2.76-3.16-3.78.04-.12.31-.69.86-1.02.09-.06.82-.49,1.28-.2.2.13.28.35.36.71.21.95.17,1.69.18,1.96Z"/>
      </g>
      <g>
        <path class="bu" d="M200.82,687.58c-.28.15-2.28,1.16-4.43.21-1.56-.69-2.25-2-2.43-2.37-.21-.42-.74-1.51-.52-2.89.3-1.83,1.71-2.85,2.21-3.22.41-.3,2.19-1.52,4.53-1.11.62.11,2.48.44,3.38,2.02.98,1.71.12,3.66-.23,4.47-.27.61-.9,2.04-2.51,2.89Z"/>
        <path class="cq" d="M198.37,682.02s-.16-1.16,0-2.55c.11-.85.26-1.07.39-1.19.58-.56,1.91-.47,2.31.12.73,1.08-1.67,3.84-1.54,3.93.06.04.65-.65,1.64-1.83.93-1.11,1.09-1.3,1.36-1.31.87-.01,1.95,1.86,1.44,2.76-.2.36-.85.55-2.13.91-.9.25-1.64.4-1.63.45.02.12,3.08-.66,3.54.22.22.42-.16,1.19-.68,1.44-.14.07-.42.16-1.77-.3-1.01-.35-1.66-.67-1.68-.63-.02.04.63.45,1.43.88,1.25.66,1.64.71,1.7,1.02.08.49-.75,1.28-1.51,1.22-1.09-.08-1.7-1.88-1.96-1.77-.27.12.71,1.94.03,2.69-.47.52-1.64.5-2.02,0-.21-.28-.12-.73.08-1.62.24-1.05.54-1.77.51-1.78-.03-.01-.64.88-1.05,2.2-.15.49-.2.8-.45.9-.37.15-.87-.3-1.3-.69-.52-.47-1.31-1.17-1.12-1.68.1-.29.43-.28,1.32-.64,1.08-.43,1.85-.95,1.82-1-.02-.04-.75.24-2.16.68-.77.24-.97.29-1.18.18-.67-.33-.78-1.82-.32-2.11.31-.19.66.3,1.72.46.73.11,1.39,0,1.39-.08,0-.09-.85-.27-1.52-.36-.27-.04-.38-.04-.54-.12-.38-.19-.72-.66-.63-1.1.05-.21.2-.44.4-.54.97-.5,3.11,1.78,3.2,1.68.09-.09-2.08-1.79-1.72-2.95.09-.28.34-.59.64-.77.07-.04.62-.37.96-.15.21.13.25.41.27.53.22,1.37.71,2.88.73,2.88Z"/>
      </g>
      <g>
        <path class="bu" d="M203.9,666.68c-.28.15-2.28,1.16-4.43.21-1.56-.69-2.25-2-2.43-2.37-.21-.42-.74-1.51-.52-2.89.3-1.83,1.71-2.85,2.21-3.22.41-.3,2.19-1.52,4.53-1.11.62.11,2.48.44,3.38,2.02.98,1.71.12,3.66-.23,4.47-.27.61-.9,2.04-2.51,2.89Z"/>
        <path class="cq" d="M201.45,661.12s-.16-1.16,0-2.55c.11-.85.26-1.07.39-1.19.58-.56,1.91-.47,2.31.12.73,1.08-1.67,3.84-1.54,3.93.06.04.65-.65,1.64-1.83.93-1.11,1.09-1.3,1.36-1.31.87-.01,1.95,1.86,1.44,2.76-.2.36-.85.55-2.13.91-.9.25-1.64.4-1.63.45.02.12,3.08-.66,3.54.22.22.42-.16,1.19-.68,1.44-.14.07-.42.16-1.77-.3-1.01-.35-1.66-.67-1.68-.63-.02.04.63.45,1.43.88,1.25.66,1.64.71,1.7,1.02.08.49-.75,1.28-1.51,1.22-1.09-.08-1.7-1.88-1.96-1.77-.27.12.71,1.94.03,2.69-.47.52-1.64.5-2.02,0-.21-.28-.12-.73.08-1.62.24-1.05.54-1.77.51-1.78-.03-.01-.64.88-1.05,2.2-.15.49-.2.8-.45.9-.37.15-.87-.3-1.3-.69-.52-.47-1.31-1.17-1.12-1.68.1-.29.43-.28,1.32-.64,1.08-.43,1.85-.95,1.82-1-.02-.04-.75.24-2.16.68-.77.24-.97.29-1.18.18-.67-.33-.78-1.82-.32-2.11.31-.19.66.3,1.72.46.73.11,1.39,0,1.39-.08,0-.09-.85-.27-1.52-.36-.27-.04-.38-.04-.54-.12-.38-.19-.72-.66-.63-1.1.05-.21.2-.44.4-.54.97-.5,3.11,1.78,3.2,1.68.09-.09-2.08-1.79-1.72-2.95.09-.28.34-.59.64-.77.07-.04.62-.37.96-.15.21.13.25.41.27.53.22,1.37.71,2.88.73,2.88Z"/>
      </g>
    </g>
    <g id="u" data-name="Layer 40 copy">
      <path class="ax" d="M548.81,541.57l-.28.24c.12.11.24.21.36.32l-.07-.56Z"/>
      <path class="ax" d="M704.47,745.12l.84.15-.16-.81c-.23.22-.45.44-.68.66Z"/>
      <polygon class="aj" points="591.41 613.33 584.12 546.58 558.99 622.17 572.75 634.93 572.75 634.93 591.41 613.33"/>
      <polygon class="da" points="558.99 622.17 558.99 622.17 533.19 598.24 533.33 598.56 532.49 663.97 572.75 634.93 558.99 622.17 558.99 622.17"/>
      <polygon class="cz" points="628.85 618.01 628.5 617.97 593.78 654.43 604.13 700.21 638.76 658.83 628.85 618.01"/>
      <polygon class="ch" points="628.85 618.01 628.83 617.63 628.5 617.97 628.85 618.01 628.85 618.01"/>
      <polygon class="bw" points="591.41 613.33 572.75 634.93 572.75 634.93 593.78 654.43 628.5 617.97 591.41 613.33"/>
      <path class="bs" d="M604.13,700.21l95.13,15.13,30.69-46.46c-3.4-1.54-6.8-3.09-10.2-4.63-.06-.19-.13-.39-.19-.58l-80.8-4.84-34.63,41.38Z"/>
      <path class="cr" d="M533.41,742.92c-4.7,2.81-9.4,5.63-14.1,8.44,4.83.12,9.66.25,14.5.37l2.24-9.86c-.88.35-1.75.7-2.63,1.05Z"/>
      <path class="bx" d="M739.26,710.34c-3.07-13.8-6.13-27.6-9.2-41.4-.04-.02-.07-.03-.11-.05l-30.69,46.46,40-5.01Z"/>
      <path class="bd" d="M622.34,740.12c-7.41,2.59-11,4.53-10.79,5.82.3,1.8,7.96,2.36,22.96,1.67h42.15c9.05-.62,18.11-1.25,27.16-1.87.21-.21.42-.41.64-.62l-64.33-11.56c-5.93,2.19-11.86,4.37-17.8,6.56Z"/>
      <path class="aq" d="M705.14,744.46c11.43-11.13,22.85-22.25,34.28-33.38-.06-.25-.11-.5-.17-.75l-40,5.01,5.88,29.12Z"/>
      <path class="br" d="M536.04,741.87l-2.24,9.86c7.34.19,14.69.38,22.03.56,3.46-1.48,6.92-2.97,10.38-4.45l-17.11-11.18c-4.35,1.74-8.71,3.47-13.06,5.21Z"/>
      <path class="dg" d="M556.78,701.72c-1.89,8.26-3.78,16.52-5.67,24.78-.59,3.36-1.19,6.72-1.78,10.07-.07.03-.15.06-.22.09l17.11,11.18,2.45-1.05c1.34-2.85,2.69-5.7,4.03-8.55,3.69-6.46,7.39-12.93,11.08-19.39l-31.99-23.55c1.66,2.14,3.32,4.27,4.99,6.41Z"/>
      <path class="ca" d="M533.33,598.56l-21.69,15.23c1.23,1.26,2.44,2.48,3.63,3.64,1.03,1.87,2.07,3.74,3.1,5.61,1.87,8.12,3.75,16.24,5.62,24.35,2.58,5.71,5.16,11.42,7.74,17.13l.76-.55.84-65.42Z"/>
      <path class="av" d="M533.19,598.24l-22.67-21.02h-27.17c3.7,6.12,8.15,12.74,13.48,19.59,5.02,6.45,10.04,12.08,14.81,16.97l21.69-15.23-.14-.31Z"/>
      <path class="y" d="M593.78,654.43l-21.03-19.5-40.26,29.04-.03,2.18c1.55,3.43,3.09,6.85,4.64,10.28,4.1,5.27,8.2,10.54,12.29,15.81l54.73,7.97-10.35-45.78Z"/>
      <path class="bm" d="M699.26,715.34l-95.13-15.13,36.01,33.36,64.33,11.56c.23-.22.45-.44.68-.66l-5.88-29.12Z"/>
      <path class="ba" d="M489.01,547.04c-2.7,6.6-5.4,13.2-8.1,19.8.39,2.75.78,5.5,1.17,8.25.41.7.84,1.41,1.27,2.13h27.17l-21.51-30.18Z"/>
      <path class="bp" d="M549.4,692.24c.8,1.02,1.59,2.05,2.39,3.07l31.99,23.55c.05-.09.11-.19.16-.28,5.93,2.81,11.86,5.62,17.8,8.43,12.8,2.19,25.6,4.37,38.4,6.56l-36.01-33.36-54.73-7.97Z"/>
      <path class="ch" d="M531.73,664.52c.24.54.49,1.08.73,1.63l.03-2.18-.76.55Z"/>
      <path class="ct" d="M533.19,598.24l-25.93-56.41c-.35.22-.71.44-1.06.66-5.62,1.25-11.24,2.5-16.86,3.75-.11.27-.22.54-.33.81l21.51,30.18,22.67,21.02Z"/>
      <path class="ai" d="M591.41,613.33l37.1,4.64.33-.34-2.42-47.07c-.73-.3-1.46-.6-2.19-.9-13.11-8.43-26.23-16.86-39.34-25.29,0,0,0,0-.01,0l-.74,2.22,7.28,66.75Z"/>
      <path class="ap" d="M660.39,584.49c-11.33-4.65-22.65-9.29-33.98-13.94l2.42,47.07,31.56-33.13Z"/>
      <path class="ch" d="M584.86,544.36c-.33-.02-.66-.03-.98-.05l.25,2.27.74-2.22Z"/>
      <path class="cf" d="M558.99,622.17l-10.1-80.04c-.12-.11-.24-.21-.36-.32l-29.71,25.16,29.71-25.16c-2.87-2.58-5.74-5.17-8.61-7.75-5.55-.74-11.11-1.48-16.66-2.22-5.33,3.33-10.67,6.66-16,9.99l25.93,56.41,25.8,23.92Z"/>
      <path class="bv" d="M558.99,622.17l25.14-75.59-.25-2.27c-11.53-.61-23.06-1.21-34.6-1.82-.13-.12-.27-.24-.4-.36l10.1,80.04h0Z"/>
      <path class="bp" d="M691.65,621.17c-10.3-12.18-20.61-24.35-30.91-36.53-.12-.05-.24-.1-.36-.15l-31.48,33.05,65.8,7.4c-1.02-1.26-2.03-2.52-3.05-3.78Z"/>
      <path class="as" d="M715.07,650.2c-6.79-8.42-13.58-16.84-20.37-25.26l-65.8-7.4-.08.08.02.39,67.02,8.39-67.02-8.39,9.91,40.82,80.8,4.84c-1.5-4.49-2.99-8.98-4.49-13.47Z"/>
    </g>
    <g id="v" data-name="Layer 41 copy">
      <g>
        <path class="af" d="M1649.3,609.83l33.64,2.65c-.05-.07-.1-.14-.15-.22-9.92-8.35-19.84-16.71-29.76-25.06-.08-.18-.17-.36-.25-.54l-43.94,19.99,40.47,3.19Z"/>
        <polygon class="al" points="1626.43 565.49 1610.17 554.85 1612.56 572.89 1612.56 572.89 1626.43 565.49"/>
        <path class="de" d="M1626.75,565.7l-.32-.21-13.87,7.4,33.4-.84c-2.12-4.53-4.23-9.07-6.35-13.6l-13.18,7.03.32.21Z"/>
        <polygon class="bn" points="1608.83 606.65 1637.89 648.28 1649.3 609.83 1608.83 606.65"/>
        <path class="au" d="M1638.93,731.71c-9.66,2.22-19.32,4.44-28.98,6.66,21.41.26,42.82.52,64.22.78-9.14-2.35-18.28-4.7-27.41-7.05,2.22-6,4.44-12.01,6.66-18.01.12-.04.24-.07.36-.11l-9.43-3.18c-1.81,6.97-3.61,13.94-5.42,20.91Z"/>
        <path class="di" d="M1665.78,669.02l12.68,2.96h0s0,0,0,0l45.95,10.74c2.18-.51,4.36-1.03,6.54-1.54l-81.65-71.35,16.47,59.19Z"/>
        <polygon class="cl" points="1637.89 648.28 1665.78 669.02 1649.3 609.83 1637.89 648.28"/>
        <path class="am" d="M1730.95,681.19c-8.96-12.77-17.91-25.55-26.87-38.32-7.05-10.13-14.1-20.26-21.15-30.38l-33.64-2.65,81.65,71.35Z"/>
        <path class="bq" d="M1623.34,544.2s-.05-.05-.08-.07c-4.96-1.17-9.92-2.35-14.88-3.52-8.81,2.55-17.61,5.11-26.42,7.66l28.21,6.59,13.18-10.66Z"/>
        <path class="bc" d="M1626.43,565.49l13.18-7.03c-.1-.21-.19-.42-.29-.62-5.32-4.55-10.65-9.09-15.97-13.64l-13.18,10.66,16.26,10.64Z"/>
        <path class="cn" d="M1576.76,662.24c7.32,9.34,14.64,18.67,21.95,28.01l10.61-25.53-32.56-2.48Z"/>
        <g>
          <path class="bh" d="M1608.83,606.65l-39.34,25.94c2.26,9.67,4.52,19.35,6.78,29.02.16.21.33.42.49.63l32.56,2.48,14.82-35.66-14.82,35.66.48.04,16.21-33.49-17.19-24.62Z"/>
          <polygon class="aw" points="1637.89 648.28 1626.02 631.27 1609.81 664.76 1665.78 669.02 1637.89 648.28"/>
        </g>
        <path class="ck" d="M1573.43,603.15c.03.17.07.33.1.5-1.44,9.27-2.87,18.54-4.31,27.8.09.38.18.76.26,1.13l39.34-25.94-35.4-3.5Z"/>
        <path class="bk" d="M1568.05,568.21l-.64.96-19.52,5.34,29.89-.75-9.72-5.55Z"/>
        <path class="cv" d="M1612.56,572.89l-2.39-18.04-28.21-6.59c-.2.06-.4.12-.6.17-4.44,6.59-8.87,13.19-13.31,19.78l9.72,5.55,34.78-.87Z"/>
        <path class="cu" d="M1577.77,573.76l-29.89.75c-.2.05-.4.11-.59.16,7,1.03,14,2.06,21,3.09h0s9.48-4,9.48-4h0Z"/>
        <path class="co" d="M1577.77,573.76l-9.48,4.01c1.71,8.46,3.42,16.92,5.13,25.38l35.4,3.5-31.06-32.89Z"/>
        <g>
          <polygon points="1612.56 572.89 1637.89 593.43 1612.56 572.89 1577.77 573.76 1608.83 606.65 1637.94 593.41 1616.31 572.8 1612.56 572.89"/>
          <path d="M1645.96,572.06l-29.65.74,21.63,20.61,14.83-6.75c-2.27-4.87-4.54-9.74-6.81-14.6Z"/>
        </g>
        <g>
          <polygon class="z" points="1713.59 700.09 1687.59 676.59 1685.56 677.67 1713.59 700.09"/>
          <polygon class="z" points="1690.84 674.88 1683.89 673.26 1687.59 676.59 1690.84 674.88"/>
          <polygon class="z" points="1687.59 676.59 1683.89 673.26 1678.46 671.99 1685.56 677.67 1687.59 676.59"/>
          <path class="db" d="M1685.56,677.67l-56.36,29.77c1.97.4,3.94.81,5.91,1.21l66.24-18.35-66.24,18.35c3.1.64,6.2,1.27,9.3,1.91-.02.08-.04.16-.06.24l9.43,3.18c12.28-3.75,24.56-7.5,36.84-11.25,8.2-.39,16.4-.78,24.59-1.17l-1.62-1.46-28.03-22.43Z"/>
          <path class="z" d="M1678.46,671.99l-12.68-2.96-56.45-4.3-10.61,25.53c.09.11.18.23.27.34,10.05,5.61,20.1,11.23,30.15,16.84.02,0,.04,0,.06.01l56.36-29.77-7.1-5.68Z"/>
          <path class="dk" d="M1748.97,727.01c.86.31,1.73.62,2.59.92,10.1-.83,20.2-1.66,30.31-2.49-19.19-14.23-38.38-28.46-57.57-42.69.04,0,.08-.02.12-.03l-33.58-7.85-3.25,1.72,26.01,23.5,4.02,3.22-4.02-3.22,1.62,1.46s.05,0,.08,0c11.23,8.48,22.45,16.97,33.68,25.45Z"/>
        </g>
      </g>
    </g>
    <g id="w" data-name="Layer 47">
      <path class="cg" d="M943.33,617.3l47.66-7.58c-14.74-12.27-29.49-24.54-44.23-36.8-.81-.34-1.61-.67-2.42-1.01h0s-1.01,45.39-1.01,45.39Z"/>
      <polygon class="ch" points="944.34 571.91 944.34 571.91 944.34 571.91 944.34 571.91"/>
      <path class="ch" d="M913.72,559.15c-.18-.3-.35-.6-.53-.91v1.27l.53-.37Z"/>
      <path class="cs" d="M913.19,595.3l31.15-23.39h0c-10.21-4.25-20.41-8.51-30.62-12.76l-.53.37v35.79Z"/>
      <polygon class="bi" points="899.75 605.39 899.75 605.39 890.81 574.95 875.67 622.17 905.04 623.39 899.75 605.39 899.75 605.39"/>
      <path class="by" d="M821.89,542.72l-.27.29c-9.11,4.48-15.6,7.94-19.5,10.08-1.26.69-3.09,1.71-2.93,2.6.04.23.23.43.51.6l37.79-5.78-15.59-7.78Z"/>
      <path class="ao" d="M942.74,643.9l101.64,16.24c-17.7-16.72-35.39-33.45-53.09-50.17-.1-.08-.2-.17-.3-.25l-47.66,7.58-.59,26.6Z"/>
      <polygon class="dh" points="913.19 595.3 913.19 559.51 890.81 574.95 899.75 605.39 913.19 595.3"/>
      <polygon class="cm" points="943.33 617.3 905.04 623.39 925.27 641.11 942.74 643.9 943.33 617.3"/>
      <path class="an" d="M942.69,646.03l.05-2.13-17.46-2.79,31.76,27.81,61.27,17.79-3.36-2.96,5.04,3.44,72.75,21.13c-8.13-8.52-16.27-17.03-24.4-25.55-7.98-7.55-15.97-15.09-23.95-22.64l-101.64-16.24-.05,2.13Z"/>
      <polygon class="an" points="1018.31 686.72 1019.98 687.21 1014.95 683.76 1018.31 686.72"/>
      <path class="cc" d="M890.81,574.95l-49.29,43.85c.05.19.09.39.14.58.26.47.53.94.79,1.41l33.22,1.38,15.14-47.22Z"/>
      <path class="bz" d="M962.41,711.2c2.33.52,4.66,1.04,6.99,1.57l-7.38-26.16h0l-4.99-17.68-43.65,31.28c12.14,2.72,24.28,5.44,36.42,8.16-.02.32-.03.64-.05.96l12.56,2.82.1-.95Z"/>
      <path class="ch" d="M949.75,709.33c-.83,15.35-1.66,30.7-2.49,46.06-9.04,2.81-18.07,5.63-27.11,8.44,10.22-.44,20.44-.89,30.67-1.33l20.89.44c-4.59-2.52-9.19-5.04-13.78-7.56,1.2-11.86,2.41-23.71,3.61-35.57l-.06.05.06-.05c.26-2.56.52-5.12.78-7.67l-12.56-2.82Z"/>
      <path class="ad" d="M957.04,668.92l4.99,17.68,33.66,4.91h0l33.66,4.91-33.66-4.91-25.77,21.36c1.71.38,3.41.76,5.12,1.15,26.53,1.79,53.06,3.59,79.59,5.38.58.26,1.16.53,1.74.79l-38.05-33.48-61.27-17.79Z"/>
      <path class="bb" d="M962.02,686.6l7.38,26.16c.17.04.34.08.51.11l25.77-21.36-33.66-4.91Z"/>
      <path class="dd" d="M1168.12,774.12c-20.59-18.2-41.17-36.41-61.76-54.61-4.22-3.39-8.44-6.78-12.67-10.17-.32-.34-.64-.67-.97-1.01l-72.75-21.13,72.28,49.41c22.58,14.56,45.16,29.12,67.73,43.69,4.01,1.08,8.02,2.17,12.03,3.25-1.3-3.14-2.6-6.28-3.9-9.43Z"/>
      <path class="bl" d="M1018.31,686.72l38.05,33.48c11.97,5.47,23.94,10.94,35.91,16.41l-72.28-49.41-1.68-.49Z"/>
      <path class="cx" d="M838.78,574.16c-1.27,5.38-2.53,10.76-3.8,16.14l55.83-15.35-52.04-.79Z"/>
      <path class="cp" d="M799.69,556.29c1.68,1.05,7.26,1.14,12.17,1.02l17.22,1.24,8.4-8.05-37.79,5.78Z"/>
      <path class="dc" d="M834.98,590.3c-.01.06-.03.11-.04.17,0,0,0,0,0,0,2.19,9.44,4.39,18.89,6.58,28.33l49.29-43.85-55.83,15.35Z"/>
      <polygon class="cy" points="875.67 622.17 863.92 658.83 863.92 658.83 905.04 623.39 875.67 622.17"/>
      <path class="ch" d="M842.45,620.78c7.15,12.68,14.31,25.36,21.46,38.05l11.76-36.66-33.22-1.38Z"/>
      <path class="dl" d="M925.27,641.11l-20.24-17.72-41.12,35.44c.28.49.55.98.83,1.46l83.85,1.23-23.32-20.42Z"/>
      <path class="ak" d="M864.74,660.29c.04.07.08.15.13.22l83.83,1.1-83.83-1.1c.15.27.3.54.45.81,15.77,12.91,31.55,25.81,47.32,38.72.25.06.49.11.74.17l43.65-31.28-8.45-7.4-83.85-1.23Z"/>
      <path class="ab" d="M895.13,528.65c-2.62-2.26-5.24-4.52-7.86-6.77-14.32-.53-28.63-1.05-42.95-1.58l41.65,24.72,9.16-16.36Z"/>
      <path class="cw" d="M844.33,520.3c-.42-.02-.84-.03-1.26-.05-.11.12-.23.24-.35.37l26.76,53.88,16.5-29.49-41.65-24.72Z"/>
      <g>
        <path class="ce" d="M842.72,520.62c-6.95,7.37-13.89,14.73-20.84,22.1l15.59,7.78-8.4,8.05c.54.04,1.08.08,1.62.12,2.71,5.07,5.42,10.15,8.14,15.22-.02.09-.04.18-.06.27l29.85.45-.33-2.5-25.57-51.49Z"/>
        <path class="cb" d="M896.7,530.01c-.52-.45-1.05-.9-1.57-1.35l-25.65,45.85-1.19-2.39.33,2.5,22.19.34,22.38-15.44v-1.27c-5.5-9.41-10.99-18.82-16.49-28.23Z"/>
      </g>
      <g>
        <polygon class="ch" points="943.33 617.3 944.34 571.91 913.19 595.3 913.19 597.17 913.19 595.3 909.37 598.17 942.64 617.41 943.33 617.3"/>
        <polygon class="dj" points="909.37 598.17 899.75 605.39 905.04 623.39 942.64 617.41 909.37 598.17"/>
      </g>
    </g>
    <g id="x" data-name="Layer 46">
      <path class="ae" d="M1365.44,583.37l11.59-14.26h0l16.34-20.1c-15.15-4.77-52.19-5.48-137.03,5.8l.08.16,109.02,28.4Z"/>
      <path class="ar" d="M1135.22,518.88c-.37.22-.74.44-1.11.66-.81.1-7.2,1.03-9.81,6.22-.37.73-1.39,2.78-.96,5.26.27,1.54,1.03,2.75,2.11,3.87l14.69-7.21-4.92-8.8Z"/>
      <path class="ah" d="M1234.74,586.72l21.25-31.86c-11.21-14.56-22.42-29.12-33.62-43.68,3.12-.1,7.91-.71,12.92-3.35,11.87-6.24,15.19-18.65,15.79-21.05-16.06-.09-22.9,1.97-26.07,4.07-.64.42-2.64,1.85-5.31,2.29l-13.17,42.26,28.22,51.32Z"/>
      <path class="dm" d="M1256.34,554.81c-.12.02-.23.03-.35.05l.43.11-.08-.16Z"/>
      <path class="dm" d="M1213.04,491.8l2.87-5.98c10.68-2.87,22.05-6.33,33.96-10.52,12.17-4.29,23.42-8.83,33.72-13.39,19.74-20.99,28.99-32.15,27.74-33.49-1.07-1.15-9.92,4.99-26.55,18.42,1.58-27.15,1.34-40.86-.72-41.14-2.18-.29-6.41,14.53-12.68,44.49-4.46,2.07-8.93,4.15-13.39,6.22-2.56-26.99-4.79-40.47-6.7-40.42-2.06.05-3.73,15.92-5.02,47.6-8.13,2.71-16.26,5.42-24.4,8.13-4.8-27.92-7.39-35.3-8.85-35.16-1.48.14-2.67,8.05-2.15,37.31-2.47.64-4.94,1.28-7.41,1.91-4.39-1.91-8.77-3.83-13.15-5.74-12.04-26.98-16.47-34.83-17.46-34.44-1.83.71,9.35,29.09,3.35,32.53-1.98,1.14-5.22-.8-7.41-2.39-10.63-8.8-16.45-12.71-17.46-11.72-1.08,1.06,3.31,7.67,13.15,19.85,9.57,3.59,19.13,7.18,28.7,10.76v4.78c-1.67.12-3.33.25-5,.37l29.15,3.45c-1.87-.16-3.36-.87-4.31-1.44Z"/>
      <path class="bf" d="M1219.69,493.13c-.74.12-1.52.17-2.34.1l-29.15-3.45c-1.52.11-3.05.23-4.57.34l-48.4,28.76,4.92,8.8-14.69,7.21c.98,1.03,2.22,1.99,3.63,3.06,1.52,1.16,3.9,2.75,7.18,4.07,14.58-.47,29.17-.95,43.75-1.42.04.25.08.5.12.75l26.37-5.97,13.17-42.26Z"/>
      <path class="df" d="M1416.65,752.71c-3.17,4.22-6.33,8.44-9.5,12.66,5.8.26,11.61.53,17.41.79,1.33-3.44,2.65-6.87,3.98-10.31.02-.08.04-.16.05-.25l-11.85-3.41c-.03.17-.06.34-.09.51Z"/>
      <path class="bg" d="M1262.33,749.54c-3.59,6.01-7.18,12.02-10.78,18.03,6.49.06,12.99.11,19.48.17,2.11-4.75,4.22-9.5,6.33-14.25.01-.79.02-1.58.03-2.36l-15.01-2.79-.06,1.2Z"/>
      <path class="cj" d="M1256.42,554.97l45.11,93.53c4.33-.82,8.65-1.64,12.98-2.47l50.94-62.66-109.02-28.4Z"/>
      <path class="cj" d="M1399.24,551.69c-1.43-.98-3.34-1.89-5.86-2.68l-16.34,20.1.41,64.96c.14-.03.29-.05.43-.08,7.81,10.39,18.85,22.67,34.03,34.03,6.29,4.71,12.43,8.62,18.2,11.87-4.45,24.1-8.91,48.2-13.36,72.3l11.85,3.41c6.31-29.19,12.61-58.39,18.92-87.58-2.82-2.75-6.09-6.64-8.71-11.87-7.28-14.58-4.13-28.96-2.85-33.76l-18.66-58.6c-10.08-5.82-16.08-10.74-18.06-12.1Z"/>
      <path class="ag" d="M1445.76,624.78c-.9-13.72,2.85-16.45.72-28.46-.93-5.23-2.27-12.76-7.89-19.37-4.95-5.83-9.17-6.16-21.29-13.15l18.66,58.6c.02,1.76.19,3.97.72,6.46,2.57,12.12,11.74,21.68,13.87,20.57,1.86-.97-3.76-9-4.78-24.64Z"/>
      <path class="aa" d="M1365.44,583.37h0l-50.94,62.66c20.98-3.99,41.96-7.97,62.93-11.96l-.41-64.96-11.59,14.26Z"/>
      <path class="ag" d="M1252.49,654.58c.09.03.17.07.26.1,3.84,18.11,7.68,36.23,11.52,54.34-.63,13.11-1.26,26.22-1.89,39.33l15.01,2.79c.25-18.73.51-37.47.76-56.2,6.86-15.3,13.72-30.6,20.58-45.9.08-.02.16-.03.24-.05l-64.23-62.27,17.75,67.86Z"/>
      <path class="at" d="M1234.74,586.72l-26.02,39.01c1.2,1.44,2.44,2.87,3.75,4.31,5.41,5.94,10.84,10.83,15.88,14.84,8.05,3.23,16.09,6.47,24.14,9.7l-17.75-67.86h0Z"/>
      <path class="bj" d="M1206.52,535.39l-26.37,5.97c2.86,17.43,5.72,34.85,8.58,52.28,4.07,9.12,10.34,20.55,19.99,32.1l26.02-39.01-28.22-51.32Z"/>
      <path class="cd" d="M1256.42,554.97l-.43-.11-21.25,31.86h0l64.23,62.27c.85-.16,1.7-.32,2.56-.49l-45.11-93.53Z"/>
    </g>
  </g>
</svg>